<?xml version="1.0" encoding="utf-8"?>
<!-- Generator: Adobe Illustrator 16.0.4, SVG Export Plug-In . SVG Version: 6.00 Build 0)  -->
<!DOCTYPE svg PUBLIC "-//W3C//DTD SVG 1.1//EN" "http://www.w3.org/Graphics/SVG/1.1/DTD/svg11.dtd">
<svg version="1.1" id="Ebene_1" xmlns="http://www.w3.org/2000/svg" xmlns:xlink="http://www.w3.org/1999/xlink" x="0px" y="0px"
	 width="80px" height="80px" viewBox="0 0 80 80" enable-background="new 0 0 80 80" xml:space="preserve">
<g id="Quadr._Hilfslinien_Kopie" display="none">
</g>
<g id="Quadrate">
</g>
<g id="Ebene_1_1_">
	<g>
		<path fill="#D3D4D5" d="M59.756,43.072c-0.324,0-0.643,0.023-0.959,0.049c-0.152-0.031-0.309-0.049-0.471-0.049H21.402
			c-0.133,0-0.262,0.018-0.389,0.039c-0.256-0.021-0.51-0.039-0.77-0.039c-6.705,0-12.16,5.453-12.16,12.154
			c0,6.707,5.455,12.162,12.16,12.162c0.26,0,0.514-0.023,0.77-0.039c0.127,0.021,0.256,0.039,0.389,0.039h36.924
			c0.162,0,0.318-0.021,0.471-0.053c0.318,0.021,0.635,0.053,0.959,0.053c6.705,0,12.16-5.455,12.16-12.162
			C71.916,48.525,66.461,43.072,59.756,43.072z M50.248,47.672c-1.656,2.077-2.652,4.7-2.652,7.557c0,2.857,0.996,5.482,2.652,7.562
			H29.752c1.656-2.078,2.652-4.703,2.652-7.562c0-2.854-0.996-5.479-2.65-7.557H50.248z M12.684,55.229
			c0-4.166,3.393-7.557,7.561-7.557s7.561,3.391,7.561,7.557c0,4.168-3.393,7.562-7.561,7.562S12.684,59.396,12.684,55.229z
			 M59.756,62.789c-4.168,0-7.561-3.393-7.561-7.562c0-4.166,3.393-7.556,7.561-7.556s7.561,3.39,7.561,7.556
			C67.316,59.396,63.924,62.789,59.756,62.789z"/>
		<path fill="#D3D4D5" d="M27.875,32.994c0.447,0.449,1.037,0.674,1.625,0.674c0.59,0,1.178-0.225,1.627-0.674
			c0.898-0.897,0.898-2.354,0-3.252l-4.305-4.305h31.379c1.271,0,2.301-1.029,2.301-2.3s-1.029-2.3-2.301-2.3H26.824l4.303-4.3
			c0.898-0.898,0.898-2.354,0-3.253c-0.898-0.899-2.354-0.897-3.252-0.001l-8.23,8.227c-0.432,0.432-0.674,1.017-0.674,1.627
			c0,0.609,0.242,1.195,0.674,1.626L27.875,32.994z"/>
	</g>
</g>
</svg>
