<?xml version="1.0" encoding="utf-8"?>
<!-- Generator: Adobe Illustrator 16.0.4, SVG Export Plug-In . SVG Version: 6.00 Build 0)  -->
<!DOCTYPE svg PUBLIC "-//W3C//DTD SVG 1.0//EN" "http://www.w3.org/TR/2001/REC-SVG-20010904/DTD/svg10.dtd">
<svg version="1.0" xmlns="http://www.w3.org/2000/svg" xmlns:xlink="http://www.w3.org/1999/xlink" x="0px" y="0px" width="80px"
	 height="80px" viewBox="0 0 80 80" enable-background="new 0 0 80 80" xml:space="preserve">
<g id="Quadr._Hilfslinien_Kopie" display="none">
</g>
<g id="Quadrate">
</g>
<g id="Ebene_1">
	<path fill="#58585A" d="M58.757,19.631H21.242c-1.271,0-2.3,1.029-2.3,2.3v36.138c0,1.271,1.029,2.3,2.3,2.3h37.515
		c1.271,0,2.3-1.029,2.3-2.3V21.931C61.057,20.66,60.027,19.631,58.757,19.631z M23.542,26.719l13.185,13.184L23.542,53.086V26.719z
		 M27.417,24.23h24.981l-12.49,12.49L27.417,24.23z M39.908,43.084l12.685,12.685h-25.37L39.908,43.084z M43.09,39.902
		l13.367-13.367V53.27L43.09,39.902z"/>
</g>
</svg>
