<?xml version="1.0" encoding="utf-8"?>
<!-- Generator: Adobe Illustrator 15.1.0, SVG Export Plug-In . SVG Version: 6.00 Build 0)  -->
<!DOCTYPE svg PUBLIC "-//W3C//DTD SVG 1.0//EN" "http://www.w3.org/TR/2001/REC-SVG-20010904/DTD/svg10.dtd">
<svg version="1.0" id="svg1" xmlns="http://www.w3.org/2000/svg" xmlns:xlink="http://www.w3.org/1999/xlink" x="0px" y="0px"
	 width="600px" height="300px" viewBox="0 0 600 300" enable-background="new 0 0 600 300" xml:space="preserve">
<rect id="rect908" fill="#002B7F" width="600" height="300"/>
<path id="path4640" fill="#FFFFFF" d="M0,300h67.08L600,33.54V0h-67.08L0,266.46V300z"/>
<path id="path6505" fill="#FFFFFF" d="M600,300h-67.08L0,33.54V0h67.08L600,266.46V300z"/>
<rect id="rect1530" x="250" fill="#FFFFFF" width="100" height="300"/>
<rect id="rect2152" y="100" fill="#FFFFFF" width="600" height="100"/>
<rect id="rect3395" y="120" fill="#CE1126" width="600" height="60"/>
<rect id="rect4017" x="270" fill="#CE1126" width="60" height="300"/>
<path id="path7127" fill="#CE1126" d="M0,300h44.72l200-100H200L0,300z"/>
<path id="path8371" fill="#CE1126" d="M355.279,100H400L600,0h-44.72L355.279,100z"/>
<path id="path8994" fill="#CE1126" d="M600,300v-22.359L444.72,200H400L600,300z"/>
<path id="path9616" fill="#CE1126" d="M0,0v22.36L155.28,100H200L0,0z"/>
</svg>
