<?xml version="1.0" encoding="utf-8"?>
<!-- Generator: Adobe Illustrator 16.0.4, SVG Export Plug-In . SVG Version: 6.00 Build 0)  -->
<!DOCTYPE svg PUBLIC "-//W3C//DTD SVG 1.1//EN" "http://www.w3.org/Graphics/SVG/1.1/DTD/svg11.dtd">
<svg version="1.1" id="Ebene_1" xmlns="http://www.w3.org/2000/svg" xmlns:xlink="http://www.w3.org/1999/xlink" x="0px" y="0px"
	 width="80px" height="80px" viewBox="0 0 80 80" enable-background="new 0 0 80 80" xml:space="preserve">
<g id="Quadr._Hilfslinien_Kopie" display="none">
</g>
<g id="Quadrate">
</g>
<g id="Ebene_1_1_">
	<path fill="#D3D4D5" d="M65.549,18.157H14.451c-1.188,0-2.15,0.963-2.15,2.15v15.654c0,1.188,0.963,2.15,2.15,2.15h3.418
		l16.707,26.125c0.402,0.629,1.092,0.992,1.811,0.992c0.201,0,0.404-0.028,0.604-0.088c0.918-0.27,1.547-1.107,1.547-2.062V38.112
		h2.651v24.967c0,0.955,0.631,1.796,1.547,2.063c0.199,0.059,0.402,0.086,0.604,0.086c0.721,0,1.408-0.363,1.812-0.992
		l16.705-26.125h3.69c1.188,0,2.15-0.963,2.15-2.15V20.308C67.699,19.12,66.736,18.157,65.549,18.157z M34.236,55.727l-11.25-17.595
		h11.25V55.727z M45.49,55.727V38.132h11.248L45.49,55.727z M63.398,33.812H16.602V22.458h46.796V33.812L63.398,33.812z"/>
</g>
</svg>
