<?xml version="1.0" encoding="utf-8"?>
<!-- Generator: Adobe Illustrator 16.0.4, SVG Export Plug-In . SVG Version: 6.00 Build 0)  -->
<!DOCTYPE svg PUBLIC "-//W3C//DTD SVG 1.1//EN" "http://www.w3.org/Graphics/SVG/1.1/DTD/svg11.dtd">
<svg version="1.1" id="Ebene_1" xmlns="http://www.w3.org/2000/svg" xmlns:xlink="http://www.w3.org/1999/xlink" x="0px" y="0px"
	 width="80px" height="80px" viewBox="0 0 80 80" enable-background="new 0 0 80 80" xml:space="preserve">
<g id="Quadr._Hilfslinien_Kopie" display="none">
</g>
<g id="Quadrate">
</g>
<g id="Ebene_1_1_">
	<path fill="#D3D4D5" d="M67.547,36.733c0.029-0.08,0.055-0.16,0.076-0.243c0.023-0.096,0.037-0.194,0.049-0.294
		c0.006-0.063,0.018-0.125,0.018-0.188c0.002-0.015,0.006-0.029,0.006-0.045V20.309c0-1.188-0.963-2.15-2.147-2.15H14.451
		c-1.188,0-2.15,0.963-2.15,2.15v15.654c0,0.218,0.041,0.425,0.102,0.623c0.006,0.02,0.012,0.038,0.018,0.058
		c0.055,0.16,0.123,0.313,0.211,0.454c0.008,0.014,0.012,0.029,0.02,0.043l17.33,27.097c0.402,0.63,1.092,0.992,1.812,0.992
		c0.199,0,0.402-0.027,0.6-0.086c0.916-0.269,1.547-1.104,1.551-2.061l0.062-24.973h12.021l0.043,24.971
		c0.004,0.954,0.635,1.793,1.551,2.062c0.197,0.059,0.398,0.086,0.604,0.086c0.719,0,1.406-0.362,1.812-0.992l17.327-27.097
		c0.043-0.067,0.062-0.144,0.101-0.214C67.488,36.863,67.521,36.801,67.547,36.733z M16.602,22.459h46.792v11.354H16.602V22.459z
		 M29.66,55.757L18.389,38.133h11.316L29.66,55.757z M50.355,55.747l-0.031-17.614h11.295L50.355,55.747z"/>
</g>
</svg>
