<?xml version="1.0" encoding="utf-8"?>
<!-- Generator: Adobe Illustrator 16.0.4, SVG Export Plug-In . SVG Version: 6.00 Build 0)  -->
<!DOCTYPE svg PUBLIC "-//W3C//DTD SVG 1.1//EN" "http://www.w3.org/Graphics/SVG/1.1/DTD/svg11.dtd">
<svg version="1.1" id="Ebene_1" xmlns="http://www.w3.org/2000/svg" xmlns:xlink="http://www.w3.org/1999/xlink" x="0px" y="0px"
	 width="80px" height="80px" viewBox="0 0 80 80" enable-background="new 0 0 80 80" xml:space="preserve">
<g id="Quadr._Hilfslinien_Kopie" display="none">
</g>
<g id="Quadrate">
</g>
<g id="Ebene_1_1_">
	<g>
		<path fill="#D3D4D5" d="M69.652,27.675c-0.571-0.425-1.313-0.553-1.992-0.347l-11.665,3.531v-8.566c0-1.242-1.009-2.25-2.25-2.25
			H15.312c-1.242,0-2.25,1.008-2.25,2.25v35.395c0,1.242,1.008,2.25,2.25,2.25H53.79c1.242,0,2.25-1.008,2.25-2.25V49.13
			l11.621,3.517c0.682,0.209,1.421,0.078,1.991-0.347c0.572-0.425,0.91-1.095,0.91-1.807V29.481
			C70.562,28.77,70.227,28.099,69.652,27.675z M66.062,47.462l-11.621-3.517c-0.682-0.207-1.42-0.077-1.992,0.347
			c-0.572,0.425-0.909,1.095-0.909,1.808v9.338H17.562V24.543h33.933v9.349c0,0.712,0.337,1.383,0.909,1.807
			c0.572,0.424,1.312,0.552,1.992,0.347l11.666-3.531V47.462z"/>
		<path fill="#D3D4D5" d="M43.205,38.825l-12.347-7.126c-0.393-0.227-0.876-0.227-1.271,0c-0.393,0.229-0.635,0.646-0.635,1.101
			v14.255c0,0.453,0.242,0.873,0.635,1.1c0.197,0.113,0.416,0.173,0.636,0.173c0.22,0,0.438-0.06,0.636-0.173l12.347-7.127
			c0.394-0.229,0.635-0.646,0.635-1.101C43.841,39.471,43.6,39.052,43.205,38.825z"/>
	</g>
</g>
</svg>
