<?xml version="1.0" encoding="utf-8"?>
<!-- Generator: Adobe Illustrator 15.0.0, SVG Export Plug-In . SVG Version: 6.00 Build 0)  -->
<!DOCTYPE svg PUBLIC "-//W3C//DTD SVG 1.1//EN" "http://www.w3.org/Graphics/SVG/1.1/DTD/svg11.dtd">
<svg version="1.1" id="Ebene_1" xmlns="http://www.w3.org/2000/svg" xmlns:xlink="http://www.w3.org/1999/xlink" x="0px" y="0px"
	 width="80px" height="80px" viewBox="0 0 80 80" enable-background="new 0 0 80 80" xml:space="preserve">
<g id="Quadr._Hilfslinien_Kopie" display="none">
</g>
<g id="Quadrate">
</g>
<g id="Ebene_1_1_">
	<g>
		<path fill="#59595A" d="M58.203,36.538c-0.979-0.974-2.562-0.969-3.536,0.009L42.5,48.775V10.699c0-1.381-1.119-2.5-2.5-2.5
			s-2.5,1.119-2.5,2.5v38.1l-12.171-12.17c-0.977-0.977-2.559-0.977-3.535,0s-0.977,2.56,0,3.535l16.438,16.438
			c0.469,0.469,1.104,0.732,1.768,0.732c0,0,0.002,0,0.003,0c0.664-0.001,1.302-0.266,1.771-0.736l16.438-16.522
			C59.186,39.095,59.182,37.512,58.203,36.538z"/>
		<circle fill="#59595A" cx="40" cy="65.882" r="3.419"/>
	</g>
</g>
</svg>
