<?xml version="1.0" encoding="utf-8"?>
<!-- Generator: Adobe Illustrator 16.0.4, SVG Export Plug-In . SVG Version: 6.00 Build 0)  -->
<!DOCTYPE svg PUBLIC "-//W3C//DTD SVG 1.1//EN" "http://www.w3.org/Graphics/SVG/1.1/DTD/svg11.dtd">
<svg version="1.1" id="Ebene_1" xmlns="http://www.w3.org/2000/svg" xmlns:xlink="http://www.w3.org/1999/xlink" x="0px" y="0px"
	 width="80px" height="80px" viewBox="0 0 80 80" enable-background="new 0 0 80 80" xml:space="preserve">
<g id="Quadr._Hilfslinien_Kopie" display="none">
</g>
<g id="Quadrate">
</g>
<g id="Ebene_1_1_">
	<path fill="#79B63E" d="M65.203,38.228l-16.525-16.44c-0.978-0.974-2.562-0.97-3.535,0.01c-0.974,0.979-0.97,2.562,0.01,3.535
		L57.383,37.5H16.562c-1.381,0-2.5,1.119-2.5,2.5s1.119,2.5,2.5,2.5h40.844L45.23,54.672c-0.978,0.977-0.978,2.559,0,3.535
		c0.487,0.488,1.129,0.732,1.769,0.732s1.278-0.244,1.769-0.732l16.44-16.439c0.47-0.47,0.733-1.104,0.731-1.771
		C65.939,39.332,65.675,38.696,65.203,38.228z"/>
</g>
</svg>
