<?xml version="1.0" encoding="utf-8"?>
<!-- Generator: Adobe Illustrator 16.0.4, SVG Export Plug-In . SVG Version: 6.00 Build 0)  -->
<!DOCTYPE svg PUBLIC "-//W3C//DTD SVG 1.1//EN" "http://www.w3.org/Graphics/SVG/1.1/DTD/svg11.dtd">
<svg version="1.1" id="Ebene_1" xmlns="http://www.w3.org/2000/svg" xmlns:xlink="http://www.w3.org/1999/xlink" x="0px" y="0px"
	 width="80px" height="80px" viewBox="0 0 80 80" enable-background="new 0 0 80 80" xml:space="preserve">
<g id="Quadr._Hilfslinien_Kopie" display="none">
</g>
<g id="Quadrate">
</g>
<g id="Ebene_1_1_">
	<g>
		<circle fill="#79B63E" cx="40.001" cy="54.732" r="3.047"/>
		<path fill="#79B63E" d="M40.001,28.054c1.685,0,3.046-1.359,3.046-3.045c0-1.683-1.361-3.044-3.046-3.044
			c-1.682,0-3.046,1.361-3.046,3.044C36.955,26.694,38.319,28.054,40.001,28.054z"/>
		<path fill="#79B63E" d="M54.395,44.663c-1.459-0.845-3.318-0.345-4.16,1.114c-0.842,1.453-0.346,3.318,1.111,4.16
			c1.459,0.846,3.32,0.342,4.162-1.115C56.352,47.365,55.85,45.505,54.395,44.663z"/>
		<circle fill="#79B63E" cx="27.13" cy="32.44" r="3.046"/>
		<path fill="#79B63E" d="M54.395,35.078c1.455-0.84,1.955-2.705,1.112-4.161c-0.843-1.459-2.702-1.958-4.161-1.113
			c-1.457,0.839-1.957,2.701-1.113,4.159C51.07,35.421,52.936,35.92,54.395,35.078z"/>
		<path fill="#79B63E" d="M25.607,44.663c-1.459,0.842-1.957,2.702-1.115,4.159c0.841,1.457,2.705,1.961,4.16,1.117
			c1.46-0.844,1.956-2.709,1.115-4.162C28.927,44.318,27.065,43.818,25.607,44.663z"/>
		<path fill="#79B63E" d="M40.001,14.447c-14.09,0-25.553,11.461-25.553,25.548c0,14.09,11.463,25.554,25.553,25.554
			c14.088,0,25.549-11.464,25.549-25.554C65.55,25.908,54.089,14.447,40.001,14.447z M40.001,60.748
			c-11.443,0-20.752-9.311-20.752-20.753c0-11.44,9.309-20.747,20.752-20.747c11.44,0,20.748,9.307,20.748,20.747
			C60.749,51.438,51.441,60.748,40.001,60.748z"/>
		<path fill="#79B63E" d="M42.934,34.947c-0.888-0.511-1.895-0.78-2.912-0.78c-2.078,0-4.015,1.116-5.055,2.916
			c-1.606,2.785-0.648,6.358,2.136,7.967c0.885,0.511,1.891,0.78,2.909,0.78c2.081,0,4.019-1.118,5.056-2.918
			C46.674,40.133,45.717,36.56,42.934,34.947z M42.902,41.663c-0.594,1.028-1.7,1.667-2.891,1.667c-0.58,0-1.154-0.154-1.66-0.445
			c-1.59-0.919-2.137-2.961-1.22-4.552c0.594-1.027,1.701-1.666,2.89-1.666c0.581,0,1.156,0.154,1.661,0.445
			C43.271,38.033,43.82,40.074,42.902,41.663z"/>
	</g>
</g>
</svg>
