<?xml version="1.0" encoding="utf-8"?>
<!-- Generator: Adobe Illustrator 15.0.0, SVG Export Plug-In . SVG Version: 6.00 Build 0)  -->
<!DOCTYPE svg PUBLIC "-//W3C//DTD SVG 1.1//EN" "http://www.w3.org/Graphics/SVG/1.1/DTD/svg11.dtd">
<svg version="1.1" id="Ebene_1" xmlns="http://www.w3.org/2000/svg" xmlns:xlink="http://www.w3.org/1999/xlink" x="0px" y="0px"
	 width="80px" height="80px" viewBox="0 0 80 80" enable-background="new 0 0 80 80" xml:space="preserve">
<g id="Quadr._Hilfslinien_Kopie" display="none">
</g>
<g id="Quadrate">
</g>
<g id="Ebene_1_1_">
	<path fill="#59595A" d="M57.068,19.038c-1.381,0-2.5,1.119-2.5,2.5v15.521L24.181,19.512c-0.773-0.447-1.727-0.447-2.5,0
		c-0.773,0.446-1.25,1.271-1.25,2.165v36.746c0,0.894,0.477,1.72,1.25,2.165c0.387,0.225,0.818,0.335,1.25,0.335
		c0.432,0,0.863-0.11,1.25-0.335L54.57,43.044v15.419c0,1.381,1.119,2.5,2.5,2.5s2.5-1.119,2.5-2.5V21.538
		C59.568,20.157,58.45,19.038,57.068,19.038z M25.431,54.094V26.007l24.322,14.045L25.431,54.094z"/>
</g>
</svg>
