<?xml version="1.0" encoding="utf-8"?>
<!-- Generator: Adobe Illustrator 16.0.4, SVG Export Plug-In . SVG Version: 6.00 Build 0)  -->
<!DOCTYPE svg PUBLIC "-//W3C//DTD SVG 1.1//EN" "http://www.w3.org/Graphics/SVG/1.1/DTD/svg11.dtd">
<svg version="1.1" id="Ebene_1" xmlns="http://www.w3.org/2000/svg" xmlns:xlink="http://www.w3.org/1999/xlink" x="0px" y="0px"
	 width="80px" height="80px" viewBox="0 0 80 80" enable-background="new 0 0 80 80" xml:space="preserve">
<g id="Quadr._Hilfslinien_Kopie" display="none">
</g>
<g id="Quadrate">
</g>
<g id="Ebene_1_1_">
	<g>
		<circle fill="#79B63E" cx="52.818" cy="42.89" r="2.694"/>
		<path fill="#79B63E" d="M48.755,12.289H31.246c-6.868,0-12.456,5.589-12.456,12.458v30.509c0,6.869,5.588,12.458,12.456,12.458
			h17.508c6.869,0,12.457-5.589,12.457-12.458l0.002-30.51C61.211,17.877,55.622,12.289,48.755,12.289z M56.611,55.256
			c0,4.333-3.525,7.857-7.857,7.857H31.246c-4.332,0-7.856-3.524-7.856-7.857V24.747c0-4.333,3.524-7.858,7.856-7.858h17.509
			c4.331,0,7.856,3.525,7.858,7.858L56.611,55.256z"/>
		<path fill="#79B63E" d="M41.67,23.023c-0.844-0.844-2.338-0.844-3.182,0l-7.66,7.663c-0.879,0.879-0.879,2.304,0,3.182
			c0.439,0.439,1.015,0.659,1.591,0.659s1.152-0.22,1.591-0.659l3.819-3.82v25.983c0,1.242,1.008,2.25,2.25,2.25
			c1.241,0,2.25-1.008,2.25-2.25V30.047l3.821,3.821c0.879,0.879,2.303,0.879,3.182,0c0.879-0.878,0.879-2.303,0-3.182L41.67,23.023
			z"/>
	</g>
</g>
</svg>
