<?xml version="1.0" encoding="utf-8"?>
<!-- Generator: Adobe Illustrator 16.0.4, SVG Export Plug-In . SVG Version: 6.00 Build 0)  -->
<!DOCTYPE svg PUBLIC "-//W3C//DTD SVG 1.1//EN" "http://www.w3.org/Graphics/SVG/1.1/DTD/svg11.dtd">
<svg version="1.1" id="Ebene_1" xmlns="http://www.w3.org/2000/svg" xmlns:xlink="http://www.w3.org/1999/xlink" x="0px" y="0px"
	 width="80px" height="80px" viewBox="0 0 80 80" enable-background="new 0 0 80 80" xml:space="preserve">
<g id="Quadr._Hilfslinien_Kopie" display="none">
</g>
<g id="Quadrate">
</g>
<g id="Ebene_1_1_">
	<path fill="#E2001A" d="M58.201,45.105c-0.979-0.976-2.562-0.972-3.535,0.01L42.503,57.344v-40.82c0-1.381-1.119-2.5-2.5-2.5
		s-2.5,1.119-2.5,2.5v40.841L25.33,45.193c-0.977-0.978-2.559-0.978-3.535,0s-0.977,2.561,0,3.535l16.44,16.438
		c0.469,0.47,1.104,0.73,1.768,0.73h0.003c0.665,0,1.301-0.266,1.77-0.735l16.438-16.521C59.186,47.662,59.182,46.079,58.201,45.105
		z"/>
</g>
</svg>
