<?xml version="1.0" encoding="utf-8"?>
<!-- Generator: Adobe Illustrator 16.0.4, SVG Export Plug-In . SVG Version: 6.00 Build 0)  -->
<!DOCTYPE svg PUBLIC "-//W3C//DTD SVG 1.1//EN" "http://www.w3.org/Graphics/SVG/1.1/DTD/svg11.dtd">
<svg version="1.1" id="Ebene_1" xmlns="http://www.w3.org/2000/svg" xmlns:xlink="http://www.w3.org/1999/xlink" x="0px" y="0px"
	 width="80px" height="80px" viewBox="0 0 80 80" enable-background="new 0 0 80 80" xml:space="preserve">
<g id="Quadr._Hilfslinien_Kopie" display="none">
</g>
<g id="Quadrate">
</g>
<g id="Ebene_1_1_">
	<path fill="#E2001A" d="M43.087,16.178c-1.381,0-2.5,1.119-2.5,2.5c0,1.381,1.119,2.5,2.5,2.5c10.253,0,18.595,8.343,18.595,18.597
		c0,10.252-8.342,18.594-18.595,18.594c-10.25,0-18.591-8.342-18.593-18.594v-4.421l7.716,7.917
		c0.869,0.891,2.293,0.908,3.182,0.041c0.89-0.867,0.908-2.291,0.041-3.185l-11.697-12c-0.422-0.433-0.999-0.678-1.603-0.68
		c-0.003,0-0.006,0-0.009,0c-0.601,0-1.177,0.24-1.6,0.668L8.557,40.215c-0.874,0.885-0.866,2.309,0.018,3.184
		c0.438,0.436,1.01,0.649,1.582,0.649c0.58,0,1.159-0.224,1.6-0.668l7.738-7.822v4.217c0.002,13.01,10.586,23.594,23.593,23.594
		c13.01,0,23.596-10.584,23.596-23.594C66.682,26.763,56.098,16.178,43.087,16.178z"/>
</g>
</svg>
