<?xml version="1.0" encoding="utf-8"?>
<!-- Generator: Adobe Illustrator 16.0.4, SVG Export Plug-In . SVG Version: 6.00 Build 0)  -->
<!DOCTYPE svg PUBLIC "-//W3C//DTD SVG 1.1//EN" "http://www.w3.org/Graphics/SVG/1.1/DTD/svg11.dtd">
<svg version="1.1" id="Ebene_1" xmlns="http://www.w3.org/2000/svg" xmlns:xlink="http://www.w3.org/1999/xlink" x="0px" y="0px"
	 width="80px" height="80px" viewBox="0 0 80 80" enable-background="new 0 0 80 80" xml:space="preserve">
<g id="Quadr._Hilfslinien_Kopie" display="none">
</g>
<g id="Quadrate">
</g>
<g id="Ebene_1_1_">
	<path fill="#E2001A" d="M63.831,29.965c-0.724-0.408-1.612-0.393-2.322,0.039L42.205,41.736V22.841h11.197
		c1.271,0,2.3-1.029,2.3-2.3s-1.029-2.3-2.3-2.3H26.788c-1.271,0-2.3,1.029-2.3,2.3s1.029,2.3,2.3,2.3h10.817v18.784l-19.112-11.62
		c-0.712-0.434-1.601-0.448-2.322-0.04c-0.725,0.407-1.173,1.174-1.173,2.005v27.488c0,0.831,0.448,1.599,1.173,2.005
		c0.35,0.197,0.738,0.295,1.127,0.295c0.414,0,0.828-0.111,1.194-0.334l21.512-13.076l21.504,13.075
		c0.367,0.224,0.781,0.335,1.195,0.335c0.389,0,0.777-0.098,1.127-0.295c0.725-0.406,1.173-1.174,1.173-2.005V31.97
		C65.003,31.139,64.555,30.372,63.831,29.965z M19.598,55.368V36.06l15.88,9.655L19.598,55.368z M60.402,55.367l-15.879-9.656
		l15.879-9.651V55.367z"/>
</g>
</svg>
