<?xml version="1.0" encoding="utf-8"?>
<!-- Generator: Adobe Illustrator 16.0.4, SVG Export Plug-In . SVG Version: 6.00 Build 0)  -->
<!DOCTYPE svg PUBLIC "-//W3C//DTD SVG 1.1//EN" "http://www.w3.org/Graphics/SVG/1.1/DTD/svg11.dtd">
<svg version="1.1" id="Ebene_1" xmlns="http://www.w3.org/2000/svg" xmlns:xlink="http://www.w3.org/1999/xlink" x="0px" y="0px"
	 width="80px" height="80px" viewBox="0 0 80 80" enable-background="new 0 0 80 80" xml:space="preserve">
<g id="Ebene_1_1_">
	<path fill="#E2001A" d="M64.663,61.629H14.741c-0.821,0-1.581-0.438-1.992-1.148c-0.41-0.713-0.41-1.59,0-2.301l24.96-43.237
		c0.411-0.711,1.171-1.149,1.992-1.149c0.82,0,1.581,0.438,1.992,1.149L66.654,58.18c0.41,0.711,0.41,1.588,0,2.301
		C66.244,61.189,65.484,61.629,64.663,61.629z M18.725,57.029H60.68L39.701,20.693L18.725,57.029z"/>
	<g>
		<polygon fill="#E2001A" points="42.121,30.249 41.52,46.52 37.956,46.52 37.31,30.249 		"/>
		<rect x="37.525" y="49.52" fill="#E2001A" width="4.381" height="4.203"/>
	</g>
</g>
</svg>
