<?xml version="1.0" encoding="utf-8"?>
<!-- Generator: Adobe Illustrator 16.0.4, SVG Export Plug-In . SVG Version: 6.00 Build 0)  -->
<!DOCTYPE svg PUBLIC "-//W3C//DTD SVG 1.1//EN" "http://www.w3.org/Graphics/SVG/1.1/DTD/svg11.dtd">
<svg version="1.1" id="Ebene_1" xmlns="http://www.w3.org/2000/svg" xmlns:xlink="http://www.w3.org/1999/xlink" x="0px" y="0px"
	 width="80px" height="80px" viewBox="0 0 80 80" enable-background="new 0 0 80 80" xml:space="preserve">
<g id="Quadr._Hilfslinien_Kopie" display="none">
</g>
<g id="Quadrate" display="none">
</g>
<g id="Ebene_1_1_">
	<g>
		<path fill="#E2001A" d="M21.595,44.126c-0.287-1.31-0.433-2.667-0.433-4.034c0-10.398,8.459-18.857,18.855-18.857
			c4.84,0,9.363,1.801,12.822,5.025l-8.317-0.109c-0.01,0-0.021,0-0.029,0c-1.229,0-2.232,0.988-2.249,2.221
			c-0.019,1.242,0.979,2.263,2.221,2.279l13.289,0.175c0.011,0,0.021,0,0.029,0c0.593,0,1.161-0.234,1.585-0.652
			c0.429-0.426,0.668-1.006,0.665-1.609L59.96,15.071c-0.007-1.239-1.015-2.238-2.25-2.238c-0.004,0-0.008,0-0.012,0
			c-1.243,0.007-2.245,1.02-2.238,2.262l0.036,6.84c-4.271-3.662-9.691-5.698-15.478-5.698c-13.154,0-23.855,10.702-23.855,23.857
			c0,1.727,0.185,3.443,0.548,5.104c0.256,1.168,1.291,1.967,2.44,1.967c0.177,0,0.356-0.02,0.537-0.059
			C21.036,46.809,21.89,45.477,21.595,44.126z"/>
		<path fill="#E2001A" d="M63.29,34.714c-0.295-1.349-1.626-2.199-2.978-1.908c-1.35,0.295-2.203,1.628-1.908,2.977
			c0.287,1.312,0.434,2.671,0.434,4.037c0,10.396-8.459,18.855-18.855,18.855c-4.843,0-9.365-1.801-12.822-5.024l8.318,0.106
			c0.01,0,0.02,0,0.03,0c1.229,0,2.232-0.987,2.249-2.221c0.016-1.243-0.979-2.263-2.221-2.279l-13.289-0.172
			c-0.581,0.001-1.186,0.228-1.614,0.653c-0.429,0.425-0.668,1.005-0.665,1.607l0.07,13.493c0.007,1.238,1.013,2.238,2.25,2.238
			c0.004,0,0.008,0,0.012,0c1.242-0.009,2.245-1.021,2.238-2.263l-0.036-6.842c4.271,3.662,9.692,5.698,15.479,5.698
			c13.155,0,23.855-10.7,23.855-23.855C63.838,38.095,63.652,36.377,63.29,34.714z"/>
	</g>
</g>
</svg>
