<?xml version="1.0" encoding="utf-8"?>
<!-- Generator: Adobe Illustrator 16.0.4, SVG Export Plug-In . SVG Version: 6.00 Build 0)  -->
<!DOCTYPE svg PUBLIC "-//W3C//DTD SVG 1.0//EN" "http://www.w3.org/TR/2001/REC-SVG-20010904/DTD/svg10.dtd">
<svg version="1.0" id="Ebene_1" xmlns="http://www.w3.org/2000/svg" xmlns:xlink="http://www.w3.org/1999/xlink" x="0px" y="0px"
	 width="80px" height="80px" viewBox="0 0 80 80" enable-background="new 0 0 80 80" xml:space="preserve">
<g id="Quadr._Hilfslinien_Kopie" display="none">
</g>
<g id="Quadrate">
</g>
<g id="Ebene_1_1_">
	<g>
		<path fill="#59595A" d="M40.388,13.198c-7.816,0-15.039,3.278-20.166,9.056l0.027-5.051c0.006-1.215-0.975-2.205-2.189-2.212
			h-0.012c-1.209,0-2.193,0.978-2.199,2.188L15.795,27.65c-0.004,0.584,0.225,1.145,0.637,1.56c0.41,0.414,0.969,0.649,1.551,0.652
			l10.473,0.055c0,0,0.008,0,0.012,0c1.209,0,2.193-0.978,2.199-2.188c0.006-1.215-0.973-2.205-2.188-2.212L23.5,25.49
			c4.262-4.905,10.324-7.692,16.889-7.692c12.35,0,22.398,10.05,22.398,22.401c0,12.353-10.049,22.402-22.398,22.402
			c-12.006,0-21.836-9.387-22.379-21.369c-0.057-1.269-1.127-2.247-2.402-2.192c-1.268,0.058-2.25,1.133-2.193,2.401
			c0.654,14.444,12.502,25.76,26.975,25.76c14.885,0,26.998-12.113,26.998-27.002C67.389,25.31,55.273,13.198,40.388,13.198z"/>
		<path fill="#59595A" d="M24.324,43.491h3.504c0.65,0,1.129-0.126,1.465-0.392c0.357-0.274,0.547-0.656,0.547-1.098
			c0-0.447-0.191-0.832-0.553-1.111c-0.342-0.259-0.818-0.385-1.459-0.385h-3.504c-0.641,0-1.117,0.126-1.457,0.387
			c-0.361,0.277-0.553,0.662-0.553,1.109c0,0.443,0.197,0.826,0.568,1.104C23.23,43.366,23.701,43.491,24.324,43.491z"/>
		<path fill="#59595A" d="M37.072,47.027c0.301,0.337,0.699,0.505,1.186,0.505c0.615,0,1.646-0.291,1.646-2.237V34.711
			c0-0.53-0.127-0.958-0.377-1.279c-0.268-0.343-0.643-0.525-1.084-0.525c-0.402,0-0.686,0.093-0.867,0.284
			c-0.074,0.077-0.23,0.262-0.709,0.927c-0.324,0.455-0.703,0.872-1.127,1.239c-0.42,0.365-0.992,0.717-1.701,1.055
			c-0.531,0.248-0.893,0.448-1.111,0.611c-0.203,0.151-0.449,0.448-0.449,0.999c0,0.369,0.141,0.699,0.41,0.977
			c0.27,0.28,0.594,0.424,0.959,0.424c0.365,0,1.045-0.158,2.785-1.426v7.659C36.632,46.24,36.779,46.703,37.072,47.027z"/>
		<path fill="#59595A" d="M54.895,47.02c0.309,0.338,0.703,0.514,1.178,0.514c0.5,0,0.906-0.176,1.211-0.516
			c0.293-0.33,0.441-0.805,0.441-1.42V34.875c0-0.725-0.209-1.232-0.627-1.512c-0.373-0.248-0.863-0.373-1.463-0.373h-0.85
			c-0.562,0-0.972,0.051-1.255,0.165c-0.321,0.13-0.563,0.362-0.715,0.691c-0.123,0.264-0.256,0.668-0.401,1.235l-1.604,6.045
			l-1.604-6.043c-0.147-0.573-0.279-0.974-0.399-1.237c-0.15-0.329-0.392-0.562-0.718-0.691c-0.278-0.114-0.688-0.165-1.254-0.165
			h-0.852c-0.598,0-1.088,0.125-1.459,0.373c-0.416,0.279-0.629,0.787-0.629,1.512v10.723c0,0.62,0.152,1.101,0.451,1.428
			c0.307,0.338,0.707,0.508,1.184,0.508c0.496,0,0.898-0.176,1.203-0.516c0.295-0.33,0.443-0.805,0.443-1.42v-6.299l1.426,5.676
			l0.221,0.819c0.08,0.296,0.188,0.565,0.326,0.806c0.154,0.271,0.371,0.493,0.646,0.668c0.28,0.174,0.623,0.266,1.014,0.266
			c0.521,0,0.941-0.141,1.252-0.424c0.289-0.258,0.49-0.553,0.602-0.875c0.09-0.271,0.207-0.687,0.355-1.262l1.424-5.674v6.299
			C54.443,46.213,54.598,46.688,54.895,47.02z"/>
	</g>
</g>
</svg>
