<?xml version="1.0" encoding="utf-8"?>
<!-- Generator: Adobe Illustrator 16.0.4, SVG Export Plug-In . SVG Version: 6.00 Build 0)  -->
<!DOCTYPE svg PUBLIC "-//W3C//DTD SVG 1.1//EN" "http://www.w3.org/Graphics/SVG/1.1/DTD/svg11.dtd">
<svg version="1.1" id="Ebene_1" xmlns="http://www.w3.org/2000/svg" xmlns:xlink="http://www.w3.org/1999/xlink" x="0px" y="0px"
	 width="80px" height="80px" viewBox="0 0 80 80" enable-background="new 0 0 80 80" xml:space="preserve">
<g id="Quadr._Hilfslinien_Kopie" display="none">
</g>
<g id="Quadrate">
</g>
<g id="Ebene_1_1_">
	<g>
		<path fill="#E2001A" d="M40.386,13.197c-7.697,0-15.07,3.356-20.166,9.065l0.027-5.06c0.006-1.216-0.975-2.205-2.189-2.212h-0.012
			c-1.209,0-2.193,0.979-2.199,2.188L15.793,27.65c-0.002,0.584,0.227,1.145,0.637,1.56c0.41,0.414,0.969,0.649,1.553,0.652
			l10.473,0.054h0.012c1.209,0,2.193-0.978,2.199-2.188c0.006-1.216-0.973-2.205-2.188-2.212l-4.98-0.025
			c4.262-4.906,10.322-7.693,16.889-7.693c12.352,0,22.401,10.05,22.401,22.402c0,12.353-10.051,22.401-22.401,22.401
			c-12.006,0-21.834-9.389-22.377-21.369c-0.059-1.271-1.113-2.223-2.402-2.192c-1.27,0.058-2.252,1.133-2.193,2.401
			c0.652,14.442,12.5,25.759,26.97,25.759c14.887,0,27-12.112,27-27.001C67.387,25.31,55.273,13.197,40.386,13.197z"/>
		<path fill="#E2001A" d="M23.331,43.49h3.506c0.648,0,1.127-0.127,1.463-0.393c0.357-0.273,0.547-0.656,0.547-1.099
			c0-0.447-0.191-0.832-0.555-1.108c-0.338-0.262-0.816-0.388-1.455-0.388h-3.506c-0.639,0-1.115,0.126-1.455,0.39
			c-0.363,0.274-0.555,0.659-0.555,1.106c0,0.442,0.197,0.827,0.566,1.104C22.234,43.365,22.708,43.49,23.331,43.49z"/>
		<path fill="#E2001A" d="M36.076,47.027c0.303,0.336,0.701,0.504,1.188,0.504c0.613,0,1.646-0.291,1.646-2.237V34.71
			c0-0.53-0.127-0.958-0.377-1.279c-0.268-0.342-0.643-0.524-1.084-0.524c-0.402,0-0.686,0.093-0.865,0.283
			c-0.076,0.078-0.23,0.262-0.709,0.928c-0.326,0.454-0.707,0.871-1.129,1.238c-0.418,0.365-0.99,0.717-1.701,1.055
			c-0.529,0.248-0.893,0.448-1.111,0.611c-0.203,0.152-0.447,0.448-0.447,0.999c0,0.369,0.137,0.7,0.408,0.977
			c0.271,0.281,0.594,0.425,0.961,0.425c0.363,0,1.045-0.159,2.781-1.426v7.659C35.636,46.238,35.785,46.703,36.076,47.027z"/>
		<path fill="#E2001A" d="M44.57,45.701c0.096,0.352,0.221,0.658,0.371,0.916c0.168,0.287,0.395,0.514,0.668,0.672
			c0.277,0.16,0.621,0.242,1.027,0.242c0.512,0,0.93-0.137,1.252-0.408c0.303-0.256,0.52-0.549,0.641-0.876
			c0.106-0.276,0.244-0.724,0.424-1.362l1.854-6.78l1.826,6.782c0.186,0.649,0.322,1.1,0.428,1.379
			c0.123,0.32,0.336,0.612,0.642,0.863c0.317,0.268,0.739,0.402,1.25,0.402c0.536,0,0.97-0.141,1.28-0.42
			c0.293-0.26,0.502-0.564,0.623-0.91c0.104-0.295,0.23-0.749,0.396-1.391l2.256-9.127c0.146-0.59,0.217-1.018,0.217-1.298
			c0-0.465-0.166-0.857-0.494-1.17c-0.32-0.303-0.715-0.457-1.17-0.457c-0.459,0-0.824,0.129-1.084,0.385
			c-0.229,0.228-0.396,0.489-0.49,0.779c-0.082,0.249-0.166,0.579-0.256,1.007l-1.441,6.422l-1.604-5.934
			c-0.17-0.612-0.306-1.064-0.408-1.346c-0.121-0.319-0.334-0.62-0.639-0.886c-0.322-0.285-0.771-0.431-1.324-0.431
			c-0.545,0-0.988,0.136-1.322,0.406c-0.312,0.26-0.545,0.568-0.688,0.925c-0.123,0.311-0.259,0.75-0.41,1.334l-1.593,5.921
			l-1.438-6.409c-0.139-0.65-0.299-1.14-0.486-1.496c-0.168-0.31-0.537-0.679-1.345-0.679c-0.462,0-0.858,0.156-1.179,0.468
			c-0.319,0.312-0.483,0.701-0.483,1.159c0,0.311,0.067,0.735,0.216,1.3l2.256,9.125C44.404,45.085,44.482,45.384,44.57,45.701z"/>
	</g>
</g>
</svg>
