<?xml version="1.0" encoding="utf-8"?>
<!-- Generator: Adobe Illustrator 16.0.4, SVG Export Plug-In . SVG Version: 6.00 Build 0)  -->
<!DOCTYPE svg PUBLIC "-//W3C//DTD SVG 1.1//EN" "http://www.w3.org/Graphics/SVG/1.1/DTD/svg11.dtd">
<svg version="1.1" id="Ebene_1" xmlns="http://www.w3.org/2000/svg" xmlns:xlink="http://www.w3.org/1999/xlink" x="0px" y="0px"
	 width="80px" height="80px" viewBox="0 0 80 80" enable-background="new 0 0 80 80" xml:space="preserve">
<g id="Quadr._Hilfslinien_Kopie" display="none">
</g>
<g id="Quadrate">
</g>
<g id="Ebene_1_1_">
	<g>
		<path fill="#D3D4D5" d="M25.893,43.49h3.506c0.648,0,1.127-0.127,1.463-0.393c0.359-0.273,0.547-0.654,0.547-1.099
			c0-0.448-0.191-0.832-0.555-1.108c-0.34-0.261-0.816-0.388-1.455-0.388h-3.506c-0.639,0-1.115,0.127-1.457,0.39
			c-0.361,0.274-0.551,0.658-0.551,1.106c0,0.442,0.195,0.827,0.568,1.104C24.797,43.366,25.27,43.49,25.893,43.49z"/>
		<path fill="#D3D4D5" d="M38.639,47.027c0.301,0.336,0.701,0.504,1.188,0.504c0.615,0,1.646-0.291,1.646-2.237V34.71
			c0-0.53-0.125-0.958-0.375-1.279c-0.269-0.342-0.644-0.524-1.084-0.524c-0.402,0-0.684,0.093-0.863,0.283
			c-0.076,0.078-0.232,0.263-0.709,0.928c-0.326,0.454-0.709,0.871-1.131,1.238c-0.416,0.365-0.988,0.717-1.697,1.055
			c-0.531,0.248-0.895,0.448-1.111,0.611c-0.205,0.152-0.449,0.448-0.449,0.999c0,0.369,0.139,0.7,0.406,0.978
			c0.273,0.28,0.598,0.424,0.961,0.424c0.367,0,1.043-0.159,2.783-1.426v7.659C38.199,46.24,38.348,46.703,38.639,47.027z"/>
		<path fill="#D3D4D5" d="M49.09,46.996c0.326,0.354,0.752,0.535,1.266,0.535c0.513,0,0.938-0.184,1.271-0.538
			c0.324-0.347,0.487-0.858,0.487-1.515V41.29l3.33-5.106c0.295-0.445,0.502-0.784,0.625-1.045c0.146-0.291,0.218-0.588,0.218-0.884
			c0-0.403-0.156-0.756-0.466-1.055c-0.303-0.294-0.684-0.443-1.127-0.443c-0.278,0-0.526,0.053-0.737,0.163
			c-0.194,0.1-0.377,0.248-0.533,0.438c-0.144,0.166-0.271,0.341-0.381,0.531l-2.623,4.229l-2.215-3.594
			c-0.404-0.662-0.705-1.096-0.914-1.327c-0.271-0.294-0.647-0.441-1.14-0.441c-0.451,0-0.844,0.148-1.157,0.443
			c-0.324,0.301-0.486,0.669-0.486,1.089c0,0.25,0.072,0.522,0.22,0.834c0.127,0.277,0.342,0.652,0.641,1.129l3.248,5.038v4.188
			C48.609,46.143,48.77,46.652,49.09,46.996z"/>
		<path fill="#D3D4D5" d="M39.986,13.197c-7.697,0-15.07,3.356-20.166,9.065l0.027-5.06c0.008-1.215-0.973-2.205-2.188-2.212h-0.012
			c-1.211,0-2.193,0.979-2.201,2.188L15.391,27.65c-0.002,0.583,0.227,1.145,0.637,1.56c0.41,0.414,0.969,0.649,1.553,0.652
			l10.475,0.054c0,0,0.008,0,0.012,0c1.209,0,2.193-0.978,2.199-2.188c0.006-1.216-0.973-2.205-2.188-2.212l-4.98-0.025
			c4.262-4.905,10.322-7.693,16.889-7.693c12.352,0,22.403,10.05,22.403,22.402c0,12.353-10.052,22.401-22.403,22.401
			c-12.006,0-21.836-9.389-22.377-21.369c-0.059-1.271-1.127-2.249-2.402-2.192c-1.27,0.058-2.252,1.133-2.193,2.401
			c0.652,14.443,12.5,25.759,26.97,25.759c14.889,0,27.002-12.112,27.002-27.001C66.988,25.31,54.875,13.197,39.986,13.197z"/>
	</g>
</g>
</svg>
