<?xml version="1.0" encoding="utf-8"?>
<!-- Generator: Adobe Illustrator 16.0.4, SVG Export Plug-In . SVG Version: 6.00 Build 0)  -->
<!DOCTYPE svg PUBLIC "-//W3C//DTD SVG 1.1//EN" "http://www.w3.org/Graphics/SVG/1.1/DTD/svg11.dtd">
<svg version="1.1" id="Ebene_1" xmlns="http://www.w3.org/2000/svg" xmlns:xlink="http://www.w3.org/1999/xlink" x="0px" y="0px"
	 width="80px" height="80px" viewBox="0 0 80 80" enable-background="new 0 0 80 80" xml:space="preserve">
<g id="Quadr._Hilfslinien_Kopie" display="none">
</g>
<g id="Quadrate">
</g>
<g id="Ebene_1_1_">
	<g>
		<path fill="#79B63E" d="M40.388,13.198c-7.82,0-15.045,3.279-20.168,9.059l0.027-5.054c0.008-1.215-0.973-2.205-2.188-2.212
			c-0.004,0-0.008,0-0.012,0c-1.211,0-2.193,0.978-2.201,2.188L15.792,27.65c-0.002,0.583,0.227,1.145,0.637,1.56
			c0.41,0.414,0.969,0.649,1.553,0.652l10.475,0.054h0.012c1.209,0,2.193-0.978,2.199-2.188c0.006-1.216-0.973-2.205-2.188-2.212
			l-4.98-0.025c4.26-4.905,10.322-7.692,16.891-7.692c12.35,0,22.398,10.05,22.398,22.401c0,12.353-10.051,22.401-22.398,22.401
			c-12.008,0-21.838-9.388-22.381-21.367c-0.057-1.271-1.125-2.25-2.402-2.193c-1.268,0.058-2.25,1.133-2.193,2.402
			c0.654,14.442,12.504,25.759,26.977,25.759c14.885,0,26.999-12.113,26.999-27.002C67.391,25.311,55.273,13.198,40.388,13.198z"/>
		<path fill="#79B63E" d="M25.204,43.491h3.504c0.648,0,1.127-0.128,1.463-0.394c0.359-0.273,0.547-0.654,0.547-1.099
			c0-0.447-0.189-0.831-0.555-1.108c-0.338-0.261-0.814-0.388-1.455-0.388h-3.504c-0.641,0-1.117,0.127-1.459,0.39
			c-0.361,0.275-0.553,0.659-0.553,1.106c0,0.442,0.197,0.827,0.57,1.104C24.107,43.366,24.579,43.491,25.204,43.491z"/>
		<path fill="#79B63E" d="M37.947,47.027c0.303,0.336,0.703,0.504,1.189,0.504c0.613,0,1.641-0.291,1.641-2.237V34.711
			c0-0.531-0.125-0.958-0.373-1.28c-0.268-0.342-0.645-0.524-1.086-0.524c-0.402,0-0.688,0.093-0.865,0.284
			c-0.076,0.078-0.229,0.262-0.707,0.927c-0.328,0.454-0.707,0.871-1.131,1.238c-0.418,0.366-0.99,0.718-1.701,1.055
			c-0.527,0.248-0.891,0.448-1.111,0.612c-0.203,0.151-0.447,0.448-0.447,0.998c0,0.369,0.141,0.7,0.406,0.978
			c0.275,0.28,0.598,0.424,0.965,0.424c0.361,0,1.041-0.158,2.779-1.425v7.658C37.507,46.24,37.658,46.703,37.947,47.027z"/>
		<path fill="#79B63E" d="M45.707,47.021c0.314,0.187,0.746,0.274,1.322,0.274h3.576c0.643,0,1.227-0.04,1.736-0.124
			c0.531-0.084,1.031-0.232,1.49-0.441c0.463-0.215,0.896-0.5,1.291-0.854c0.488-0.451,0.896-0.97,1.215-1.541
			c0.312-0.567,0.543-1.216,0.691-1.923c0.146-0.696,0.223-1.473,0.223-2.306c0-2.568-0.756-4.52-2.246-5.792
			c-0.586-0.514-1.244-0.869-1.965-1.056c-0.695-0.177-1.533-0.271-2.492-0.271h-3.574c-0.697,0-1.219,0.171-1.557,0.509
			c-0.336,0.337-0.51,0.859-0.51,1.552v9.938c0,0.479,0.045,0.859,0.135,1.168C45.146,46.527,45.369,46.818,45.707,47.021z
			 M48.418,35.919h1.434c0.795,0,1.479,0.086,2.031,0.256c0.508,0.156,0.926,0.517,1.281,1.105c0.365,0.604,0.549,1.545,0.549,2.808
			c0,1.773-0.418,3.027-1.248,3.729c-0.166,0.146-0.367,0.266-0.598,0.347c-0.248,0.089-0.488,0.146-0.713,0.166
			c-0.25,0.022-0.596,0.032-1.039,0.032h-1.697V35.919z"/>
	</g>
</g>
</svg>
