<?xml version="1.0" encoding="utf-8"?>
<!-- Generator: Adobe Illustrator 16.0.4, SVG Export Plug-In . SVG Version: 6.00 Build 0)  -->
<!DOCTYPE svg PUBLIC "-//W3C//DTD SVG 1.1//EN" "http://www.w3.org/Graphics/SVG/1.1/DTD/svg11.dtd">
<svg version="1.1" id="Ebene_1" xmlns="http://www.w3.org/2000/svg" xmlns:xlink="http://www.w3.org/1999/xlink" x="0px" y="0px"
	 width="80px" height="80px" viewBox="0 0 80 80" enable-background="new 0 0 80 80" xml:space="preserve">
<g id="Quadr._Hilfslinien_Kopie" display="none">
</g>
<g id="Quadrate">
</g>
<g id="Ebene_1_1_">
	<path fill="#D3D4D5" d="M37.082,64.941c-0.035,0-0.071-0.002-0.106-0.002c-1.052-0.049-1.937-0.807-2.147-1.836l-7.41-36.142
		l-5.421,16.839c-0.307,0.95-1.19,1.598-2.189,1.598H7.768c-1.271,0-2.3-1.029-2.3-2.301c0-1.272,1.029-2.302,2.3-2.302h10.364
		l7.591-23.58c0.32-0.995,1.263-1.636,2.315-1.592c1.043,0.058,1.917,0.811,2.127,1.835l7.346,35.824l8.34-27.548
		c0.301-0.989,1.234-1.629,2.254-1.634c1.033,0.024,1.924,0.733,2.178,1.735l5.923,23.395l3.47-7.142
		c0.385-0.791,1.188-1.294,2.068-1.294h10.488c1.271,0,2.301,1.029,2.301,2.303c0,1.271-1.029,2.299-2.301,2.299h-9.049
		l-5.597,11.51c-0.422,0.867-1.344,1.378-2.303,1.281c-0.961-0.101-1.761-0.787-1.995-1.726L47.852,34.99l-8.57,28.312
		C38.987,64.281,38.091,64.941,37.082,64.941z"/>
</g>
</svg>
