<?xml version="1.0" encoding="utf-8"?>
<!-- Generator: Adobe Illustrator 16.0.4, SVG Export Plug-In . SVG Version: 6.00 Build 0)  -->
<!DOCTYPE svg PUBLIC "-//W3C//DTD SVG 1.1//EN" "http://www.w3.org/Graphics/SVG/1.1/DTD/svg11.dtd">
<svg version="1.1" id="Ebene_1" xmlns="http://www.w3.org/2000/svg" xmlns:xlink="http://www.w3.org/1999/xlink" x="0px" y="0px"
	 width="80px" height="80px" viewBox="0 0 80 80" enable-background="new 0 0 80 80" xml:space="preserve">
<g id="Ebene_1_1_">
	<g>
		<path fill="#79B63E" d="M61.307,42.787c-1.326,0-2.398,1.074-2.398,2.4v11.721c0,0.42-0.344,0.762-0.766,0.762H21.857
			c-0.421,0-0.764-0.342-0.764-0.762V45.188c0-1.322-1.075-2.397-2.4-2.397c-1.325,0-2.4,1.075-2.4,2.397V56.91
			c0,3.066,2.496,5.562,5.564,5.562h36.286c3.066,0,5.562-2.494,5.562-5.562V45.188C63.706,43.861,62.631,42.787,61.307,42.787z"/>
		<path fill="#79B63E" d="M38.414,45.852c0.439,0.438,1.015,0.658,1.591,0.658c0.576,0,1.151-0.22,1.591-0.658l8.229-8.229
			c0.879-0.879,0.879-2.303,0-3.182c-0.88-0.879-2.304-0.879-3.183,0l-4.39,4.388V17.664c0-1.242-1.008-2.25-2.25-2.25
			c-1.242,0-2.25,1.008-2.25,2.25v21.164l-4.388-4.388c-0.879-0.879-2.303-0.879-3.182,0s-0.879,2.303,0,3.182L38.414,45.852z"/>
	</g>
</g>
</svg>
