<?xml version="1.0" encoding="utf-8"?>
<!-- Generator: Adobe Illustrator 16.0.4, SVG Export Plug-In . SVG Version: 6.00 Build 0)  -->
<!DOCTYPE svg PUBLIC "-//W3C//DTD SVG 1.1//EN" "http://www.w3.org/Graphics/SVG/1.1/DTD/svg11.dtd">
<svg version="1.1" id="Ebene_1" xmlns="http://www.w3.org/2000/svg" xmlns:xlink="http://www.w3.org/1999/xlink" x="0px" y="0px"
	 width="80px" height="80px" viewBox="0 0 80 80" enable-background="new 0 0 80 80" xml:space="preserve">
<g id="Ebene_1_1_">
	<path fill="#E2001A" d="M59.334,30.369h-2.116v-8.952c0-3.061-2.325-5.55-5.186-5.55H27.971c-2.861,0-5.188,2.489-5.188,5.55v8.952
		h-2.118c-3.669,0-6.654,2.986-6.654,6.657v20.451c0,3.67,2.985,6.656,6.654,6.656h38.67c3.67,0,6.656-2.986,6.656-6.656V37.026
		C65.99,33.355,63.004,30.369,59.334,30.369z M27.382,21.417c0-0.58,0.349-0.95,0.589-0.95h24.062c0.238,0,0.586,0.37,0.586,0.95
		v15.244c0,0.578-0.348,0.947-0.586,0.947H27.971c-0.24,0-0.589-0.369-0.589-0.947V21.417z M61.391,57.477
		c0,1.135-0.923,2.06-2.057,2.06h-38.67c-1.133,0-2.055-0.925-2.055-2.06v-20.45c0-1.135,0.922-2.058,2.055-2.058h2.118v1.692
		c0,3.059,2.327,5.547,5.188,5.547h24.062c2.858,0,5.186-2.488,5.186-5.547v-1.692h2.116c1.134,0,2.057,0.923,2.057,2.058V57.477
		L61.391,57.477z"/>
</g>
</svg>
