<?xml version="1.0" encoding="utf-8"?>
<!-- Generator: Adobe Illustrator 16.0.4, SVG Export Plug-In . SVG Version: 6.00 Build 0)  -->
<!DOCTYPE svg PUBLIC "-//W3C//DTD SVG 1.1//EN" "http://www.w3.org/Graphics/SVG/1.1/DTD/svg11.dtd">
<svg version="1.1" id="Ebene_1" xmlns="http://www.w3.org/2000/svg" xmlns:xlink="http://www.w3.org/1999/xlink" x="0px" y="0px"
	 width="80px" height="80px" viewBox="0 0 80 80" enable-background="new 0 0 80 80" xml:space="preserve">
<g id="Quadr._Hilfslinien_Kopie" display="none">
</g>
<g id="Quadrate">
</g>
<g id="Ebene_1_1_">
	<g>
		<path fill="#58585A" d="M39.92,41.682c1.381,0,2.5-1.119,2.5-2.5v-24.4c0-1.381-1.119-2.5-2.5-2.5s-2.5,1.119-2.5,2.5v24.4
			C37.42,40.562,38.539,41.682,39.92,41.682z"/>
		<path fill="#58585A" d="M57.18,23.993c-0.977-0.977-2.561-0.977-3.535,0c-0.977,0.977-0.977,2.56,0,3.535
			c3.646,3.643,5.649,8.486,5.649,13.639c0,10.636-8.653,19.287-19.292,19.287c-10.636,0-19.288-8.651-19.288-19.287
			c0-5.154,2.006-9.998,5.648-13.638c0.977-0.977,0.977-2.56,0.001-3.536c-0.977-0.977-2.56-0.976-3.536-0.001
			c-4.587,4.585-7.113,10.685-7.113,17.175c0,13.392,10.896,24.287,24.288,24.287c13.395,0,24.292-10.896,24.292-24.287
			C64.294,34.679,61.768,28.579,57.18,23.993z"/>
	</g>
</g>
</svg>
