<?xml version="1.0" encoding="utf-8"?>
<!-- Generator: Adobe Illustrator 16.0.4, SVG Export Plug-In . SVG Version: 6.00 Build 0)  -->
<!DOCTYPE svg PUBLIC "-//W3C//DTD SVG 1.1//EN" "http://www.w3.org/Graphics/SVG/1.1/DTD/svg11.dtd">
<svg version="1.1" id="Ebene_1" xmlns="http://www.w3.org/2000/svg" xmlns:xlink="http://www.w3.org/1999/xlink" x="0px" y="0px"
	 width="80px" height="80px" viewBox="0 0 80 80" enable-background="new 0 0 80 80" xml:space="preserve">
<g id="Quadr._Hilfslinien_Kopie" display="none">
</g>
<g id="Quadrate">
</g>
<g id="Ebene_1_1_">
	<g>
		<path fill="#E2001A" d="M28.391,33.606c0.43,0.43,0.992,0.645,1.555,0.645s1.127-0.215,1.557-0.645
			c0.859-0.858,0.859-2.252,0-3.111l-3.551-3.553h23.873l-3.554,3.553c-0.858,0.859-0.858,2.252,0,3.111
			c0.431,0.43,0.992,0.645,1.558,0.645c0.562,0,1.125-0.215,1.555-0.645l7.408-7.408c0.412-0.413,0.646-0.973,0.646-1.556
			c0-0.584-0.231-1.144-0.646-1.556l-7.408-7.403c-0.858-0.859-2.254-0.858-3.11,0c-0.858,0.859-0.858,2.253,0,3.111l3.552,3.548
			H27.953l3.549-3.548c0.859-0.859,0.859-2.252,0-3.111c-0.857-0.858-2.25-0.859-3.111,0l-7.404,7.403
			c-0.859,0.859-0.859,2.252,0,3.111L28.391,33.606z"/>
		<path fill="#E2001A" d="M35.709,41.139h-24.24c-1.271,0-2.301,1.028-2.301,2.299c0,1.271,1.029,2.302,2.301,2.302H33.41v5.06
			h-7.361c-1.27,0-2.299,1.029-2.299,2.301v7.362H11.469c-1.271,0-2.301,1.029-2.301,2.302c0,1.27,1.029,2.299,2.301,2.299h14.58
			c1.271,0,2.301-1.029,2.301-2.299V55.4h7.359c1.271,0,2.301-1.029,2.301-2.301v-9.658C38.01,42.167,36.98,41.139,35.709,41.139z"
			/>
		<path fill="#E2001A" d="M68.473,60.461H47.025V55.4h7.361c1.27,0,2.299-1.029,2.299-2.301v-7.363h11.787
			c1.27,0,2.299-1.028,2.299-2.299c0-1.271-1.029-2.301-2.299-2.301H54.387c-1.271,0-2.301,1.028-2.301,2.301V50.8h-7.359
			c-1.271,0-2.301,1.029-2.301,2.3v9.66c0,1.271,1.029,2.301,2.301,2.301h23.746c1.271,0,2.299-1.028,2.299-2.301
			C70.771,61.488,69.742,60.461,68.473,60.461z"/>
	</g>
</g>
</svg>
