<?xml version="1.0" encoding="utf-8"?>
<!-- Generator: Adobe Illustrator 16.0.4, SVG Export Plug-In . SVG Version: 6.00 Build 0)  -->
<!DOCTYPE svg PUBLIC "-//W3C//DTD SVG 1.1//EN" "http://www.w3.org/Graphics/SVG/1.1/DTD/svg11.dtd">
<svg version="1.1" id="Ebene_1" xmlns="http://www.w3.org/2000/svg" xmlns:xlink="http://www.w3.org/1999/xlink" x="0px" y="0px"
	 width="80px" height="80px" viewBox="0 0 80 80" enable-background="new 0 0 80 80" xml:space="preserve">
<g id="Quadr._Hilfslinien_Kopie" display="none">
</g>
<g id="Quadrate">
</g>
<g id="Ebene_1_1_">
	<path fill="#D3D4D5" d="M43.535,39.999l15.639-15.638c0.977-0.977,0.977-2.559,0-3.535c-0.977-0.976-2.559-0.977-3.535,0L40,36.465
		L24.361,20.826c-0.977-0.977-2.559-0.977-3.535,0c-0.976,0.977-0.977,2.559,0,3.535l15.639,15.638l-15.639,15.64
		c-0.977,0.979-0.977,2.561,0,3.534c0.488,0.488,1.128,0.731,1.768,0.731c0.64,0,1.279-0.243,1.768-0.731L40,43.534l15.639,15.639
		c0.488,0.488,1.129,0.731,1.771,0.731c0.64,0,1.276-0.243,1.768-0.731c0.979-0.978,0.979-2.56,0-3.534L43.535,39.999z"/>
</g>
</svg>
