<?xml version="1.0" encoding="utf-8"?>
<!-- Generator: Adobe Illustrator 16.0.4, SVG Export Plug-In . SVG Version: 6.00 Build 0)  -->
<!DOCTYPE svg PUBLIC "-//W3C//DTD SVG 1.1//EN" "http://www.w3.org/Graphics/SVG/1.1/DTD/svg11.dtd">
<svg version="1.1" id="Ebene_1" xmlns="http://www.w3.org/2000/svg" xmlns:xlink="http://www.w3.org/1999/xlink" x="0px" y="0px"
	 width="80px" height="80px" viewBox="0 0 80 80" enable-background="new 0 0 80 80" xml:space="preserve">
<g id="Quadr._Hilfslinien_Kopie" display="none">
</g>
<g id="Quadrate">
</g>
<g id="Ebene_1_1_">
	<path fill="#E2001A" d="M67.532,20.633c-0.788-0.444-1.753-0.428-2.524,0.042L40.287,35.701v-12.89
		c0-0.903-0.487-1.736-1.274-2.179c-0.787-0.444-1.753-0.429-2.524,0.043L8.211,37.866c-0.746,0.453-1.201,1.263-1.201,2.136
		s0.455,1.684,1.201,2.137l28.277,17.19c0.398,0.243,0.849,0.364,1.299,0.364c0.422,0,0.845-0.106,1.226-0.321
		c0.787-0.442,1.274-1.274,1.274-2.179V44.303L65.008,59.33c0.398,0.242,0.85,0.363,1.299,0.363c0.422,0,0.846-0.106,1.228-0.321
		c0.786-0.442,1.272-1.274,1.272-2.179V22.812C68.807,21.908,68.318,21.075,67.532,20.633z M35.287,52.748L14.322,40.002
		l20.965-12.745V52.748z M63.807,52.748L42.839,40.002l20.968-12.745V52.748z"/>
</g>
</svg>
