<?xml version="1.0" encoding="utf-8"?>
<!-- Generator: Adobe Illustrator 16.0.4, SVG Export Plug-In . SVG Version: 6.00 Build 0)  -->
<!DOCTYPE svg PUBLIC "-//W3C//DTD SVG 1.1//EN" "http://www.w3.org/Graphics/SVG/1.1/DTD/svg11.dtd">
<svg version="1.1" id="Ebene_1" xmlns="http://www.w3.org/2000/svg" xmlns:xlink="http://www.w3.org/1999/xlink" x="0px" y="0px"
	 width="80px" height="80px" viewBox="0 0 80 80" enable-background="new 0 0 80 80" xml:space="preserve">
<g id="Quadr._Hilfslinien_Kopie" display="none">
</g>
<g id="Quadrate">
</g>
<g id="Ebene_1_1_">
	<path fill="#D3D4D5" d="M71.59,37.864L43.312,20.673c-0.771-0.471-1.736-0.486-2.524-0.043c-0.787,0.442-1.274,1.275-1.274,2.179
		v12.89L14.792,20.672c-0.771-0.469-1.736-0.485-2.524-0.042c-0.787,0.442-1.274,1.275-1.274,2.179v34.38
		c0,0.901,0.487,1.733,1.274,2.18c0.381,0.215,0.804,0.32,1.226,0.32c0.45,0,0.9-0.121,1.299-0.362l24.721-15.024v12.887
		c0,0.904,0.487,1.736,1.274,2.183c0.381,0.215,0.804,0.317,1.226,0.317c0.45,0,0.9-0.121,1.299-0.359l28.278-17.188
		c0.746-0.453,1.201-1.267,1.201-2.14S72.336,38.317,71.59,37.864z M15.993,52.745V27.254L36.962,40L15.993,52.745z M44.514,52.745
		V27.254L65.479,40L44.514,52.745z"/>
</g>
</svg>
