<?xml version="1.0" encoding="utf-8"?>
<!-- Generator: Adobe Illustrator 16.0.4, SVG Export Plug-In . SVG Version: 6.00 Build 0)  -->
<!DOCTYPE svg PUBLIC "-//W3C//DTD SVG 1.1//EN" "http://www.w3.org/Graphics/SVG/1.1/DTD/svg11.dtd">
<svg version="1.1" id="Ebene_1" xmlns="http://www.w3.org/2000/svg" xmlns:xlink="http://www.w3.org/1999/xlink" x="0px" y="0px"
	 width="80px" height="80px" viewBox="0 0 80 80" enable-background="new 0 0 80 80" xml:space="preserve">
<g id="Quadr._Hilfslinien_Kopie" display="none">
</g>
<g id="Quadrate">
</g>
<g id="Ebene_1_1_">
	<path fill="#E2001A" d="M63.482,46.355L38.51,46.291v-12.02L63.48,34.23c0.955-0.002,1.793-0.633,2.061-1.549
		s-0.102-1.898-0.906-2.413L37.537,12.94c-0.061-0.039-0.131-0.058-0.193-0.09c-0.074-0.038-0.146-0.074-0.225-0.104
		c-0.072-0.027-0.145-0.05-0.219-0.068c-0.109-0.028-0.221-0.045-0.336-0.057c-0.051-0.004-0.1-0.014-0.15-0.015
		c-0.02-0.001-0.037-0.006-0.055-0.006H20.705c-1.188,0-2.15,0.963-2.15,2.15v51.094c0,1.188,0.963,2.15,2.15,2.15h15.654
		c0.203,0,0.395-0.037,0.58-0.09c0.029-0.008,0.055-0.018,0.084-0.025c0.158-0.052,0.309-0.117,0.449-0.204
		c0.02-0.012,0.045-0.016,0.064-0.028l27.098-17.33c0.806-0.516,1.175-1.496,0.906-2.412C65.275,46.988,64.438,46.357,63.482,46.355
		z M38.529,18.679l17.614,11.264l-17.614,0.029V18.679z M34.209,63.695H22.855V16.902h11.354V63.695z M38.529,61.909V50.591
		l17.625,0.046L38.529,61.909z"/>
</g>
</svg>
