<?xml version="1.0" encoding="utf-8"?>
<!-- Generator: Adobe Illustrator 16.0.4, SVG Export Plug-In . SVG Version: 6.00 Build 0)  -->
<!DOCTYPE svg PUBLIC "-//W3C//DTD SVG 1.1//EN" "http://www.w3.org/Graphics/SVG/1.1/DTD/svg11.dtd">
<svg version="1.1" id="Ebene_1" xmlns="http://www.w3.org/2000/svg" xmlns:xlink="http://www.w3.org/1999/xlink" x="0px" y="0px"
	 width="80px" height="80px" viewBox="0 0 80 80" enable-background="new 0 0 80 80" xml:space="preserve">
<g id="Quadr._Hilfslinien_Kopie" display="none">
</g>
<g id="Quadrate">
</g>
<g id="Ebene_1_1_">
	<path fill="#E2001A" d="M63.479,41.592H38.512v-2.646h24.966c0.008,0.001,0.015,0,0.021,0c1.188,0,2.149-0.963,2.149-2.15
		c0-0.84-0.481-1.566-1.185-1.921L38.512,18.279v-3.527c0-1.188-0.963-2.15-2.15-2.15H20.707c-1.188,0-2.15,0.963-2.15,2.15v51.094
		c0,1.188,0.963,2.15,2.15,2.15h15.654c1.188,0,2.15-0.963,2.15-2.15V62.26l26.125-16.705c0.805-0.516,1.174-1.498,0.902-2.416
		C65.273,42.223,64.434,41.592,63.479,41.592z M38.531,23.396l17.594,11.249H38.531V23.396z M34.211,63.695H22.857V16.902h11.354
		V63.695z M38.531,57.145V45.893h17.594L38.531,57.145z"/>
</g>
</svg>
