<?xml version="1.0" encoding="utf-8"?>
<!-- Generator: Adobe Illustrator 16.0.4, SVG Export Plug-In . SVG Version: 6.00 Build 0)  -->
<!DOCTYPE svg PUBLIC "-//W3C//DTD SVG 1.1//EN" "http://www.w3.org/Graphics/SVG/1.1/DTD/svg11.dtd">
<svg version="1.1" id="Ebene_1" xmlns="http://www.w3.org/2000/svg" xmlns:xlink="http://www.w3.org/1999/xlink" x="0px" y="0px"
	 width="80px" height="80px" viewBox="0 0 80 80" enable-background="new 0 0 80 80" xml:space="preserve">
<g id="Quadr._Hilfslinien_Kopie" display="none">
</g>
<g id="Quadrate">
</g>
<g id="Ebene_1_1_">
	<path fill="#E2001A" d="M71.059,40.229l-11.97-12.098c-0.423-0.428-0.999-0.668-1.601-0.668c-0.002,0-0.006,0-0.008,0
		c-0.604,0.002-1.184,0.247-1.604,0.68L44.182,40.144c-0.867,0.892-0.849,2.315,0.041,3.183c0.891,0.868,2.313,0.851,3.182-0.041
		l7.72-7.918v4.421c-0.003,10.252-8.347,18.593-18.595,18.593c-10.252,0-18.593-8.341-18.593-18.594s8.341-18.594,18.593-18.594
		c1.381,0,2.5-1.119,2.5-2.5c0-1.381-1.119-2.5-2.5-2.5c-13.009,0-23.593,10.584-23.593,23.594c0,13.01,10.584,23.594,23.593,23.594
		c13.008,0,23.592-10.583,23.594-23.594v-4.215l7.734,7.821c0.44,0.444,1.021,0.668,1.603,0.668c0.569,0,1.146-0.217,1.582-0.649
		C71.924,42.537,71.932,41.113,71.059,40.229z"/>
</g>
</svg>
