<?xml version="1.0" encoding="utf-8"?>
<!-- Generator: Adobe Illustrator 16.0.4, SVG Export Plug-In . SVG Version: 6.00 Build 0)  -->
<!DOCTYPE svg PUBLIC "-//W3C//DTD SVG 1.1//EN" "http://www.w3.org/Graphics/SVG/1.1/DTD/svg11.dtd">
<svg version="1.1" id="Ebene_1" xmlns="http://www.w3.org/2000/svg" xmlns:xlink="http://www.w3.org/1999/xlink" x="0px" y="0px"
	 width="80px" height="80px" viewBox="0 0 80 80" enable-background="new 0 0 80 80" xml:space="preserve">
<g id="Quadr._Hilfslinien_Kopie" display="none">
</g>
<g id="Quadrate">
</g>
<g id="Ebene_1_1_">
	<g>
		<path fill="#79B63E" d="M52.736,21c-2.188-5.119-7.623-8.428-13.845-8.428H28.777c-1.381,0-2.5,1.119-2.5,2.5
			c0,1.381,1.119,2.5,2.5,2.5h10.114c4.216,0,7.847,2.117,9.248,5.394c1.396,3.266,0.31,7.017-3.062,10.569l-6.843,6.345
			c-4.658,3.703-3.664,10.214-3.619,10.49c0.198,1.228,1.257,2.094,2.461,2.094c0.129,0,0.26-0.01,0.391-0.03
			c1.358-0.211,2.29-1.488,2.086-2.849c-0.006-0.039-0.563-3.967,1.837-5.825l7.145-6.611l0.107-0.105
			C53.451,32.01,54.943,26.162,52.736,21z"/>
		<path fill="#79B63E" d="M37.107,59.156c-1.381,0-2.5,1.119-2.5,2.5v3.271c0,1.382,1.119,2.5,2.5,2.5s2.5-1.118,2.5-2.5v-3.271
			C39.607,60.275,38.488,59.156,37.107,59.156z"/>
	</g>
</g>
</svg>
