<?xml version="1.0" encoding="utf-8"?>
<!-- Generator: Adobe Illustrator 15.0.0, SVG Export Plug-In . SVG Version: 6.00 Build 0)  -->
<!DOCTYPE svg PUBLIC "-//W3C//DTD SVG 1.1//EN" "http://www.w3.org/Graphics/SVG/1.1/DTD/svg11.dtd">
<svg version="1.1" id="Ebene_1" xmlns="http://www.w3.org/2000/svg" xmlns:xlink="http://www.w3.org/1999/xlink" x="0px" y="0px"
	 width="80px" height="80px" viewBox="0 0 80 80" enable-background="new 0 0 80 80" xml:space="preserve">
<g id="Quadr._Hilfslinien_Kopie" display="none">
</g>
<g id="Quadrate">
</g>
<g id="Ebene_1_1_">
	<g>
		<polygon fill="#59595A" points="38.327,42.82 41.717,42.82 42.287,27.353 37.715,27.353 		"/>
		<rect x="37.919" y="45.672" fill="#59595A" width="4.163" height="3.991"/>
		<path fill="#59595A" d="M50.898,16.94H29.104c-8.298,0-15.05,6.27-15.05,13.975v14.944c0,7.01,5.587,12.83,12.845,13.822v9.838
			c0,0.971,0.585,1.846,1.482,2.219c0.297,0.121,0.608,0.183,0.917,0.183c0.625,0,1.239-0.243,1.698-0.702l11.385-11.387
			l8.518,0.002c8.295,0,15.045-6.27,15.045-13.975l0.002-14.945C65.941,23.209,59.191,16.94,50.898,16.94z M61.143,45.859
			c0,5.059-4.596,9.174-10.244,9.174l-9.51-0.002h-0.002c-0.637,0-1.247,0.253-1.697,0.703l-7.99,7.99v-6.293
			c0-1.326-1.075-2.4-2.4-2.4h-0.2c-5.649,0-10.245-4.114-10.245-9.172V30.915c0-5.059,4.598-9.174,10.249-9.174h21.794
			c5.648,0,10.246,4.115,10.246,9.174L61.143,45.859z"/>
	</g>
</g>
</svg>
