<?xml version="1.0" encoding="utf-8"?>
<!-- Generator: Adobe Illustrator 16.0.4, SVG Export Plug-In . SVG Version: 6.00 Build 0)  -->
<!DOCTYPE svg PUBLIC "-//W3C//DTD SVG 1.1//EN" "http://www.w3.org/Graphics/SVG/1.1/DTD/svg11.dtd">
<svg version="1.1" id="Ebene_1" xmlns="http://www.w3.org/2000/svg" xmlns:xlink="http://www.w3.org/1999/xlink" x="0px" y="0px"
	 width="80px" height="80px" viewBox="0 0 80 80" enable-background="new 0 0 80 80" xml:space="preserve">
<g id="Quadr._Hilfslinien_Kopie" display="none">
</g>
<g id="Quadrate">
</g>
<g id="Ebene_1_1_">
	<path fill="#E2001A" d="M59.536,63.354H46.523c-1.271,0-2.299-1.028-2.299-2.301v-9.146h-8.029v9.146
		c0,1.271-1.029,2.301-2.3,2.301h-13.43c-1.271,0-2.3-1.028-2.3-2.301v-29.66c0-0.739,0.355-1.434,0.955-1.866l19.633-14.145
		c0.806-0.58,1.896-0.579,2.698,0.007l19.438,14.14c0.594,0.433,0.944,1.124,0.944,1.859v29.665
		C61.836,62.322,60.807,63.354,59.536,63.354z M48.824,58.753h8.412V32.56L40.094,20.088L22.768,32.57v26.183h8.83v-9.146
		c0-1.271,1.029-2.301,2.3-2.301h12.627c1.271,0,2.3,1.028,2.3,2.301L48.824,58.753L48.824,58.753z"/>
</g>
</svg>
