<?xml version="1.0" encoding="utf-8"?>
<!-- Generator: Adobe Illustrator 16.0.4, SVG Export Plug-In . SVG Version: 6.00 Build 0)  -->
<!DOCTYPE svg PUBLIC "-//W3C//DTD SVG 1.1//EN" "http://www.w3.org/Graphics/SVG/1.1/DTD/svg11.dtd">
<svg version="1.1" id="Ebene_1" xmlns="http://www.w3.org/2000/svg" xmlns:xlink="http://www.w3.org/1999/xlink" x="0px" y="0px"
	 width="80px" height="80px" viewBox="0 0 80 80" enable-background="new 0 0 80 80" xml:space="preserve">
<g id="Quadr._Hilfslinien_Kopie" display="none">
</g>
<g id="Ebene_1_1_">
	<path fill="#E2001A" d="M66.543,59.297c-0.879-0.879-2.303-0.879-3.182,0l-4.146,4.145c0.562-6.746-1.821-13.279-6.647-18.107
		c-0.5-0.5-1.023-0.977-1.564-1.424l8.999-8.999c0.489-0.489,0.743-1.167,0.697-1.857s-0.388-1.327-0.938-1.747L30.839,9.223
		c-0.954-0.73-2.304-0.64-3.153,0.21L10.802,26.32c-0.85,0.851-0.939,2.198-0.21,3.153l22.08,28.921
		c0.42,0.551,1.057,0.893,1.747,0.938c0.054,0.004,0.107,0.006,0.16,0.006c0.635,0,1.245-0.252,1.697-0.703L47.8,47.111
		c0.55,0.438,1.085,0.896,1.587,1.398c3.961,3.963,5.868,9.354,5.312,14.899l-4.116-4.115c-0.879-0.879-2.306-0.879-3.185,0
		s-0.879,2.306,0,3.185l7.982,7.979c0.422,0.422,0.994,0.659,1.592,0.659c0.596,0,1.168-0.237,1.59-0.659l7.98-7.979
		C67.422,61.6,67.422,60.175,66.543,59.297z M34.822,53.303L15.681,28.229l13.915-13.918l25.073,19.143L34.822,53.303z"/>
</g>
</svg>
