<?xml version="1.0" encoding="utf-8"?>
<!-- Generator: Adobe Illustrator 16.0.4, SVG Export Plug-In . SVG Version: 6.00 Build 0)  -->
<!DOCTYPE svg PUBLIC "-//W3C//DTD SVG 1.1//EN" "http://www.w3.org/Graphics/SVG/1.1/DTD/svg11.dtd">
<svg version="1.1" id="Ebene_1" xmlns="http://www.w3.org/2000/svg" xmlns:xlink="http://www.w3.org/1999/xlink" x="0px" y="0px"
	 width="80px" height="80px" viewBox="0 0 80 80" enable-background="new 0 0 80 80" xml:space="preserve">
<g id="Quadr._Hilfslinien_Kopie" display="none">
</g>
<g id="Quadrate">
</g>
<g id="Ebene_1_1_">
	<path fill="#79B63E" d="M58.333,54.797L29.471,25.936h17.214c1.381,0,2.5-1.119,2.5-2.5s-1.119-2.5-2.5-2.5h-23.25
		c-0.664,0-1.301,0.264-1.77,0.733c-0.469,0.471-0.731,1.107-0.73,1.771l0.042,23.292c0.003,1.379,1.121,2.496,2.5,2.496h0.005
		c1.38-0.004,2.498-1.125,2.495-2.506l-0.03-17.243l28.851,28.851c0.488,0.487,1.128,0.731,1.769,0.731s1.279-0.244,1.769-0.731
		C59.311,57.355,59.311,55.773,58.333,54.797z"/>
</g>
</svg>
