<?xml version="1.0" encoding="utf-8"?>
<!-- Generator: Adobe Illustrator 16.0.4, SVG Export Plug-In . SVG Version: 6.00 Build 0)  -->
<!DOCTYPE svg PUBLIC "-//W3C//DTD SVG 1.1//EN" "http://www.w3.org/Graphics/SVG/1.1/DTD/svg11.dtd">
<svg version="1.1" id="Ebene_1" xmlns="http://www.w3.org/2000/svg" xmlns:xlink="http://www.w3.org/1999/xlink" x="0px" y="0px"
	 width="80px" height="80px" viewBox="0 0 80 80" enable-background="new 0 0 80 80" xml:space="preserve">
<g id="Quadr._Hilfslinien_Kopie" display="none">
</g>
<g id="Ebene_1_1_">
	<path fill="#D3D4D5" d="M58.318,21.47c-0.979-0.977-2.561-0.977-3.534,0L25.923,50.33V33.117c0-1.381-1.119-2.5-2.5-2.5
		c-1.381,0-2.5,1.119-2.5,2.5v23.248c0,0.664,0.264,1.301,0.733,1.77c0.469,0.469,1.104,0.73,1.767,0.73c0,0,0.003,0,0.005,0
		l23.287-0.041c1.381-0.002,2.497-1.124,2.495-2.506c-0.002-1.379-1.121-2.494-2.5-2.494c0,0-0.003,0-0.005,0l-17.236,0.029
		L58.32,25.003C59.296,24.028,59.296,22.446,58.318,21.47z"/>
</g>
</svg>
