<?xml version="1.0" encoding="utf-8"?>
<!-- Generator: Adobe Illustrator 16.0.4, SVG Export Plug-In . SVG Version: 6.00 Build 0)  -->
<!DOCTYPE svg PUBLIC "-//W3C//DTD SVG 1.1//EN" "http://www.w3.org/Graphics/SVG/1.1/DTD/svg11.dtd">
<svg version="1.1" id="Ebene_1" xmlns="http://www.w3.org/2000/svg" xmlns:xlink="http://www.w3.org/1999/xlink" x="0px" y="0px"
	 width="80px" height="80px" viewBox="0 0 80 80" enable-background="new 0 0 80 80" xml:space="preserve">
<g id="Quadr._Hilfslinien_Kopie" display="none">
</g>
<g id="Quadrate">
</g>
<g id="Ebene_1_1_">
	<g>
		<path fill="#D3D4D5" d="M61.068,19.237c-1.271,0-2.299,1.029-2.299,2.3v4.809c-0.152-0.04-0.312-0.067-0.478-0.067H57.45
			c-1.05,0-1.896,0.848-1.896,1.894s0.848,1.894,1.896,1.894h0.842c0.164,0,0.321-0.027,0.478-0.067v4.52
			c-0.152-0.04-0.312-0.067-0.478-0.067H57.45c-1.05,0-1.896,0.848-1.896,1.894c0,1.046,0.848,1.894,1.896,1.894h0.842
			c0.164,0,0.321-0.027,0.478-0.067v4.518c-0.152-0.039-0.312-0.064-0.478-0.064H57.45c-1.05,0-1.896,0.85-1.896,1.896
			c0,1.045,0.848,1.894,1.896,1.894h0.842c0.164,0,0.321-0.026,0.478-0.067v4.52c-0.152-0.039-0.312-0.066-0.478-0.066H57.45
			c-1.05,0-1.896,0.85-1.896,1.896c0,1.045,0.848,1.894,1.896,1.894h0.842c0.164,0,0.321-0.026,0.478-0.067v3.953
			c0,1.271,1.026,2.301,2.299,2.301c1.271,0,2.301-1.027,2.301-2.301V21.537C63.369,20.267,62.34,19.237,61.068,19.237z"/>
		<path fill="#D3D4D5" d="M43.988,26.278h-0.842c-1.045,0-1.896,0.848-1.896,1.894s0.851,1.894,1.896,1.894h0.842
			c1.047,0,1.895-0.848,1.895-1.894S45.035,26.278,43.988,26.278z"/>
		<path fill="#D3D4D5" d="M29.684,26.278h-0.842c-1.047,0-1.895,0.848-1.895,1.894s0.848,1.894,1.895,1.894h0.842
			c1.045,0,1.893-0.848,1.893-1.894S30.729,26.278,29.684,26.278z"/>
		<path fill="#D3D4D5" d="M21.689,30.065h0.842c1.045,0,1.893-0.848,1.893-1.894s-0.848-1.894-1.893-1.894h-0.842
			c-0.16,0-0.312,0.025-0.459,0.062v-4.804c0-1.271-1.029-2.3-2.301-2.3c-1.27,0-2.299,1.029-2.299,2.3v36.926
			c0,1.271,1.029,2.301,2.299,2.301c1.271,0,2.301-1.029,2.301-2.301v-3.947c0.146,0.036,0.299,0.062,0.459,0.062h0.842
			c1.045,0,1.893-0.85,1.893-1.895c0-1.048-0.848-1.896-1.893-1.896h-0.842c-0.16,0-0.312,0.024-0.459,0.062v-4.51
			c0.146,0.037,0.299,0.062,0.459,0.062h0.842c1.045,0,1.893-0.849,1.893-1.896c0-1.046-0.848-1.894-1.893-1.894h-0.842
			c-0.16,0-0.312,0.023-0.459,0.062v-4.509c0.146,0.037,0.299,0.062,0.459,0.062h0.842c1.045,0,1.893-0.848,1.893-1.894
			s-0.848-1.894-1.893-1.894h-0.842c-0.16,0-0.312,0.025-0.459,0.062v-4.51C21.377,30.04,21.529,30.065,21.689,30.065z"/>
		<path fill="#D3D4D5" d="M51.143,26.278h-0.842c-1.047,0-1.895,0.848-1.895,1.894s0.848,1.894,1.895,1.894h0.842
			c1.045,0,1.896-0.848,1.896-1.894C53.036,27.126,52.188,26.278,51.143,26.278z"/>
		<path fill="#D3D4D5" d="M36.836,26.278h-0.842c-1.045,0-1.893,0.848-1.893,1.894s0.848,1.894,1.893,1.894h0.842
			c1.047,0,1.895-0.848,1.895-1.894S37.883,26.278,36.836,26.278z"/>
		<path fill="#D3D4D5" d="M36.836,42.62h-0.842c-1.045,0-1.893,0.849-1.893,1.894c0,1.047,0.848,1.896,1.893,1.896h0.842
			c1.047,0,1.895-0.85,1.895-1.896C38.731,43.469,37.883,42.62,36.836,42.62z"/>
		<path fill="#D3D4D5" d="M43.988,42.62h-0.842c-1.045,0-1.896,0.849-1.896,1.894c0,1.047,0.851,1.896,1.896,1.896h0.842
			c1.047,0,1.895-0.85,1.895-1.896C45.883,43.469,45.035,42.62,43.988,42.62z"/>
		<path fill="#D3D4D5" d="M29.684,42.62h-0.842c-1.047,0-1.895,0.849-1.895,1.894c0,1.047,0.848,1.896,1.895,1.896h0.842
			c1.045,0,1.893-0.85,1.893-1.896C31.577,43.469,30.729,42.62,29.684,42.62z"/>
		<path fill="#D3D4D5" d="M51.143,42.62h-0.842c-1.047,0-1.895,0.849-1.895,1.894c0,1.047,0.848,1.896,1.895,1.896h0.842
			c1.045,0,1.896-0.85,1.896-1.896C53.036,43.469,52.188,42.62,51.143,42.62z"/>
		<path fill="#D3D4D5" d="M29.684,34.45h-0.842c-1.047,0-1.895,0.848-1.895,1.894c0,1.046,0.848,1.894,1.895,1.894h0.842
			c1.045,0,1.893-0.848,1.893-1.894C31.577,35.298,30.729,34.45,29.684,34.45z"/>
		<path fill="#D3D4D5" d="M43.988,34.45h-0.842c-1.045,0-1.896,0.848-1.896,1.894c0,1.046,0.851,1.894,1.896,1.894h0.842
			c1.047,0,1.895-0.848,1.895-1.894C45.883,35.298,45.035,34.45,43.988,34.45z"/>
		<path fill="#D3D4D5" d="M36.836,34.45h-0.842c-1.045,0-1.893,0.848-1.893,1.894c0,1.046,0.848,1.894,1.893,1.894h0.842
			c1.047,0,1.895-0.848,1.895-1.894C38.731,35.298,37.883,34.45,36.836,34.45z"/>
		<path fill="#D3D4D5" d="M51.143,34.45h-0.842c-1.047,0-1.895,0.848-1.895,1.894c0,1.046,0.848,1.894,1.895,1.894h0.842
			c1.045,0,1.896-0.848,1.896-1.894C53.036,35.298,52.188,34.45,51.143,34.45z"/>
		<path fill="#D3D4D5" d="M51.143,50.79h-0.842c-1.047,0-1.895,0.849-1.895,1.894c0,1.047,0.848,1.896,1.895,1.896h0.842
			c1.045,0,1.896-0.85,1.896-1.896C53.036,51.639,52.188,50.79,51.143,50.79z"/>
		<path fill="#D3D4D5" d="M29.684,50.79h-0.842c-1.047,0-1.895,0.849-1.895,1.894c0,1.047,0.848,1.896,1.895,1.896h0.842
			c1.045,0,1.893-0.85,1.893-1.896C31.577,51.639,30.729,50.79,29.684,50.79z"/>
		<path fill="#D3D4D5" d="M43.988,50.79h-0.842c-1.045,0-1.896,0.849-1.896,1.894c0,1.047,0.851,1.896,1.896,1.896h0.842
			c1.047,0,1.895-0.85,1.895-1.896C45.883,51.639,45.035,50.79,43.988,50.79z"/>
		<path fill="#D3D4D5" d="M36.836,50.79h-0.842c-1.045,0-1.893,0.849-1.893,1.894c0,1.047,0.848,1.896,1.893,1.896h0.842
			c1.047,0,1.895-0.85,1.895-1.896C38.731,51.639,37.883,50.79,36.836,50.79z"/>
	</g>
</g>
</svg>
