<?xml version="1.0" encoding="utf-8"?>
<!-- Generator: Adobe Illustrator 16.0.4, SVG Export Plug-In . SVG Version: 6.00 Build 0)  -->
<!DOCTYPE svg PUBLIC "-//W3C//DTD SVG 1.1//EN" "http://www.w3.org/Graphics/SVG/1.1/DTD/svg11.dtd">
<svg version="1.1" id="Ebene_1" xmlns="http://www.w3.org/2000/svg" xmlns:xlink="http://www.w3.org/1999/xlink" x="0px" y="0px"
	 width="80px" height="80px" viewBox="0 0 80 80" enable-background="new 0 0 80 80" xml:space="preserve">
<g id="Quadr._Hilfslinien_Kopie" display="none">
</g>
<g id="Quadrate">
</g>
<path fill="#D3D4D5" d="M45.965,41.675c0.93,0,1.682-0.752,1.682-1.683c0-0.93-0.752-1.683-1.682-1.683h-9.613v-3.938h4.878
	c0.931,0,1.683-0.753,1.683-1.683s-0.752-1.683-1.683-1.683h-4.878v-3.94h9.612v0.008c0.931,0,1.683-0.753,1.683-1.683
	c0-0.93-0.752-1.683-1.683-1.683h-9.613v-3.942h4.879c0.93,0,1.682-0.753,1.682-1.683S42.159,16.4,41.229,16.4H36.35v-3.939h9.613
	c0.93,0,1.682-0.753,1.682-1.683c0-0.93-0.752-1.683-1.682-1.683H34.038c-0.147,0-0.289,0.019-0.425,0.054
	c-1.075,0.199-1.891,1.139-1.891,2.271c0,0.048,0.011,0.093,0.014,0.14c-0.002,0.04-0.014,0.077-0.014,0.117v56.568
	c0,0.055,0.015,0.104,0.019,0.159c-0.005,0.061-0.019,0.119-0.019,0.182c0,1.279,1.037,2.314,2.315,2.314h0.001c0,0,0,0,0.001,0
	h11.926c0.93,0,1.682-0.752,1.682-1.682c0-0.932-0.752-1.685-1.682-1.685h-9.613v-3.943h4.878c0.931,0,1.683-0.753,1.683-1.683
	c0-0.932-0.752-1.684-1.683-1.684h-4.878V56.29h9.613c0.93,0,1.682-0.753,1.682-1.683c0-0.932-0.752-1.686-1.682-1.686h-9.613
	v-3.939h4.878c0.931,0,1.683-0.752,1.683-1.684c0-0.931-0.752-1.684-1.683-1.684h-4.878v-3.941L45.965,41.675L45.965,41.675z"/>
</svg>
