<?xml version="1.0" encoding="utf-8"?>
<!-- Generator: Adobe Illustrator 16.0.4, SVG Export Plug-In . SVG Version: 6.00 Build 0)  -->
<!DOCTYPE svg PUBLIC "-//W3C//DTD SVG 1.1//EN" "http://www.w3.org/Graphics/SVG/1.1/DTD/svg11.dtd">
<svg version="1.1" id="Ebene_1" xmlns="http://www.w3.org/2000/svg" xmlns:xlink="http://www.w3.org/1999/xlink" x="0px" y="0px"
	 width="80px" height="80px" viewBox="0 0 80 80" enable-background="new 0 0 80 80" xml:space="preserve">
<g id="Quadr._Hilfslinien_Kopie" display="none">
</g>
<g id="Quadrate">
</g>
<g id="Ebene_1_1_">
	<g>
		<path fill="#79B63E" d="M22.852,24.326c0.196,0,0.396-0.025,0.597-0.079l32.859-8.805c1.227-0.329,1.955-1.59,1.625-2.817
			c-0.328-1.227-1.58-1.96-2.816-1.626l-13.948,3.737l-0.485-1.729c-0.374-1.329-1.754-2.107-3.083-1.731
			c-1.329,0.374-2.104,1.754-1.731,3.083l0.47,1.671l-14.081,3.773c-1.227,0.329-1.955,1.59-1.626,2.817
			C20.906,23.648,21.836,24.326,22.852,24.326z"/>
		<path fill="#79B63E" d="M58.878,28.264c-0.438-0.499-1.067-0.785-1.731-0.785H23.244c-0.663,0-1.294,0.286-1.731,0.785
			c-0.437,0.5-0.637,1.163-0.548,1.82l4.89,36.436c0.153,1.143,1.127,1.994,2.279,1.994h24.124c1.152,0,2.126-0.854,2.279-1.994
			l4.889-36.436C59.516,29.427,59.314,28.764,58.878,28.264z M50.246,63.913h-20.1l-4.272-31.835H54.52L50.246,63.913z"/>
	</g>
</g>
</svg>
