<?xml version="1.0" encoding="utf-8"?>
<!-- Generator: Adobe Illustrator 16.0.4, SVG Export Plug-In . SVG Version: 6.00 Build 0)  -->
<!DOCTYPE svg PUBLIC "-//W3C//DTD SVG 1.1//EN" "http://www.w3.org/Graphics/SVG/1.1/DTD/svg11.dtd">
<svg version="1.1" id="Ebene_1" xmlns="http://www.w3.org/2000/svg" xmlns:xlink="http://www.w3.org/1999/xlink" x="0px" y="0px"
	 width="80px" height="80px" viewBox="0 0 80 80" enable-background="new 0 0 80 80" xml:space="preserve">
<g id="Quadr._Hilfslinien_Kopie" display="none">
</g>
<g id="Quadrate">
</g>
<g id="Ebene_1_1_">
	<g>
		<path fill="#79B63E" d="M56.979,31.621l0.002-10.432c-0.002-5.646-4.599-10.239-10.244-10.239H33.047
			c-5.649,0-10.245,4.594-10.245,10.24v10.595c-3.042,2.38-5.009,6.074-5.01,10.227l0.002,12.631c0,3.469,1.351,6.73,3.803,9.186
			c2.453,2.454,5.715,3.808,9.188,3.808l18.427,0.003c7.165,0,12.993-5.828,12.993-12.994l0.002-12.631
			C62.206,37.761,60.145,33.992,56.979,31.621z M27.401,21.19c0-3.11,2.532-5.641,5.646-5.641h13.688
			c3.111,0,5.645,2.531,5.646,5.641l-0.001,8.237c-1.017-0.256-2.071-0.406-3.165-0.406h-18.43c-1.172,0-2.303,0.17-3.384,0.463
			V21.19z M57.605,54.643c0,4.627-3.768,8.395-8.396,8.395l-18.43-0.003c-2.24,0-4.347-0.873-5.931-2.458s-2.457-3.692-2.457-5.934
			L22.39,42.014c0.002-4.626,3.767-8.393,8.394-8.393h18.429c4.627,0,8.393,3.765,8.395,8.391L57.605,54.643z"/>
		<path fill="#79B63E" d="M39.998,47.246c-1.271,0-2.3,1.029-2.3,2.3v6.521c0,1.271,1.029,2.302,2.3,2.302
			c1.271,0,2.3-1.029,2.3-2.302v-6.521C42.298,48.275,41.27,47.246,39.998,47.246z"/>
	</g>
</g>
</svg>
