<?xml version="1.0" encoding="utf-8"?>
<!-- Generator: Adobe Illustrator 16.0.4, SVG Export Plug-In . SVG Version: 6.00 Build 0)  -->
<!DOCTYPE svg PUBLIC "-//W3C//DTD SVG 1.1//EN" "http://www.w3.org/Graphics/SVG/1.1/DTD/svg11.dtd">
<svg version="1.1" id="Ebene_1" xmlns="http://www.w3.org/2000/svg" xmlns:xlink="http://www.w3.org/1999/xlink" x="0px" y="0px"
	 width="80px" height="80px" viewBox="0 0 80 80" enable-background="new 0 0 80 80" xml:space="preserve">
<g id="Quadr._Hilfslinien_Kopie" display="none">
</g>
<g id="Quadrate">
</g>
<g id="Ebene_1_1_">
	<g>
		<path fill="#E2001A" d="M56.869,31.624l0.002-10.431c-0.002-5.647-4.598-10.242-10.244-10.242H32.938
			c-5.649,0-10.245,4.595-10.245,10.243v2.48c0,1.271,1.029,2.3,2.3,2.3s2.3-1.029,2.3-2.3v-2.48c0-3.111,2.532-5.644,5.646-5.644
			h13.688c3.111,0,5.643,2.532,5.645,5.644v8.235c-1.017-0.256-2.071-0.406-3.166-0.406h-18.43c-7.162,0-12.991,5.829-12.993,12.995
			l0.002,12.623c0,7.166,5.828,12.994,12.991,12.994h18.428c7.164,0,12.992-5.828,12.992-12.994l0.002-12.625
			C62.098,37.766,60.034,33.996,56.869,31.624z M57.496,54.643c0,4.627-3.766,8.395-8.393,8.395H30.676
			c-4.627,0-8.392-3.768-8.392-8.395L22.282,42.02c0.002-4.628,3.767-8.396,8.394-8.396h18.43c4.627,0,8.393,3.767,8.395,8.396
			L57.496,54.643z"/>
		<path fill="#E2001A" d="M39.889,47.248c-1.271,0-2.3,1.029-2.3,2.3v6.517c0,1.271,1.029,2.302,2.3,2.302s2.3-1.029,2.3-2.302
			v-6.517C42.188,48.277,41.159,47.248,39.889,47.248z"/>
	</g>
</g>
</svg>
