<?xml version="1.0" encoding="utf-8"?>
<!-- Generator: Adobe Illustrator 15.0.0, SVG Export Plug-In . SVG Version: 6.00 Build 0)  -->
<!DOCTYPE svg PUBLIC "-//W3C//DTD SVG 1.1//EN" "http://www.w3.org/Graphics/SVG/1.1/DTD/svg11.dtd">
<svg version="1.1" id="Ebene_1" xmlns="http://www.w3.org/2000/svg" xmlns:xlink="http://www.w3.org/1999/xlink" x="0px" y="0px"
	 width="80px" height="80px" viewBox="0 0 80 80" enable-background="new 0 0 80 80" xml:space="preserve">
<g id="Quadr._Hilfslinien_Kopie" display="none">
</g>
<g id="Quadrate">
</g>
<g id="Ebene_1_1_">
	<g>
		<path fill="#59595A" d="M36.229,50.266c-4.037-0.943-7.289-3.994-8.482-7.961c-0.336-1.113-1.51-1.74-2.621-1.408
			c-0.91,0.273-1.498,1.109-1.498,2.015c0,0.2,0.029,0.403,0.09,0.606c1.627,5.404,6.055,9.562,11.555,10.846
			c0.16,0.037,0.322,0.056,0.48,0.056c0.955,0,1.82-0.655,2.047-1.626c0.037-0.161,0.055-0.322,0.055-0.48
			C37.854,51.355,37.197,50.491,36.229,50.266z"/>
		<path fill="#59595A" d="M62.439,38.963c0-13.132-10.685-23.814-23.816-23.814S14.805,25.831,14.805,38.963
			c0,13.135,10.686,23.82,23.818,23.82S62.439,52.098,62.439,38.963z M38.623,58.184c-10.598,0-19.219-8.621-19.219-19.221
			c0-10.595,8.621-19.215,19.219-19.215c10.596,0,19.217,8.62,19.217,19.215C57.84,49.562,49.219,58.184,38.623,58.184z"/>
		<path fill="#59595A" d="M71.812,66.662l-12.06-12.061c-1.599,2.153-3.519,4.051-5.685,5.629l12.086,12.088
			c0.779,0.781,1.806,1.172,2.828,1.172c1.023,0,2.047-0.391,2.828-1.172C73.375,70.757,73.375,68.225,71.812,66.662z"/>
	</g>
</g>
</svg>
