<?xml version="1.0" encoding="utf-8"?>
<!-- Generator: Adobe Illustrator 16.0.4, SVG Export Plug-In . SVG Version: 6.00 Build 0)  -->
<!DOCTYPE svg PUBLIC "-//W3C//DTD SVG 1.1//EN" "http://www.w3.org/Graphics/SVG/1.1/DTD/svg11.dtd">
<svg version="1.1" id="Ebene_1" xmlns="http://www.w3.org/2000/svg" xmlns:xlink="http://www.w3.org/1999/xlink" x="0px" y="0px"
	 width="80px" height="80px" viewBox="0 0 80 80" enable-background="new 0 0 80 80" xml:space="preserve">
<g id="Quadr._Hilfslinien_Kopie" display="none">
</g>
<g id="Quadrate">
</g>
<g id="Ebene_1_1_">
	<path fill="#E2001A" d="M58.205,21.261h-5.812v-5.954c0-1.271-1.029-2.3-2.299-2.3c-1.271,0-2.301,1.029-2.301,2.3v5.954h-26
		c-1.271,0-2.301,1.029-2.301,2.3v41.132c0,1.271,1.029,2.301,2.301,2.301c1.27,0,2.299-1.029,2.299-2.301V60.87h31.814v3.823
		c0,1.271,1.029,2.301,2.299,2.301c1.271,0,2.301-1.029,2.301-2.301V23.561C60.506,22.29,59.477,21.261,58.205,21.261z
		 M55.906,25.86v15.958H43.068c1.061-0.293,1.846-1.258,1.846-2.416c0-1.383-1.123-2.508-2.508-2.508
		c-1.387,0-2.512,1.125-2.512,2.508c0,1.158,0.786,2.123,1.85,2.416h-5.623c1.062-0.293,1.848-1.258,1.848-2.416
		c0-1.383-1.125-2.508-2.51-2.508c-1.387,0-2.51,1.125-2.51,2.508c0,1.158,0.785,2.123,1.848,2.416H29.17
		c1.062-0.293,1.848-1.258,1.848-2.416c0-1.383-1.123-2.508-2.51-2.508c-1.385,0-2.508,1.125-2.508,2.508
		c0,1.158,0.785,2.123,1.846,2.416h-3.754V25.86H55.906z M24.092,56.408v-10.09h31.814v10.09H24.092z"/>
</g>
</svg>
