<?xml version="1.0" encoding="utf-8"?>
<!-- Generator: Adobe Illustrator 15.0.0, SVG Export Plug-In . SVG Version: 6.00 Build 0)  -->
<!DOCTYPE svg PUBLIC "-//W3C//DTD SVG 1.1//EN" "http://www.w3.org/Graphics/SVG/1.1/DTD/svg11.dtd">
<svg version="1.1" id="Ebene_1" xmlns="http://www.w3.org/2000/svg" xmlns:xlink="http://www.w3.org/1999/xlink" x="0px" y="0px"
	 width="80px" height="80px" viewBox="0 0 80 80" enable-background="new 0 0 80 80" xml:space="preserve">
<g id="Quadr._Hilfslinien_Kopie" display="none">
</g>
<g id="Quadrate">
</g>
<g id="Ebene_1_1_">
	<path fill="#59595A" d="M63.758,12.029H31.172c-1.16,0-2.1,0.939-2.1,2.1v5.393h-5.389c-1.16,0-2.1,0.939-2.1,2.1v5.344H16.24
		c-1.16,0-2.1,0.939-2.1,2.1v36.807c0,1.16,0.939,2.1,2.1,2.1c1.161,0,2.1-0.938,2.1-2.1v-3.318h28.385v3.318
		c0,1.16,0.939,2.1,2.101,2.1s2.1-0.938,2.1-2.1V55.109h3.248v3.318c0,1.159,0.938,2.1,2.101,2.1c1.16,0,2.1-0.939,2.1-2.1V47.619
		h3.287v3.322c0,1.16,0.939,2.1,2.1,2.1c1.161,0,2.1-0.939,2.1-2.1V14.129C65.857,12.969,64.918,12.029,63.758,12.029z
		 M46.725,31.164v14.154H35.541c0.818-0.336,1.393-1.137,1.393-2.074c0-1.238-1.006-2.246-2.248-2.246
		c-1.238,0-2.244,1.008-2.244,2.246c0,0.938,0.576,1.738,1.391,2.074h-4.506c0.816-0.336,1.391-1.137,1.391-2.074
		c0-1.238-1.006-2.246-2.246-2.246c-1.238,0-2.244,1.008-2.244,2.246c0,0.938,0.574,1.738,1.391,2.074h-4.508
		c0.816-0.336,1.393-1.137,1.393-2.074c0-1.238-1.008-2.246-2.248-2.246c-1.242,0-2.246,1.008-2.246,2.246
		c0,0.938,0.574,1.738,1.391,2.074H18.34V31.164H46.725z M18.34,58.354v-8.836h28.385v8.836H18.34z M50.924,50.91V29.064
		c0-1.16-0.939-2.1-2.1-2.1H25.783V23.72h28.389v27.19H50.924z M58.371,43.42V21.621c0-1.16-0.939-2.1-2.1-2.1h-23v-3.293h28.387
		V43.42H58.371z"/>
</g>
</svg>
