<?xml version="1.0" encoding="utf-8"?>
<!-- Generator: Adobe Illustrator 16.0.4, SVG Export Plug-In . SVG Version: 6.00 Build 0)  -->
<!DOCTYPE svg PUBLIC "-//W3C//DTD SVG 1.1//EN" "http://www.w3.org/Graphics/SVG/1.1/DTD/svg11.dtd">
<svg version="1.1" id="Ebene_1" xmlns="http://www.w3.org/2000/svg" xmlns:xlink="http://www.w3.org/1999/xlink" x="0px" y="0px"
	 width="80px" height="80px" viewBox="0 0 80 80" enable-background="new 0 0 80 80" xml:space="preserve">
<g id="Quadr._Hilfslinien_Kopie" display="none">
</g>
<g id="Quadrate">
</g>
<g id="Ebene_1_1_">
	<path fill="#D3D4D5" d="M64.309,33.969h-3.445v-4.962c0-2.758-2.223-5.001-4.952-5.001h-3.617v-5.177c0-2.757-2.228-5-4.958-5
		h-31.64c-2.734,0-4.96,2.243-4.96,5v22.205c0,2.756,2.226,4.997,4.96,4.997h3.614v5.181c0,2.755,2.225,4.997,4.959,4.997h3.442
		v4.963c0,2.756,2.225,4.998,4.959,4.998h31.639c2.731,0,4.955-2.242,4.955-4.998V38.967C69.266,36.211,67.041,33.969,64.309,33.969
		z M15.137,41.034V18.829c0-0.331,0.251-0.6,0.56-0.6h31.637c0.309,0,0.559,0.269,0.559,0.6v22.205c0,0.323-0.256,0.598-0.559,0.598
		H15.696C15.393,41.632,15.137,41.357,15.137,41.034z M23.711,51.212v-5.181h23.622c2.733,0,4.958-2.241,4.958-4.997V28.406h3.617
		c0.306,0,0.555,0.271,0.555,0.601v22.205c0,0.329-0.249,0.597-0.555,0.597H24.27C23.967,51.809,23.711,51.535,23.711,51.212z
		 M64.863,61.172c0,0.33-0.248,0.598-0.555,0.598H32.671c-0.303,0-0.559-0.271-0.559-0.598v-4.963h23.796
		c2.732,0,4.955-2.242,4.955-4.997V38.369h3.445c0.307,0,0.555,0.268,0.555,0.598V61.172z"/>
</g>
</svg>
