<?xml version="1.0" encoding="utf-8"?>
<!-- Generator: Adobe Illustrator 15.0.0, SVG Export Plug-In . SVG Version: 6.00 Build 0)  -->
<!DOCTYPE svg PUBLIC "-//W3C//DTD SVG 1.1//EN" "http://www.w3.org/Graphics/SVG/1.1/DTD/svg11.dtd">
<svg version="1.1" id="Ebene_1" xmlns="http://www.w3.org/2000/svg" xmlns:xlink="http://www.w3.org/1999/xlink" x="0px" y="0px"
	 width="80px" height="80px" viewBox="0 0 80 80" enable-background="new 0 0 80 80" xml:space="preserve">
<g id="Quadr._Hilfslinien_Kopie" display="none">
</g>
<g id="Quadrate">
</g>
<g id="Ebene_1_1_">
	<path fill="#59595A" d="M59.607,20.814h-39.25c-3.128,0-5.672,2.544-5.672,5.671v27.16c0,3.127,2.544,5.672,5.672,5.672h39.25
		c3.125,0,5.668-2.545,5.668-5.672v-27.16C65.275,23.358,62.732,20.814,59.607,20.814z M40.4,42.854l-17.927-17.54h35.195
		L40.4,42.854z M31.226,39.763L19.187,51.8V27.986L31.226,39.763z M34.232,42.705l4.726,4.622c0.409,0.399,0.939,0.601,1.471,0.601
		c0.543,0,1.088-0.211,1.499-0.629l4.174-4.238l11.756,11.756H22.119L34.232,42.705z M49.053,40.062l11.725-11.908v23.634
		L49.053,40.062z"/>
</g>
</svg>
