<?xml version="1.0" encoding="utf-8"?>
<!-- Generator: Adobe Illustrator 16.0.4, SVG Export Plug-In . SVG Version: 6.00 Build 0)  -->
<!DOCTYPE svg PUBLIC "-//W3C//DTD SVG 1.1//EN" "http://www.w3.org/Graphics/SVG/1.1/DTD/svg11.dtd">
<svg version="1.1" id="Ebene_1" xmlns="http://www.w3.org/2000/svg" xmlns:xlink="http://www.w3.org/1999/xlink" x="0px" y="0px"
	 width="80px" height="80px" viewBox="0 0 80 80" enable-background="new 0 0 80 80" xml:space="preserve">
<g id="Quadr._Hilfslinien_Kopie" display="none">
</g>
<g id="Quadrate">
</g>
<g id="Ebene_1_1_">
	<path fill="#79B63E" d="M58.461,28.635H21.539c-1.381,0-2.5-1.119-2.5-2.5c0-1.381,1.119-2.5,2.5-2.5h36.922
		c1.381,0,2.5,1.119,2.5,2.5C60.961,27.516,59.842,28.635,58.461,28.635z"/>
	<path fill="#79B63E" d="M58.461,42.51H21.539c-1.381,0-2.5-1.119-2.5-2.5s1.119-2.5,2.5-2.5h36.922c1.381,0,2.5,1.119,2.5,2.5
		S59.842,42.51,58.461,42.51z"/>
	<path fill="#79B63E" d="M58.461,56.384H21.539c-1.381,0-2.5-1.118-2.5-2.5c0-1.381,1.119-2.5,2.5-2.5h36.922
		c1.381,0,2.5,1.119,2.5,2.5C60.961,55.266,59.842,56.384,58.461,56.384z"/>
</g>
</svg>
