<?xml version="1.0" encoding="utf-8"?>
<!-- Generator: Adobe Illustrator 15.0.0, SVG Export Plug-In . SVG Version: 6.00 Build 0)  -->
<!DOCTYPE svg PUBLIC "-//W3C//DTD SVG 1.1//EN" "http://www.w3.org/Graphics/SVG/1.1/DTD/svg11.dtd">
<svg version="1.1" id="Ebene_1" xmlns="http://www.w3.org/2000/svg" xmlns:xlink="http://www.w3.org/1999/xlink" x="0px" y="0px"
	 width="80px" height="80px" viewBox="0 0 80 80" enable-background="new 0 0 80 80" xml:space="preserve">
<g id="Quadr._Hilfslinien_Kopie" display="none">
</g>
<g id="Quadrate">
</g>
<g id="Ebene_1_1_">
	<g>
		<path fill="#59595A" d="M40,14.374c-14.088,0-25.55,11.462-25.55,25.55c0,14.09,11.462,25.553,25.55,25.553
			c14.089,0,25.551-11.463,25.551-25.553C65.551,25.836,54.089,14.374,40,14.374z M40,60.675c-11.441,0-20.749-9.31-20.749-20.751
			c0-11.441,9.308-20.749,20.749-20.749c11.441,0,20.75,9.308,20.75,20.749C60.75,51.366,51.441,60.675,40,60.675z"/>
		<path fill="#59595A" d="M50.863,27.854c-0.844-0.349-1.812-0.155-2.452,0.488l-8.383,8.383l-8.385-8.383
			c-0.644-0.644-1.609-0.837-2.452-0.488c-0.841,0.349-1.389,1.169-1.389,2.079v21.141c0,1.242,1.008,2.25,2.25,2.25
			c1.242,0,2.25-1.008,2.25-2.25V35.365l6.106,6.104c0.439,0.439,1.015,0.659,1.591,0.659c0.019-0.001,0.036-0.001,0.058,0
			c0.576,0,1.151-0.22,1.591-0.659l6.104-6.104v15.708c0,1.242,1.008,2.25,2.25,2.25s2.25-1.008,2.25-2.25V29.934
			C52.252,29.023,51.704,28.203,50.863,27.854z"/>
	</g>
</g>
</svg>
