<?xml version="1.0" encoding="utf-8"?>
<!-- Generator: Adobe Illustrator 15.0.0, SVG Export Plug-In . SVG Version: 6.00 Build 0)  -->
<!DOCTYPE svg PUBLIC "-//W3C//DTD SVG 1.1//EN" "http://www.w3.org/Graphics/SVG/1.1/DTD/svg11.dtd">
<svg version="1.1" id="Ebene_1" xmlns="http://www.w3.org/2000/svg" xmlns:xlink="http://www.w3.org/1999/xlink" x="0px" y="0px"
	 width="80px" height="80px" viewBox="0 0 80 80" enable-background="new 0 0 80 80" xml:space="preserve">
<g id="Quadr._Hilfslinien_Kopie" display="none">
</g>
<g id="Quadrate">
</g>
<g id="Ebene_1_1_">
	<path fill="#59595A" d="M58.212,31.284l-16.44-16.523c-0.469-0.471-1.104-0.735-1.77-0.736H40c-0.663,0-1.299,0.264-1.768,0.732
		L21.793,31.199c-0.977,0.978-0.977,2.56,0,3.535c0.977,0.977,2.561,0.977,3.535,0L37.5,22.561V63.4c0,1.381,1.119,2.5,2.5,2.5
		s2.5-1.119,2.5-2.5V22.581l12.167,12.23c0.489,0.49,1.131,0.736,1.772,0.736c0.638,0,1.274-0.242,1.764-0.728
		C59.182,33.847,59.186,32.264,58.212,31.284z"/>
</g>
</svg>
