<?xml version="1.0" encoding="utf-8"?>
<!-- Generator: Adobe Illustrator 16.0.4, SVG Export Plug-In . SVG Version: 6.00 Build 0)  -->
<!DOCTYPE svg PUBLIC "-//W3C//DTD SVG 1.1//EN" "http://www.w3.org/Graphics/SVG/1.1/DTD/svg11.dtd">
<svg version="1.1" id="Ebene_1" xmlns="http://www.w3.org/2000/svg" xmlns:xlink="http://www.w3.org/1999/xlink" x="0px" y="0px"
	 width="80px" height="80px" viewBox="0 0 80 80" enable-background="new 0 0 80 80" xml:space="preserve">
<g id="Quadr._Hilfslinien_Kopie" display="none">
</g>
<g id="Quadrate">
</g>
<g id="Ebene_1_1_">
	<path fill="#E2001A" d="M65.082,33.053l-1.266,0.001v-2.683c0-3.552-2.89-6.44-6.438-6.44H36.186
		c-0.066-3.494-2.929-6.316-6.438-6.316h-9.104c-3.552,0-6.44,2.889-6.44,6.44v31.896c0,3.548,2.889,6.436,6.44,6.436h8.96
		c0.03,0,0.058-0.009,0.087-0.01c9.864,0,25.032,0,25.032,0c3.217,0,5.521-1.846,6.657-4.339l7.405-18.844
		C70.41,35.344,67.588,33.053,65.082,33.053z M20.644,22.214h9.104c1.014,0,1.839,0.826,1.839,1.841v4.476h25.791
		c1.015,0,1.839,0.826,1.839,1.841v2.687l-27.927,0.02c-3.688,0-5.854,2.549-6.99,5.043l-5.497,12.472V24.055
		C18.803,23.04,19.629,22.214,20.644,22.214z M57.173,56.247c0,0-0.508,1.573-1.966,1.606l-25.535-0.062
		c-0.023-0.001-0.045-0.007-0.068-0.007H26.79l-6.178-0.017l8.258-18.646c0,0,0.498-1.475,1.956-1.508l33.71-0.017L57.173,56.247z"
		/>
</g>
</svg>
