<?xml version="1.0" encoding="utf-8"?>
<!-- Generator: Adobe Illustrator 16.0.4, SVG Export Plug-In . SVG Version: 6.00 Build 0)  -->
<!DOCTYPE svg PUBLIC "-//W3C//DTD SVG 1.1//EN" "http://www.w3.org/Graphics/SVG/1.1/DTD/svg11.dtd">
<svg version="1.1" id="Ebene_1" xmlns="http://www.w3.org/2000/svg" xmlns:xlink="http://www.w3.org/1999/xlink" x="0px" y="0px"
	 width="80px" height="80px" viewBox="0 0 80 80" enable-background="new 0 0 80 80" xml:space="preserve">
<g id="Quadr._Hilfslinien_Kopie" display="none">
</g>
<g id="Quadrate">
</g>
<g id="Ebene_1_1_">
	<g>
		<path fill="#E2001A" d="M20.867,52.247h-3.729c-1.25,0-2.266,1.015-2.266,2.265v3.729c0,1.254,1.016,2.268,2.266,2.268h3.729
			c1.254,0,2.268-1.014,2.268-2.268v-3.729C23.135,53.262,22.121,52.247,20.867,52.247z"/>
		<path fill="#E2001A" d="M30.263,26.122l32.99,0.008c0.001,0,0.001,0,0.001,0c1.38,0,2.5-1.119,2.5-2.499
			c0-1.381-1.119-2.501-2.499-2.501l-32.99-0.008c-0.001,0-0.001,0-0.001,0c-1.38,0-2.5,1.119-2.5,2.499
			C27.764,25.002,28.883,26.122,30.263,26.122z"/>
		<path fill="#E2001A" d="M63.254,37.505l-32.99-0.004c-1.381,0-2.5,1.119-2.5,2.5s1.119,2.5,2.5,2.5l32.99,0.004
			c1.381,0,2.5-1.118,2.5-2.5C65.754,38.624,64.635,37.505,63.254,37.505z"/>
		<path fill="#E2001A" d="M63.254,53.999h-32.99c-1.381,0-2.5,1.119-2.5,2.5s1.119,2.5,2.5,2.5h32.99c1.381,0,2.5-1.119,2.5-2.5
			S64.635,53.999,63.254,53.999z"/>
		<path fill="#E2001A" d="M16.74,43.771h3.729c1.254,0,2.268-1.019,2.268-2.271v-3.725c0-1.252-1.014-2.268-2.268-2.268H16.74
			c-1.25,0-2.266,1.016-2.266,2.268v3.725C14.475,42.755,15.49,43.771,16.74,43.771z"/>
		<path fill="#E2001A" d="M20.867,19.493h-3.729c-1.25,0-2.266,1.018-2.266,2.266v3.73c0,1.252,1.016,2.266,2.266,2.266h3.729
			c1.254,0,2.268-1.014,2.268-2.266v-3.73C23.135,20.511,22.121,19.493,20.867,19.493z"/>
	</g>
</g>
</svg>
