<?xml version="1.0" encoding="utf-8"?>
<!-- Generator: Adobe Illustrator 16.0.4, SVG Export Plug-In . SVG Version: 6.00 Build 0)  -->
<!DOCTYPE svg PUBLIC "-//W3C//DTD SVG 1.1//EN" "http://www.w3.org/Graphics/SVG/1.1/DTD/svg11.dtd">
<svg version="1.1" id="Ebene_1" xmlns="http://www.w3.org/2000/svg" xmlns:xlink="http://www.w3.org/1999/xlink" x="0px" y="0px"
	 width="80px" height="80px" viewBox="0 0 80 80" enable-background="new 0 0 80 80" xml:space="preserve">
<g id="Quadr._Hilfslinien_Kopie" display="none">
</g>
<g id="Quadrate">
</g>
<g id="Ebene_1_1_">
	<g>
		<path fill="#D3D4D5" d="M69.363,37.5H31.141l12.173-12.172c0.978-0.976,0.978-2.559,0-3.535c-0.979-0.976-2.561-0.977-3.537,0
			l-16.44,16.439c-0.47,0.47-0.733,1.106-0.732,1.771s0.266,1.302,0.737,1.771l16.525,16.438c0.487,0.485,1.125,0.728,1.763,0.728
			c0.643,0,1.284-0.246,1.771-0.734c0.975-0.979,0.971-2.562-0.01-3.535L31.163,42.5h38.2c1.381,0,2.5-1.119,2.5-2.5
			S70.744,37.5,69.363,37.5z"/>
		<path fill="#D3D4D5" d="M14.059,36.58c-1.885,0-3.418,1.531-3.418,3.42c0,1.889,1.533,3.422,3.418,3.422
			c1.889,0,3.42-1.533,3.42-3.422C17.479,38.111,15.947,36.58,14.059,36.58z"/>
	</g>
</g>
</svg>
