<?xml version="1.0" encoding="utf-8"?>
<!-- Generator: Adobe Illustrator 16.0.4, SVG Export Plug-In . SVG Version: 6.00 Build 0)  -->
<!DOCTYPE svg PUBLIC "-//W3C//DTD SVG 1.1//EN" "http://www.w3.org/Graphics/SVG/1.1/DTD/svg11.dtd">
<svg version="1.1" id="Ebene_1" xmlns="http://www.w3.org/2000/svg" xmlns:xlink="http://www.w3.org/1999/xlink" x="0px" y="0px"
	 width="80px" height="80px" viewBox="0 0 80 80" enable-background="new 0 0 80 80" xml:space="preserve">
<g id="Quadr._Hilfslinien_Kopie" display="none">
</g>
<g id="Quadrate">
</g>
<g id="Ebene_1_1_">
	<g>
		<path fill="#E2001A" d="M58.213,39.925L41.771,23.401c-0.471-0.471-1.105-0.735-1.771-0.736h-0.003
			c-0.663,0-1.299,0.264-1.768,0.732l-16.438,16.44c-0.977,0.978-0.977,2.56,0,3.535c0.977,0.978,2.559,0.978,3.535,0L37.498,31.2
			v38.1c0,1.382,1.119,2.5,2.5,2.5s2.5-1.118,2.5-2.5V31.222l12.169,12.23c0.489,0.489,1.131,0.735,1.772,0.735
			c0.638,0,1.273-0.242,1.764-0.729C59.184,42.486,59.188,40.904,58.213,39.925z"/>
		<circle fill="#E2001A" cx="40.001" cy="14.118" r="3.418"/>
	</g>
</g>
</svg>
