<?xml version="1.0" encoding="utf-8"?>
<!-- Generator: Adobe Illustrator 16.0.4, SVG Export Plug-In . SVG Version: 6.00 Build 0)  -->
<!DOCTYPE svg PUBLIC "-//W3C//DTD SVG 1.1//EN" "http://www.w3.org/Graphics/SVG/1.1/DTD/svg11.dtd">
<svg version="1.1" id="Ebene_1" xmlns="http://www.w3.org/2000/svg" xmlns:xlink="http://www.w3.org/1999/xlink" x="0px" y="0px"
	 width="80px" height="80px" viewBox="0 0 80 80" enable-background="new 0 0 80 80" xml:space="preserve">
<g id="Quadr._Hilfslinien_Kopie" display="none">
</g>
<g id="Quadrate">
</g>
<g id="Ebene_1_1_">
	<g>
		<path fill="#79B63E" d="M40.135,21.788c-0.979-0.974-2.562-0.969-3.536,0.009c-0.974,0.979-0.97,2.562,0.009,3.536L48.838,37.5
			H10.639c-1.381,0-2.5,1.119-2.5,2.5s1.119,2.5,2.5,2.5h38.22L36.687,54.672c-0.977,0.977-0.977,2.559,0,3.535
			c0.488,0.488,1.128,0.732,1.768,0.732s1.279-0.244,1.768-0.732l16.441-16.439c0.47-0.47,0.732-1.104,0.732-1.771
			c-0.002-0.665-0.268-1.301-0.736-1.77L40.135,21.788z"/>
		<path fill="#79B63E" d="M65.941,36.578c-1.89,0-3.42,1.533-3.42,3.424c0,1.887,1.53,3.418,3.42,3.418
			c1.887,0,3.42-1.531,3.42-3.418C69.361,38.111,67.828,36.578,65.941,36.578z"/>
	</g>
</g>
</svg>
