<?xml version="1.0" encoding="utf-8"?>
<!-- Generator: Adobe Illustrator 16.0.4, SVG Export Plug-In . SVG Version: 6.00 Build 0)  -->
<!DOCTYPE svg PUBLIC "-//W3C//DTD SVG 1.1//EN" "http://www.w3.org/Graphics/SVG/1.1/DTD/svg11.dtd">
<svg version="1.1" id="Ebene_1" xmlns="http://www.w3.org/2000/svg" xmlns:xlink="http://www.w3.org/1999/xlink" x="0px" y="0px"
	 width="80px" height="80px" viewBox="0 0 80 80" enable-background="new 0 0 80 80" xml:space="preserve">
<g id="Quadr._Hilfslinien_Kopie" display="none">
</g>
<g id="Quadrate">
</g>
<g id="Ebene_1_1_">
	<path fill="#E2001A" d="M62.41,40.026c0-0.92-0.064-1.824-0.172-2.718l3.951-1.975c-0.436-2.431-1.188-4.753-2.234-6.903
		l-4.361,0.721c-0.889-1.595-1.963-3.07-3.199-4.392l2.033-3.921c-1.746-1.679-3.715-3.121-5.867-4.271l-3.1,3.143
		c-1.627-0.76-3.361-1.328-5.174-1.678l-0.656-4.363c-1.188-0.164-2.396-0.254-3.629-0.254c-1.233,0-2.443,0.09-3.631,0.254
		l-0.656,4.363c-1.814,0.35-3.545,0.918-5.174,1.678l-3.102-3.143c-2.15,1.15-4.121,2.593-5.865,4.271l2.031,3.921
		c-1.234,1.321-2.311,2.797-3.199,4.392l-4.361-0.721c-1.045,2.15-1.801,4.473-2.234,6.903l3.951,1.975
		c-0.109,0.894-0.17,1.798-0.17,2.718c0,0.923,0.061,1.826,0.17,2.717l-3.951,1.978c0.434,2.432,1.189,4.75,2.234,6.903l4.361-0.726
		c0.889,1.597,1.965,3.069,3.199,4.396l-2.031,3.92c1.744,1.675,3.715,3.119,5.865,4.271l3.102-3.146
		c1.629,0.763,3.359,1.328,5.174,1.683l0.656,4.36c1.188,0.162,2.398,0.252,3.631,0.252c1.232,0,2.441-0.09,3.629-0.252l0.656-4.36
		c1.812-0.354,3.547-0.92,5.174-1.683l3.1,3.146c2.152-1.151,4.121-2.598,5.867-4.271l-2.033-3.923
		c1.236-1.323,2.312-2.798,3.199-4.395l4.361,0.726c1.047-2.154,1.801-4.474,2.234-6.904l-3.951-1.977
		C62.346,41.852,62.41,40.949,62.41,40.026z M40.002,57.445c-9.621,0-17.42-7.799-17.42-17.419c0-9.62,7.799-17.421,17.42-17.421
		c9.619,0,17.418,7.801,17.418,17.421C57.42,49.646,49.621,57.445,40.002,57.445z"/>
</g>
</svg>
