<?xml version="1.0" encoding="utf-8"?>
<!-- Generator: Adobe Illustrator 15.0.0, SVG Export Plug-In . SVG Version: 6.00 Build 0)  -->
<!DOCTYPE svg PUBLIC "-//W3C//DTD SVG 1.1//EN" "http://www.w3.org/Graphics/SVG/1.1/DTD/svg11.dtd">
<svg version="1.1" id="Ebene_1" xmlns="http://www.w3.org/2000/svg" xmlns:xlink="http://www.w3.org/1999/xlink" x="0px" y="0px"
	 width="80px" height="80px" viewBox="0 0 80 80" enable-background="new 0 0 80 80" xml:space="preserve">
<g id="Quadr._Hilfslinien_Kopie" display="none">
</g>
<g id="Quadrate">
</g>
<g id="Ebene_1_1_">
	<path fill="#59595A" d="M66.953,58.202L52.807,33.697l5.459-9.462c0.621-1.077,0.252-2.453-0.824-3.074
		c-1.074-0.619-2.451-0.252-3.073,0.824l-4.16,7.21l-8.215-14.229c-0.411-0.711-1.171-1.149-1.992-1.149
		c-0.821,0-1.581,0.438-1.992,1.149L13.047,58.202c-0.41,0.712-0.41,1.589,0,2.301c0.411,0.711,1.171,1.149,1.992,1.149h49.922
		c0.821,0,1.581-0.438,1.992-1.149C67.363,59.791,67.363,58.914,66.953,58.202z M19.022,57.053L40,20.717l7.553,13.08l-7.571,13.12
		l-3.714-6.497c-0.616-1.08-1.992-1.452-3.069-0.837c-1.079,0.616-1.454,1.991-0.837,3.069l5.658,9.897
		c0.399,0.7,1.143,1.132,1.948,1.134c0.002,0,0.003,0,0.005,0c0.804,0,1.546-0.429,1.949-1.125l8.229-14.261l10.828,18.755H19.022
		L19.022,57.053z"/>
</g>
</svg>
