<?xml version="1.0" encoding="utf-8"?>
<!-- Generator: Adobe Illustrator 15.0.0, SVG Export Plug-In . SVG Version: 6.00 Build 0)  -->
<!DOCTYPE svg PUBLIC "-//W3C//DTD SVG 1.1//EN" "http://www.w3.org/Graphics/SVG/1.1/DTD/svg11.dtd">
<svg version="1.1" id="Ebene_1" xmlns="http://www.w3.org/2000/svg" xmlns:xlink="http://www.w3.org/1999/xlink" x="0px" y="0px"
	 width="80px" height="80px" viewBox="0 0 80 80" enable-background="new 0 0 80 80" xml:space="preserve">
<g id="Quadr._Hilfslinien_Kopie" display="none">
</g>
<g id="Quadrate">
</g>
<g id="Ebene_1_1_">
	<path fill="#59595A" d="M58.334,21.669c-0.469-0.47-1.105-0.733-1.77-0.733h-23.25c-1.381,0-2.5,1.119-2.5,2.5s1.119,2.5,2.5,2.5
		h17.215L21.667,54.797c-0.977,0.977-0.977,2.559,0,3.535c0.488,0.488,1.128,0.732,1.768,0.732s1.279-0.244,1.768-0.732
		l28.852-28.851l-0.031,17.242c-0.002,1.381,1.115,2.502,2.496,2.506h0.004c1.379,0,2.498-1.117,2.5-2.496l0.043-23.292
		C59.064,22.776,58.803,22.14,58.334,21.669z"/>
</g>
</svg>
