<?xml version="1.0" encoding="utf-8"?>
<!-- Generator: Adobe Illustrator 15.0.0, SVG Export Plug-In . SVG Version: 6.00 Build 0)  -->
<!DOCTYPE svg PUBLIC "-//W3C//DTD SVG 1.1//EN" "http://www.w3.org/Graphics/SVG/1.1/DTD/svg11.dtd">
<svg version="1.1" id="Ebene_1" xmlns="http://www.w3.org/2000/svg" xmlns:xlink="http://www.w3.org/1999/xlink" x="0px" y="0px"
	 width="80px" height="80px" viewBox="0 0 80 80" enable-background="new 0 0 80 80" xml:space="preserve">
<g id="Quadr._Hilfslinien_Kopie" display="none">
</g>
<g id="Quadrate">
</g>
<g id="Ebene_1_1_">
	<path fill="#59595A" d="M56.564,30.598c-1.381,0-2.5,1.119-2.5,2.5v17.214L25.203,21.45c-0.977-0.977-2.559-0.977-3.535,0
		s-0.977,2.559,0,3.535l28.85,28.85l-17.237-0.03h-0.005c-1.379,0-2.498,1.116-2.5,2.495c-0.002,1.382,1.115,2.503,2.495,2.505
		l23.29,0.041h0.004c0.662,0,1.299-0.263,1.768-0.729c0.47-0.47,0.732-1.104,0.732-1.771V33.098
		C59.064,31.717,57.945,30.598,56.564,30.598z"/>
</g>
</svg>
