<?xml version="1.0" encoding="utf-8"?>
<!-- Generator: Adobe Illustrator 16.0.4, SVG Export Plug-In . SVG Version: 6.00 Build 0)  -->
<!DOCTYPE svg PUBLIC "-//W3C//DTD SVG 1.1//EN" "http://www.w3.org/Graphics/SVG/1.1/DTD/svg11.dtd">
<svg version="1.1" id="Ebene_1" xmlns="http://www.w3.org/2000/svg" xmlns:xlink="http://www.w3.org/1999/xlink" x="0px" y="0px"
	 width="80px" height="80px" viewBox="0 0 80 80" enable-background="new 0 0 80 80" xml:space="preserve">
<g id="Quadr._Hilfslinien_Kopie" display="none">
</g>
<g id="Ebene_1_1_">
	<path fill="#D3D4D5" d="M60.797,27.865H27.649l9.474-9.474c0.977-0.977,0.977-2.559,0-3.535s-2.559-0.977-3.535,0L19.847,28.598
		c-0.47,0.47-0.733,1.106-0.732,1.771c0.001,0.665,0.266,1.301,0.736,1.77L33.663,45.88c0.488,0.485,1.126,0.728,1.764,0.728
		c0.642,0,1.284-0.246,1.772-0.733c0.974-0.979,0.97-2.562-0.009-3.536l-9.518-9.469h30.625v25.521H13.643
		c-1.381,0-2.5,1.118-2.5,2.5c0,1.381,1.119,2.5,2.5,2.5h47.154c1.381,0,2.5-1.119,2.5-2.5V30.365
		C63.297,28.984,62.178,27.865,60.797,27.865z"/>
</g>
</svg>
