<?xml version="1.0" encoding="utf-8"?>
<!-- Generator: Adobe Illustrator 16.0.4, SVG Export Plug-In . SVG Version: 6.00 Build 0)  -->
<!DOCTYPE svg PUBLIC "-//W3C//DTD SVG 1.1//EN" "http://www.w3.org/Graphics/SVG/1.1/DTD/svg11.dtd">
<svg version="1.1" id="Ebene_1" xmlns="http://www.w3.org/2000/svg" xmlns:xlink="http://www.w3.org/1999/xlink" x="0px" y="0px"
	 width="80px" height="80px" viewBox="0 0 80 80" enable-background="new 0 0 80 80" xml:space="preserve">
<g id="Quadr._Hilfslinien_Kopie" display="none">
</g>
<g id="Quadrate">
</g>
<g id="Ebene_1_1_">
	<path fill="#D3D4D5" d="M63.064,24.783c1.266-2.2,1.6-4.761,0.938-7.213c-0.654-2.451-2.229-4.497-4.434-5.767
		c-2.193-1.265-4.754-1.601-7.197-0.946L22.22,18.564l-0.006,0.001c-0.008,0.002-0.014,0.002-0.021,0.004
		c-5.266,1.419-8.398,6.858-6.982,12.125c0.195,0.725,0.467,1.407,0.807,2.05c0.018,0.037,0.037,0.071,0.055,0.108l0.041,0.066
		c0.037,0.07,0.078,0.14,0.119,0.206l14.723,25.55v13.909v0.001c0,1.174,0.953,2.126,2.127,2.126s2.125-0.952,2.125-2.126
		c0-0.014-0.004-0.025-0.004-0.039v-8.331c1.732,1.247,3.832,1.957,6.021,1.957c1.846,0,3.66-0.503,5.25-1.448
		c0.271-0.16,0.529-0.334,0.779-0.513v8.373h0.01v0.001c0,1.174,0.951,2.126,2.125,2.126s2.125-0.952,2.125-2.126
		c0-0.047-0.01-0.09-0.014-0.137V56.038c0-0.017,0-0.029,0-0.045c0.021-1.871-0.469-3.72-1.451-5.363c0,0-0.004-0.009-0.006-0.013
		c-0.002-0.002-0.004-0.004-0.006-0.006L39.994,34.104l14.113-3.986l0.723,2.424c0.086,0.294,0.289,0.543,0.559,0.688
		c0.172,0.092,0.359,0.141,0.553,0.141c0.109,0,0.224-0.018,0.328-0.051l4.699-1.397c0.613-0.182,0.963-0.827,0.779-1.439
		l-0.846-2.837c-0.023-0.079-0.053-0.151-0.09-0.223C61.705,26.7,62.471,25.812,63.064,24.783z M19.885,30.958l-0.062-0.107
		c-0.217-0.393-0.391-0.814-0.51-1.261c-0.809-3.004,0.979-6.107,3.984-6.916c0.482-0.131,0.979-0.196,1.473-0.196
		c2.545,0,4.785,1.721,5.445,4.182c0.393,1.457,0.193,2.978-0.561,4.283c-0.752,1.308-1.967,2.244-3.424,2.635
		c-0.482,0.129-0.979,0.194-1.471,0.194C22.719,33.771,20.877,32.665,19.885,30.958z M46.4,52.803
		c0.824,1.385,1.061,3.01,0.664,4.57c-0.397,1.561-1.379,2.878-2.76,3.701c-0.938,0.557-2,0.85-3.08,0.85
		c-2.15,0-4.093-1.102-5.189-2.941l-0.018-0.028c-0.482-0.817-0.748-1.702-0.814-2.589v-0.477c0-0.076-0.006-0.152-0.014-0.228
		c0.078-1.978,1.121-3.873,2.939-4.956c0.934-0.559,1.998-0.854,3.078-0.854C43.328,49.852,45.318,50.982,46.4,52.803z
		 M42.045,45.646c-0.277-0.026-0.557-0.041-0.838-0.041c-1.844,0-3.658,0.5-5.25,1.449c-1.891,1.121-3.287,2.768-4.121,4.641
		l-7.902-13.709c0.273,0.023,0.547,0.032,0.826,0.032c0.865,0,1.73-0.114,2.572-0.338c2.553-0.689,4.686-2.325,6.004-4.617
		c0.176-0.307,0.336-0.622,0.479-0.938l1.098,1.801c0.01,0.019,0.023,0.035,0.037,0.055c0.014,0.022,0.023,0.045,0.037,0.061
		L42.045,45.646z M59.385,22.665c-0.703,1.215-1.836,2.086-3.191,2.45c-0.01,0.004-0.016,0.006-0.021,0.008L37.697,30.34l-4.5-7.385
		c-0.006-0.011-0.014-0.024-0.025-0.04l-0.078-0.124c-0.027-0.053-0.062-0.101-0.094-0.144c-0.5-0.746-1.096-1.421-1.77-2.002
		l22.208-5.677c0.006-0.002,0.02-0.004,0.022-0.005c1.356-0.364,2.774-0.18,3.992,0.522c1.215,0.7,2.088,1.832,2.45,3.188
		C60.27,20.029,60.084,21.449,59.385,22.665z"/>
</g>
</svg>
