<?xml version="1.0" encoding="utf-8"?>
<!-- Generator: Adobe Illustrator 16.0.4, SVG Export Plug-In . SVG Version: 6.00 Build 0)  -->
<!DOCTYPE svg PUBLIC "-//W3C//DTD SVG 1.1//EN" "http://www.w3.org/Graphics/SVG/1.1/DTD/svg11.dtd">
<svg version="1.1" id="Ebene_1" xmlns="http://www.w3.org/2000/svg" xmlns:xlink="http://www.w3.org/1999/xlink" x="0px" y="0px"
	 width="80px" height="80px" viewBox="0 0 80 80" enable-background="new 0 0 80 80" xml:space="preserve">
<g id="Quadr._Hilfslinien_Kopie" display="none">
</g>
<g id="Quadrate">
</g>
<g id="Ebene_1_1_">
	<path fill="#E2001A" d="M53.423,66.285c-0.004,0.001-0.012,0.001-0.021,0H26.597c-1.271,0-2.3-1.029-2.3-2.301V53.348
		c0-5.498,2.932-10.541,7.466-13.354c-4.519-2.818-7.439-7.859-7.439-13.344L24.3,16.019c-0.002-0.61,0.24-1.197,0.672-1.629
		c0.432-0.433,1.017-0.676,1.628-0.676h26.804c1.271,0,2.301,1.029,2.301,2.3v10.639c0,5.497-2.93,10.541-7.462,13.354
		c4.521,2.818,7.44,7.856,7.44,13.345l0.021,10.323c0.013,0.103,0.021,0.205,0.021,0.31C55.725,65.256,54.693,66.285,53.423,66.285z
		 M28.896,61.686h22.202l-0.017-8.328c0-4.875-3.254-9.248-7.914-10.637c-0.976-0.289-1.644-1.187-1.644-2.203v-1.023
		c0-1.019,0.67-1.916,1.646-2.205c4.67-1.384,7.933-5.756,7.933-10.634v-8.339H28.904l0.019,8.33c0,4.869,3.249,9.24,7.9,10.634
		c0.969,0.29,1.634,1.179,1.64,2.19l0.006,1.033c0.006,1.022-0.665,1.929-1.646,2.22c-4.666,1.383-7.926,5.752-7.926,10.627
		L28.896,61.686L28.896,61.686z"/>
</g>
</svg>
