<?xml version="1.0" encoding="utf-8"?>
<!-- Generator: Adobe Illustrator 16.0.4, SVG Export Plug-In . SVG Version: 6.00 Build 0)  -->
<!DOCTYPE svg PUBLIC "-//W3C//DTD SVG 1.1//EN" "http://www.w3.org/Graphics/SVG/1.1/DTD/svg11.dtd">
<svg version="1.1" id="Ebene_1" xmlns="http://www.w3.org/2000/svg" xmlns:xlink="http://www.w3.org/1999/xlink" x="0px" y="0px"
	 width="80px" height="80px" viewBox="0 0 80 80" enable-background="new 0 0 80 80" xml:space="preserve">
<g id="Quadr._Hilfslinien_Kopie" display="none">
</g>
<g id="Quadrate">
</g>
<g id="Ebene_1_1_">
	<g>
		<path fill="#D3D4D5" d="M39.939,19.069c1.271,0,2.301-1.029,2.301-2.3V7.745c0-1.271-1.029-2.3-2.301-2.3
			c-1.27,0-2.299,1.029-2.299,2.3v9.024C37.641,18.04,38.67,19.069,39.939,19.069z"/>
		<path fill="#D3D4D5" d="M39.939,60.932c-1.27,0-2.299,1.028-2.299,2.299v9.025c0,1.271,1.029,2.301,2.299,2.301
			c1.271,0,2.301-1.029,2.301-2.301V63.23C42.24,61.96,41.211,60.932,39.939,60.932z"/>
		<path fill="#D3D4D5" d="M40.023,20.989c-10.475,0-18.998,8.521-18.998,18.997s8.523,18.997,18.998,18.997
			S59.02,50.462,59.02,39.986S50.498,20.989,40.023,20.989z M40.023,54.384c-7.939,0-14.398-6.459-14.398-14.397
			S32.084,25.59,40.023,25.59S54.42,32.048,54.42,39.986S47.963,54.384,40.023,54.384z"/>
		<path fill="#D3D4D5" d="M19.129,39.268c0-1.271-1.029-2.3-2.301-2.3H7.807c-1.271,0-2.301,1.029-2.301,2.3s1.029,2.3,2.301,2.3
			h9.021C18.1,41.566,19.129,40.538,19.129,39.268z"/>
		<path fill="#D3D4D5" d="M72.193,36.968h-9.025c-1.27,0-2.299,1.029-2.299,2.3s1.029,2.3,2.299,2.3h9.025
			c1.27,0,2.299-1.029,2.299-2.3S73.463,36.968,72.193,36.968z"/>
		<path fill="#D3D4D5" d="M22.338,24.86c0.449,0.449,1.037,0.674,1.627,0.674c0.588,0,1.176-0.225,1.625-0.674
			c0.898-0.897,0.898-2.354,0-3.252l-6.379-6.38c-0.898-0.898-2.354-0.898-3.252,0c-0.898,0.897-0.898,2.354,0,3.252L22.338,24.86z"
			/>
		<path fill="#D3D4D5" d="M58.432,54.447c-0.896-0.897-2.354-0.897-3.252,0c-0.896,0.898-0.896,2.354,0,3.253l6.381,6.38
			c0.449,0.449,1.037,0.674,1.625,0.674c0.59,0,1.178-0.225,1.627-0.674c0.898-0.896,0.898-2.354,0-3.252L58.432,54.447z"/>
		<path fill="#D3D4D5" d="M56.004,25.424c0.59,0,1.178-0.225,1.627-0.674l6.381-6.381c0.898-0.897,0.898-2.354,0-3.252
			c-0.898-0.898-2.354-0.898-3.252,0l-6.381,6.381c-0.898,0.897-0.898,2.354,0,3.252C54.828,25.199,55.416,25.424,56.004,25.424z"/>
		<path fill="#D3D4D5" d="M21.561,54.32l-6.379,6.38c-0.896,0.897-0.896,2.354,0.002,3.253c0.449,0.447,1.037,0.673,1.625,0.673
			c0.59,0,1.178-0.226,1.627-0.674l6.379-6.38c0.898-0.898,0.898-2.354,0-3.254C23.916,53.423,22.459,53.422,21.561,54.32z"/>
	</g>
</g>
</svg>
