<?xml version="1.0" encoding="utf-8"?>
<!-- Generator: Adobe Illustrator 16.0.4, SVG Export Plug-In . SVG Version: 6.00 Build 0)  -->
<!DOCTYPE svg PUBLIC "-//W3C//DTD SVG 1.1//EN" "http://www.w3.org/Graphics/SVG/1.1/DTD/svg11.dtd">
<svg version="1.1" id="Ebene_1" xmlns="http://www.w3.org/2000/svg" xmlns:xlink="http://www.w3.org/1999/xlink" x="0px" y="0px"
	 width="80px" height="80px" viewBox="0 0 80 80" enable-background="new 0 0 80 80" xml:space="preserve">
<g id="Quadr._Hilfslinien_Kopie" display="none">
</g>
<g id="Quadrate">
</g>
<g id="Ebene_1_1_">
	<path fill="#D3D4D5" d="M52.346,24.307c-3.965-4.327-9.377-6.852-15.238-7.108c-0.941-0.042-1.875-0.019-2.875,0.066
		c-0.82,0.069-1.541,0.571-1.889,1.317c-0.35,0.745-0.273,1.621,0.199,2.295c2.213,3.156,3.293,6.862,3.123,10.717
		c-0.379,8.685-7.188,15.799-15.836,16.547c-0.82,0.069-1.539,0.572-1.887,1.317c-0.348,0.745-0.271,1.62,0.201,2.293
		c3.957,5.646,10.17,9.056,17.041,9.354c0.326,0.016,0.652,0.021,0.975,0.021h0.002c11.787,0,21.422-9.231,21.936-21.019
		C58.355,34.246,56.312,28.634,52.346,24.307z M35.387,56.512c-4.16-0.183-8.014-1.806-10.996-4.561
		c8.893-2.564,15.455-10.61,15.871-20.156c0.15-3.443-0.486-6.794-1.859-9.871c4.055,0.524,7.758,2.441,10.553,5.49
		c3.135,3.422,4.75,7.858,4.547,12.495C53.086,49.484,45.043,56.955,35.387,56.512z"/>
</g>
</svg>
