<?xml version="1.0" encoding="utf-8"?>
<!-- Generator: Adobe Illustrator 15.0.0, SVG Export Plug-In . SVG Version: 6.00 Build 0)  -->
<!DOCTYPE svg PUBLIC "-//W3C//DTD SVG 1.1//EN" "http://www.w3.org/Graphics/SVG/1.1/DTD/svg11.dtd">
<svg version="1.1" id="Ebene_1" xmlns="http://www.w3.org/2000/svg" xmlns:xlink="http://www.w3.org/1999/xlink" x="0px" y="0px"
	 width="80px" height="80px" viewBox="0 0 80 80" enable-background="new 0 0 80 80" xml:space="preserve">
<g id="Quadr._Hilfslinien_Kopie" display="none">
</g>
<g id="Quadrate">
</g>
<g id="Ebene_1_1_">
	<g>
		<path fill="#59595A" d="M40.016,33.901c1.271,0,2.3-1.029,2.3-2.3v-9.03c0-1.271-1.028-2.3-2.3-2.3c-1.27,0-2.299,1.029-2.299,2.3
			v9.03C37.717,32.872,38.746,33.901,40.016,33.901z"/>
		<path fill="#59595A" d="M40.102,35.825c-10.607,0-19.236,8.528-19.236,19.013c0,1.271,1.029,2.301,2.299,2.301h33.877
			c0.006,0,0.015,0,0.015,0c1.274,0,2.307-1.029,2.307-2.301c0-0.109-0.008-0.219-0.023-0.324
			C59.162,44.18,50.6,35.825,40.102,35.825z M25.65,52.538c1.121-6.858,7.174-12.113,14.451-12.113s13.333,5.255,14.454,12.113
			H25.65z"/>
		<path fill="#59595A" d="M16.572,51.818h-9.15c-1.27,0-2.299,1.029-2.299,2.3s1.029,2.3,2.299,2.3h9.15
			c1.271,0,2.301-1.029,2.301-2.3S17.844,51.818,16.572,51.818z"/>
		<path fill="#59595A" d="M72.73,51.818h-9.152c-1.27,0-2.299,1.029-2.299,2.3s1.029,2.3,2.299,2.3h9.152
			c1.271,0,2.301-1.029,2.301-2.3S74.002,51.818,72.73,51.818z"/>
		<path fill="#59595A" d="M22.195,39.711c0.447,0.442,1.031,0.663,1.615,0.663c0.594,0,1.186-0.229,1.637-0.685
			c0.893-0.903,0.883-2.359-0.021-3.252l-6.471-6.386c-0.902-0.893-2.359-0.883-3.252,0.021c-0.893,0.903-0.883,2.359,0.021,3.252
			L22.195,39.711z"/>
		<path fill="#59595A" d="M56.311,40.261c0.584,0,1.168-0.221,1.615-0.663l6.471-6.386c0.904-0.892,0.914-2.349,0.021-3.252
			c-0.889-0.903-2.346-0.913-3.252-0.021l-6.471,6.386c-0.904,0.892-0.914,2.349-0.021,3.252
			C55.123,40.032,55.717,40.261,56.311,40.261z"/>
	</g>
</g>
</svg>
