<?xml version="1.0" encoding="utf-8"?>
<!-- Generator: Adobe Illustrator 15.0.0, SVG Export Plug-In . SVG Version: 6.00 Build 0)  -->
<!DOCTYPE svg PUBLIC "-//W3C//DTD SVG 1.1//EN" "http://www.w3.org/Graphics/SVG/1.1/DTD/svg11.dtd">
<svg version="1.1" id="Ebene_1" xmlns="http://www.w3.org/2000/svg" xmlns:xlink="http://www.w3.org/1999/xlink" x="0px" y="0px"
	 width="80px" height="80px" viewBox="0 0 80 80" enable-background="new 0 0 80 80" xml:space="preserve">
<g id="Quadr._Hilfslinien_Kopie" display="none">
</g>
<g id="Quadrate">
</g>
<g id="Ebene_1_1_">
	<g>
		<path fill="#59595A" d="M27.512,20.203c-7.207,0-12.592,9.228-12.592,17.479c0,3.263,0.65,5.46,1.279,7.587
			c0.647,2.19,1.317,4.455,1.443,8.35l0.047,1.598c0.194,6.92,0.377,13.454,8.67,13.454c2.672,0,4.632-0.729,5.991-2.229
			c2.324-2.562,2.418-6.889,1.814-13.035c-0.632-6.459,0.361-8.545,1.413-10.754c0.889-1.863,1.895-3.976,1.895-8.062
			C37.473,28.807,34.82,20.203,27.512,20.203z M27.512,24.703c4.534,0,5.461,7.799,5.461,9.887c0,3.067-0.643,4.418-1.457,6.126
			c-1.092,2.293-2.31,4.873-1.986,11.007h-7.486c-0.266-3.443-0.93-5.707-1.528-7.729c-0.588-1.984-1.095-3.699-1.095-6.311
			C19.42,31.253,23.504,24.703,27.512,24.703z M29.018,63.418c-0.169,0.186-0.682,0.752-2.658,0.752
			c-3.412,0-3.926-0.997-4.157-8.646h7.633C30.091,58.803,30.113,62.208,29.018,63.418z"/>
		<path fill="#59595A" d="M52.486,11.33c-7.309,0-9.961,8.602-9.961,14.384c0,4.084,1.007,6.196,1.896,8.061
			c1.054,2.208,2.047,4.293,1.416,10.75C45.232,50.674,45.325,55,47.648,57.564c1.36,1.5,3.32,2.229,5.992,2.229
			c8.291,0,8.475-6.532,8.668-13.448l0.047-1.603c0.127-3.896,0.797-6.162,1.445-8.354c0.629-2.125,1.279-4.323,1.279-7.583
			C65.081,20.557,59.695,11.33,52.486,11.33z M52.486,15.83c4.01,0,8.095,6.549,8.095,12.977c0,2.608-0.507,4.321-1.095,6.306
			c-0.598,2.024-1.264,4.287-1.53,7.733h-7.483c0.322-6.135-0.896-8.716-1.988-11.008c-0.814-1.708-1.459-3.058-1.459-6.124
			C47.025,23.626,47.952,15.83,52.486,15.83z M53.641,55.294c-1.975,0-2.488-0.565-2.656-0.752c-1.098-1.21-1.073-4.617-0.817-7.896
			h7.631C57.566,54.297,57.055,55.294,53.641,55.294z"/>
	</g>
</g>
</svg>
