<?xml version="1.0" encoding="utf-8"?>
<!-- Generator: Adobe Illustrator 16.0.4, SVG Export Plug-In . SVG Version: 6.00 Build 0)  -->
<!DOCTYPE svg PUBLIC "-//W3C//DTD SVG 1.1//EN" "http://www.w3.org/Graphics/SVG/1.1/DTD/svg11.dtd">
<svg version="1.1" id="Ebene_1" xmlns="http://www.w3.org/2000/svg" xmlns:xlink="http://www.w3.org/1999/xlink" x="0px" y="0px"
	 width="80px" height="80px" viewBox="0 0 80 80" enable-background="new 0 0 80 80" xml:space="preserve">
<g id="Quadr._Hilfslinien_Kopie" display="none">
</g>
<g id="Quadrate">
</g>
<g id="Ebene_1_1_">
	<path fill="#E2001A" d="M60.818,57.425c0,0-0.014,0-0.021,0H19.203c-0.894,0-1.719-0.478-2.165-1.25
		c-0.446-0.772-0.446-1.728,0-2.5l20.799-36.023c0.446-0.773,1.271-1.25,2.165-1.25l0,0c0.895,0,1.719,0.477,2.165,1.25
		L62.82,53.428c0.312,0.418,0.498,0.937,0.498,1.497C63.318,56.307,62.199,57.425,60.818,57.425z M23.533,52.425h32.936
		L40.002,23.901L23.533,52.425z"/>
</g>
</svg>
