<?xml version="1.0" encoding="utf-8"?>
<!-- Generator: Adobe Illustrator 16.0.4, SVG Export Plug-In . SVG Version: 6.00 Build 0)  -->
<!DOCTYPE svg PUBLIC "-//W3C//DTD SVG 1.1//EN" "http://www.w3.org/Graphics/SVG/1.1/DTD/svg11.dtd">
<svg version="1.1" id="Ebene_1" xmlns="http://www.w3.org/2000/svg" xmlns:xlink="http://www.w3.org/1999/xlink" x="0px" y="0px"
	 width="80px" height="80px" viewBox="0 0 80 80" enable-background="new 0 0 80 80" xml:space="preserve">
<g id="Quadr._Hilfslinien_Kopie" display="none">
</g>
<g id="Quadrate">
</g>
<g id="Ebene_1_1_">
	<path fill="#79B63E" d="M72.395,55.409L60.566,43.58c2.131-8.177-0.188-16.812-6.209-22.836
		c-6.893-6.894-17.148-8.889-26.131-5.089c-0.75,0.317-1.277,1.008-1.385,1.814c-0.108,0.806,0.221,1.61,0.861,2.113l11.211,8.796
		l-1.43,10.036l-9.404,3.779l-10.574-8.296c-0.664-0.521-1.561-0.636-2.334-0.301c-0.775,0.336-1.303,1.069-1.377,1.911
		c-0.613,7.037,1.896,13.933,6.881,18.919c5.836,5.834,14.24,8.207,22.226,6.358l12.06,12.06c0.449,0.448,1.037,0.674,1.627,0.674
		c0.588,0,1.177-0.226,1.625-0.674c0.897-0.898,0.897-2.354,0-3.253L45.221,56.6c-0.594-0.596-1.467-0.817-2.271-0.58
		c-6.758,1.981-14.045,0.127-19.02-4.847c-2.912-2.913-4.777-6.635-5.395-10.624l7.752,6.084c0.648,0.508,1.518,0.631,2.277,0.324
		l11.869-4.771c0.763-0.307,1.304-0.996,1.419-1.81l1.803-12.665c0.115-0.813-0.211-1.627-0.856-2.134l-8.787-6.894
		c6.15-1.155,12.535,0.75,17.096,5.311c5.133,5.134,6.929,12.62,4.685,19.537c-0.267,0.822-0.049,1.725,0.562,2.336l12.791,12.792
		c0.898,0.897,2.354,0.897,3.252,0C73.293,57.764,73.293,56.307,72.395,55.409z"/>
</g>
</svg>
