<?xml version="1.0" encoding="utf-8"?>
<!-- Generator: Adobe Illustrator 16.0.4, SVG Export Plug-In . SVG Version: 6.00 Build 0)  -->
<!DOCTYPE svg PUBLIC "-//W3C//DTD SVG 1.1//EN" "http://www.w3.org/Graphics/SVG/1.1/DTD/svg11.dtd">
<svg version="1.1" id="Ebene_1" xmlns="http://www.w3.org/2000/svg" xmlns:xlink="http://www.w3.org/1999/xlink" x="0px" y="0px"
	 width="80px" height="80px" viewBox="0 0 80 80" enable-background="new 0 0 80 80" xml:space="preserve">
<g id="Quadr._Hilfslinien_Kopie" display="none">
</g>
<g id="Quadrate">
</g>
<g id="Ebene_1_1_">
	<path fill="#79B63E" d="M65.214,27.824c0-1.312-0.513-2.55-1.444-3.479c-0.931-0.93-2.166-1.441-3.479-1.441
		c-0.002,0-0.003,0-0.003,0l-3.254,0.001l-0.001-2.89c0-2.716-2.211-4.925-4.928-4.925l-32.402,0.009
		c-2.715,0-4.923,2.21-4.923,4.928l0.009,32.403c0,2.715,2.209,4.924,4.924,4.924h0.001h3.253l0.001,2.89
		c0,1.313,0.514,2.553,1.446,3.481c0.932,0.93,2.167,1.441,3.479,1.441c0,0,0.002,0,0.004,0l32.402-0.008
		c2.717-0.002,4.924-2.213,4.924-4.928L65.214,27.824z M42.986,19.928l0.005,8.978c0,0.354-0.285,0.643-0.64,0.644h-3.665
		c-0.351,0-0.638-0.288-0.638-0.643l-0.002-8.978c0-0.349,0.273-0.623,0.613-0.636l3.711-0.001
		C42.714,19.304,42.986,19.579,42.986,19.928z M19.713,53.154c-0.399,0-0.725-0.325-0.725-0.728l-0.009-32.403
		c0-0.401,0.325-0.728,0.725-0.728l4.044-0.001L23.75,29.77c0,1.178,0.956,2.132,2.13,2.131L45.9,31.897
		c1.177-0.001,2.131-0.955,2.131-2.132L48.029,19.29l4.078-0.001c0.398,0,0.727,0.326,0.727,0.726l0.007,32.407
		c0,0.26-0.133,0.432-0.212,0.512c-0.079,0.078-0.251,0.213-0.512,0.213L19.713,53.154z M60.297,60.959l-32.402,0.008
		c-0.001,0-0.001,0-0.001,0c-0.259,0-0.432-0.135-0.512-0.214c-0.08-0.08-0.215-0.253-0.215-0.513l-0.001-2.889l24.952-0.009
		c1.315,0,2.552-0.513,3.481-1.442c0.93-0.933,1.44-2.17,1.438-3.481l-0.005-25.315l3.254-0.001h0.001
		c0.26,0,0.433,0.134,0.512,0.214c0.079,0.079,0.214,0.25,0.214,0.509l0.01,32.406C61.023,60.632,60.697,60.958,60.297,60.959z"/>
</g>
</svg>
