<?xml version="1.0" encoding="utf-8"?>
<!-- Generator: Adobe Illustrator 16.0.4, SVG Export Plug-In . SVG Version: 6.00 Build 0)  -->
<!DOCTYPE svg PUBLIC "-//W3C//DTD SVG 1.1//EN" "http://www.w3.org/Graphics/SVG/1.1/DTD/svg11.dtd">
<svg version="1.1" id="Ebene_1" xmlns="http://www.w3.org/2000/svg" xmlns:xlink="http://www.w3.org/1999/xlink" x="0px" y="0px"
	 width="80px" height="80px" viewBox="0 0 80 80" enable-background="new 0 0 80 80" xml:space="preserve">
<g id="Quadr._Hilfslinien_Kopie" display="none">
</g>
<g id="Quadrate">
</g>
<g id="Ebene_1_1_">
	<path fill="#D3D4D5" d="M57.236,17.589H22.763c-2.924,0-5.303,2.382-5.303,5.311v34.473c0,2.927,2.379,5.309,5.303,5.309h34.473
		c2.926,0,5.305-2.382,5.305-5.309V22.899C62.54,19.971,60.161,17.589,57.236,17.589z M47.537,22.798v9.558
		c0,0.374-0.305,0.681-0.682,0.681h-3.898c-0.373,0-0.68-0.307-0.68-0.681v-9.558c0-0.269,0.162-0.499,0.393-0.609h4.477
		C47.375,22.299,47.537,22.529,47.537,22.798z M57.939,57.372c0,0.392-0.315,0.708-0.703,0.708H22.763
		c-0.388,0-0.703-0.316-0.703-0.708V22.899c0-0.392,0.315-0.711,0.703-0.711h4.304V33.27c0,1.252,1.016,2.269,2.266,2.269H50.63
		c1.254,0,2.269-1.017,2.269-2.269V22.188h4.338c0.391,0,0.705,0.319,0.705,0.711v34.473H57.939z"/>
</g>
</svg>
