<?xml version="1.0" encoding="utf-8"?>
<!-- Generator: Adobe Illustrator 16.0.4, SVG Export Plug-In . SVG Version: 6.00 Build 0)  -->
<!DOCTYPE svg PUBLIC "-//W3C//DTD SVG 1.1//EN" "http://www.w3.org/Graphics/SVG/1.1/DTD/svg11.dtd">
<svg version="1.1" id="Ebene_1" xmlns="http://www.w3.org/2000/svg" xmlns:xlink="http://www.w3.org/1999/xlink" x="0px" y="0px"
	 width="80px" height="80px" viewBox="0 0 80 80" enable-background="new 0 0 80 80" xml:space="preserve">
<g id="Quadr._Hilfslinien_Kopie" display="none">
</g>
<g id="Quadrate">
</g>
<g id="Ebene_1_1_">
	<g>
		<path fill="#E2001A" d="M63.062,29.261h-4.574v-8.895c0-2.902-2.359-5.263-5.262-5.263H16.939c-2.902,0-5.264,2.36-5.264,5.263
			v25.11c0,2.901,2.361,5.264,5.264,5.264h4.571v8.893c0,2.903,2.361,5.266,5.265,5.266h36.286c2.901,0,5.263-2.36,5.263-5.266
			V34.526C68.322,31.623,65.963,29.261,63.062,29.261z M16.939,46.542c-0.587,0-1.064-0.478-1.064-1.063V20.366
			c0-0.586,0.478-1.063,1.064-1.063h36.286c0.586,0,1.063,0.478,1.063,1.063v25.11c0,0.588-0.478,1.063-1.063,1.063L16.939,46.542
			L16.939,46.542z M25.71,59.633V50.74h12.389v9.957H26.775C26.188,60.697,25.71,60.221,25.71,59.633z M64.123,59.633
			c0,0.588-0.477,1.064-1.062,1.064H51.762V50.74h1.465c2.901,0,5.262-2.36,5.262-5.264V33.46h4.574
			c0.584,0,1.062,0.479,1.062,1.066L64.123,59.633L64.123,59.633z"/>
		<path fill="#E2001A" d="M44.6,29.396h-5.951v-5.951c0-0.213-0.173-0.386-0.386-0.386h-6.334c-0.213,0-0.386,0.173-0.386,0.386
			v5.951h-5.951c-0.213,0-0.386,0.173-0.386,0.386v6.335c0,0.213,0.173,0.386,0.386,0.386h5.951v5.947
			c0,0.213,0.173,0.386,0.386,0.386h6.334c0.213,0,0.386-0.173,0.386-0.386v-5.947H44.6c0.213,0,0.387-0.173,0.387-0.386v-6.335
			C44.984,29.568,44.812,29.396,44.6,29.396z"/>
	</g>
</g>
</svg>
