<?xml version="1.0" encoding="utf-8"?>
<!-- Generator: Adobe Illustrator 16.0.4, SVG Export Plug-In . SVG Version: 6.00 Build 0)  -->
<!DOCTYPE svg PUBLIC "-//W3C//DTD SVG 1.1//EN" "http://www.w3.org/Graphics/SVG/1.1/DTD/svg11.dtd">
<svg version="1.1" id="Ebene_1" xmlns="http://www.w3.org/2000/svg" xmlns:xlink="http://www.w3.org/1999/xlink" x="0px" y="0px"
	 width="80px" height="80px" viewBox="0 0 80 80" enable-background="new 0 0 80 80" xml:space="preserve">
<g id="Quadr._Hilfslinien_Kopie" display="none">
</g>
<g id="Quadrate">
</g>
<g id="Ebene_1_1_">
	<path fill="#E2001A" d="M63.059,29.26H58.49v-8.896c0-2.901-2.361-5.262-5.264-5.262H16.938c-2.901,0-5.262,2.36-5.262,5.262
		v25.108c0,2.903,2.36,5.267,5.262,5.267h4.573v8.892c0,2.906,2.359,5.271,5.261,5.271h36.287c2.902,0,5.265-2.363,5.265-5.271
		V34.523C68.322,31.621,65.962,29.26,63.059,29.26z M54.29,20.363v25.11c0,0.588-0.478,1.065-1.063,1.065H41.9V19.301h11.324
		C53.812,19.301,54.29,19.777,54.29,20.363z M16.938,46.539c-0.586,0-1.062-0.479-1.062-1.066v-25.11
		c0-0.586,0.477-1.062,1.062-1.062h11.3v27.238H16.938z M64.124,59.629c0,0.59-0.479,1.07-1.065,1.07H26.772
		c-0.585,0-1.062-0.48-1.062-1.07v-8.891h15.64v5.914c0,0.103,0.041,0.199,0.113,0.271s0.17,0.112,0.271,0.112l6.336-0.002
		c0.213,0,0.386-0.175,0.386-0.388v-5.912h4.771c2.901,0,5.265-2.36,5.265-5.266v-12.01h4.567c0.588,0,1.065,0.478,1.065,1.064
		V59.629z"/>
</g>
</svg>
