<?xml version="1.0" encoding="utf-8"?>
<!-- Generator: Adobe Illustrator 16.0.4, SVG Export Plug-In . SVG Version: 6.00 Build 0)  -->
<!DOCTYPE svg PUBLIC "-//W3C//DTD SVG 1.1//EN" "http://www.w3.org/Graphics/SVG/1.1/DTD/svg11.dtd">
<svg version="1.1" id="Ebene_1" xmlns="http://www.w3.org/2000/svg" xmlns:xlink="http://www.w3.org/1999/xlink" x="0px" y="0px"
	 width="80px" height="80px" viewBox="0 0 80 80" enable-background="new 0 0 80 80" xml:space="preserve">
<g id="Quadr._Hilfslinien_Kopie" display="none">
</g>
<g id="Quadrate">
</g>
<g id="Ebene_1_1_">
	<path fill="#E2001A" d="M55.023,63.299c-0.434,0-0.863-0.111-1.25-0.335L17.75,42.165C16.977,41.719,16.5,40.895,16.5,40
		c0-0.894,0.477-1.719,1.25-2.165l36.023-20.798c0.771-0.447,1.727-0.447,2.5,0c0.771,0.446,1.25,1.271,1.25,2.165v41.597
		c0,0.895-0.479,1.719-1.25,2.165C55.887,63.188,55.455,63.299,55.023,63.299z M24,40l28.523,16.469V23.532L24,40z"/>
</g>
</svg>
