<?xml version="1.0" encoding="utf-8"?>
<!-- Generator: Adobe Illustrator 16.0.4, SVG Export Plug-In . SVG Version: 6.00 Build 0)  -->
<!DOCTYPE svg PUBLIC "-//W3C//DTD SVG 1.1//EN" "http://www.w3.org/Graphics/SVG/1.1/DTD/svg11.dtd">
<svg version="1.1" id="Ebene_1" xmlns="http://www.w3.org/2000/svg" xmlns:xlink="http://www.w3.org/1999/xlink" x="0px" y="0px"
	 width="80px" height="80px" viewBox="0 0 80 80" enable-background="new 0 0 80 80" xml:space="preserve">
<g id="Quadr._Hilfslinien_Kopie" display="none">
</g>
<g id="Quadrate">
</g>
<g id="Ebene_1_1_">
	<path fill="#E2001A" d="M24.827,63.3c-0.432,0-0.863-0.11-1.25-0.335c-0.773-0.445-1.25-1.271-1.25-2.165V19.203
		c0-0.894,0.477-1.719,1.25-2.165c0.773-0.447,1.727-0.447,2.5,0L62.1,37.837c0.773,0.446,1.25,1.271,1.25,2.165
		c0,0.895-0.477,1.719-1.25,2.165L26.077,62.965C25.69,63.188,25.259,63.3,24.827,63.3z M27.327,23.533v32.938L55.85,40.002
		L27.327,23.533z"/>
</g>
</svg>
