<?xml version="1.0" encoding="utf-8"?>
<!-- Generator: Adobe Illustrator 16.0.4, SVG Export Plug-In . SVG Version: 6.00 Build 0)  -->
<!DOCTYPE svg PUBLIC "-//W3C//DTD SVG 1.1//EN" "http://www.w3.org/Graphics/SVG/1.1/DTD/svg11.dtd">
<svg version="1.1" id="Ebene_1" xmlns="http://www.w3.org/2000/svg" xmlns:xlink="http://www.w3.org/1999/xlink" x="0px" y="0px"
	 width="80px" height="80px" viewBox="0 0 80 80" enable-background="new 0 0 80 80" xml:space="preserve">
<g id="Quadr._Hilfslinien_Kopie" display="none">
</g>
<g id="Quadrate">
</g>
<g id="Ebene_1_1_">
	<g>
		<path fill="#79B63E" d="M58.003,14.736c1.252,0,2.267,1.014,2.267,2.264v46c0,1.252-1.015,2.266-2.267,2.266h-3.729
			c-1.25,0-2.266-1.014-2.266-2.266V17c0-1.25,1.016-2.264,2.266-2.264H58.003z"/>
		<path fill="#79B63E" d="M41.861,37.693c1.254,0,2.269,1.014,2.269,2.266V63c0,1.252-1.015,2.266-2.269,2.266h-3.728
			c-1.252,0-2.268-1.014-2.268-2.266V39.959c0-1.252,1.016-2.266,2.268-2.266H41.861z"/>
		<path fill="#79B63E" d="M25.729,28.73c1.25,0,2.267,1.018,2.267,2.27v32c0,1.252-1.017,2.266-2.267,2.266H22
			c-1.251,0-2.267-1.014-2.267-2.266V31c0-1.252,1.016-2.27,2.267-2.27H25.729z"/>
	</g>
</g>
</svg>
