<?xml version="1.0" encoding="utf-8"?>
<!-- Generator: Adobe Illustrator 16.0.4, SVG Export Plug-In . SVG Version: 6.00 Build 0)  -->
<!DOCTYPE svg PUBLIC "-//W3C//DTD SVG 1.1//EN" "http://www.w3.org/Graphics/SVG/1.1/DTD/svg11.dtd">
<svg version="1.1" id="Ebene_1" xmlns="http://www.w3.org/2000/svg" xmlns:xlink="http://www.w3.org/1999/xlink" x="0px" y="0px"
	 width="80px" height="80px" viewBox="0 0 80 80" enable-background="new 0 0 80 80" xml:space="preserve">
<g id="Quadr._Hilfslinien_Kopie" display="none">
</g>
<g id="Quadrate">
</g>
<g id="Ebene_1_1_">
	<path fill="#E2001A" d="M58.318,19.413c-0.772-0.447-1.728-0.447-2.5,0L25.432,36.956V21.537c0-1.381-1.119-2.5-2.5-2.5
		c-1.381,0-2.5,1.119-2.5,2.5v36.926c0,1.381,1.119,2.5,2.5,2.5c1.381,0,2.5-1.119,2.5-2.5V42.941L55.82,60.488
		c0.387,0.225,0.818,0.336,1.25,0.336s0.863-0.111,1.25-0.336c0.771-0.445,1.25-1.271,1.25-2.164V21.578
		C59.568,20.685,59.093,19.859,58.318,19.413z M54.568,53.994l-24.32-14.045l24.32-14.041V53.994z"/>
</g>
</svg>
