<?xml version="1.0" encoding="utf-8"?>
<!-- Generator: Adobe Illustrator 16.0.4, SVG Export Plug-In . SVG Version: 6.00 Build 0)  -->
<!DOCTYPE svg PUBLIC "-//W3C//DTD SVG 1.1//EN" "http://www.w3.org/Graphics/SVG/1.1/DTD/svg11.dtd">
<svg version="1.1" id="Ebene_1" xmlns="http://www.w3.org/2000/svg" xmlns:xlink="http://www.w3.org/1999/xlink" x="0px" y="0px"
	 width="80px" height="80px" viewBox="0 0 80 80" enable-background="new 0 0 80 80" xml:space="preserve">
<g id="Quadr._Hilfslinien_Kopie" display="none">
</g>
<g id="Quadrate">
</g>
<g id="Ebene_1_1_">
	<path fill="#79B63E" d="M45.682,55.833V12.921c0-3.135-2.549-5.685-5.682-5.685c-3.135,0-5.686,2.55-5.686,5.685v42.912
		c-2.268,1.724-3.74,4.438-3.74,7.506c0,5.203,4.219,9.427,9.426,9.427c5.201,0,9.424-4.224,9.424-9.427
		C49.424,60.271,47.949,57.557,45.682,55.833z M42.316,39.424h-4.635V12.921c0-1.279,1.039-2.318,2.318-2.318
		c1.276,0,2.315,1.039,2.315,2.318v26.503H42.316z"/>
</g>
</svg>
