<?xml version="1.0" encoding="utf-8"?>
<!-- Generator: Adobe Illustrator 16.0.4, SVG Export Plug-In . SVG Version: 6.00 Build 0)  -->
<!DOCTYPE svg PUBLIC "-//W3C//DTD SVG 1.1//EN" "http://www.w3.org/Graphics/SVG/1.1/DTD/svg11.dtd">
<svg version="1.1" id="Ebene_1" xmlns="http://www.w3.org/2000/svg" xmlns:xlink="http://www.w3.org/1999/xlink" x="0px" y="0px"
	 width="80px" height="80px" viewBox="0 0 80 80" enable-background="new 0 0 80 80" xml:space="preserve">
<g id="Quadr._Hilfslinien_Kopie" display="none">
</g>
<g id="Quadrate">
</g>
<g id="Ebene_1_1_">
	<path fill="#79B63E" d="M59.338,28.563l3.79-3.79c0.978-0.977,0.978-2.56,0-3.535c-0.978-0.977-2.56-0.977-3.535,0l-3.792,3.793
		c-3.724-3.045-8.338-5.038-13.387-5.524v-6.331c0-1.381-1.119-2.5-2.5-2.5s-2.5,1.119-2.5,2.5v6.347
		c-4.987,0.516-9.543,2.503-13.227,5.52l-4.204-4.204c-0.977-0.977-2.561-0.977-3.535,0c-0.977,0.977-0.977,2.56,0,3.535
		l4.204,4.203C17.122,32.888,15,38.395,15,44.389c0,13.785,11.216,25,25.002,25c13.784,0,24.998-11.215,24.998-25
		C65,38.389,62.874,32.877,59.338,28.563z M40.002,64.389c-11.029,0-20.002-8.972-20.002-20c0-11.021,8.965-19.991,19.987-19.999
		v19.999l14.142-14.142C57.754,33.869,60,38.871,60,44.389C60,55.417,51.029,64.389,40.002,64.389z"/>
</g>
</svg>
