<?xml version="1.0" encoding="utf-8"?>
<!-- Generator: Adobe Illustrator 15.0.0, SVG Export Plug-In . SVG Version: 6.00 Build 0)  -->
<!DOCTYPE svg PUBLIC "-//W3C//DTD SVG 1.1//EN" "http://www.w3.org/Graphics/SVG/1.1/DTD/svg11.dtd">
<svg version="1.1" id="Ebene_1" xmlns="http://www.w3.org/2000/svg" xmlns:xlink="http://www.w3.org/1999/xlink" x="0px" y="0px"
	 width="80px" height="80px" viewBox="0 0 80 80" enable-background="new 0 0 80 80" xml:space="preserve">
<g id="Quadr._Hilfslinien_Kopie" display="none">
</g>
<g id="Quadrate">
</g>
<g id="Ebene_1_1_">
	<g>
		<circle fill="#59595A" cx="52.818" cy="42.87" r="2.693"/>
		<path fill="#59595A" d="M48.756,12.263H31.247c-6.869,0-12.458,5.588-12.458,12.457v30.508c0,3.326,1.295,6.455,3.647,8.809
			c2.354,2.354,5.48,3.648,8.811,3.648l17.507,0.002c6.869,0,12.458-5.59,12.458-12.459l0.002-30.509
			C61.212,17.851,55.623,12.263,48.756,12.263z M56.611,55.229c0,4.334-3.524,7.859-7.857,7.859l-17.511-0.002
			c-2.097,0-4.069-0.816-5.553-2.302c-1.484-1.484-2.302-3.458-2.302-5.558V24.72c0-4.332,3.525-7.857,7.858-7.857h17.509
			c4.331,0,7.856,3.525,7.858,7.857L56.611,55.229z"/>
		<path fill="#59595A" d="M46.148,46.756l-3.817,3.819V24.59c0-1.242-1.009-2.25-2.25-2.25c-1.242,0-2.25,1.008-2.25,2.25v25.985
			l-3.82-3.819c-0.879-0.879-2.303-0.879-3.182,0s-0.879,2.303,0,3.182L38.49,57.6c0.422,0.422,0.994,0.658,1.591,0.658
			c0.597,0,1.169-0.236,1.591-0.658l7.659-7.662c0.879-0.879,0.879-2.304,0-3.182C48.452,45.877,47.025,45.877,46.148,46.756z"/>
	</g>
</g>
</svg>
