<?xml version="1.0" encoding="utf-8"?>
<!-- Generator: Adobe Illustrator 15.0.0, SVG Export Plug-In . SVG Version: 6.00 Build 0)  -->
<!DOCTYPE svg PUBLIC "-//W3C//DTD SVG 1.1//EN" "http://www.w3.org/Graphics/SVG/1.1/DTD/svg11.dtd">
<svg version="1.1" id="Ebene_1" xmlns="http://www.w3.org/2000/svg" xmlns:xlink="http://www.w3.org/1999/xlink" x="0px" y="0px"
	 width="80px" height="80px" viewBox="0 0 80 80" enable-background="new 0 0 80 80" xml:space="preserve">
<g id="Quadr._Hilfslinien_Kopie" display="none">
</g>
<g id="Quadrate">
</g>
<g id="Ebene_1_1_">
	<g>
		<path fill="#59595A" d="M50.482,27.797l-10.302,10.3l-5.85-5.851c-0.879-0.879-2.303-0.879-3.182,0
			c-0.879,0.878-0.879,2.303,0,3.182l7.44,7.441c0.439,0.439,1.015,0.658,1.591,0.658c0.575,0,1.151-0.219,1.59-0.658l11.895-11.891
			c0.879-0.878,0.879-2.303,0-3.182S51.361,26.918,50.482,27.797z"/>
		<path fill="#59595A" d="M40.19,14.375c-14.143,0-25.648,11.507-25.648,25.651S26.048,65.675,40.19,65.675
			c14.145,0,25.651-11.506,25.651-25.649C65.842,25.882,54.335,14.375,40.19,14.375z M40.19,60.676
			c-11.386,0-20.648-9.264-20.648-20.649c0-11.387,9.263-20.651,20.648-20.651c11.387,0,20.651,9.265,20.651,20.651
			C60.842,51.412,51.577,60.676,40.19,60.676z"/>
	</g>
</g>
</svg>
