<?xml version="1.0" encoding="utf-8"?>
<!-- Generator: Adobe Illustrator 16.0.4, SVG Export Plug-In . SVG Version: 6.00 Build 0)  -->
<!DOCTYPE svg PUBLIC "-//W3C//DTD SVG 1.1//EN" "http://www.w3.org/Graphics/SVG/1.1/DTD/svg11.dtd">
<svg version="1.1" id="Ebene_1" xmlns="http://www.w3.org/2000/svg" xmlns:xlink="http://www.w3.org/1999/xlink" x="0px" y="0px"
	 width="80px" height="80px" viewBox="0 0 80 80" enable-background="new 0 0 80 80" xml:space="preserve">
<g id="Quadr._Hilfslinien_Kopie" display="none">
</g>
<g id="Quadrate">
</g>
<g id="Ebene_1_1_">
	<g>
		<path fill="#E2001A" d="M61.307,42.785c-1.324,0-2.398,1.074-2.398,2.4v11.719c0,0.421-0.344,0.764-0.764,0.764H21.858
			c-0.421,0-0.764-0.343-0.764-0.764V45.186c0-1.324-1.075-2.398-2.4-2.398c-1.325,0-2.4,1.074-2.4,2.398v11.719
			c0,3.068,2.496,5.564,5.564,5.564h36.285c3.067,0,5.563-2.496,5.563-5.564V45.186C63.707,43.859,62.632,42.785,61.307,42.785z"/>
		<path fill="#E2001A" d="M33.368,27.485l4.387-4.388V44.26c0,1.242,1.008,2.25,2.25,2.25c1.242,0,2.25-1.008,2.25-2.25V23.097
			l4.39,4.389c0.438,0.439,1.016,0.659,1.59,0.659c0.576,0,1.152-0.22,1.593-0.659c0.879-0.878,0.879-2.303,0-3.182l-8.229-8.23
			c-0.845-0.844-2.339-0.844-3.183,0l-8.228,8.23c-0.879,0.879-0.879,2.304,0,3.182C31.065,28.364,32.491,28.364,33.368,27.485z"/>
	</g>
</g>
</svg>
