<?xml version="1.0" encoding="utf-8"?>
<!-- Generator: Adobe Illustrator 16.0.4, SVG Export Plug-In . SVG Version: 6.00 Build 0)  -->
<!DOCTYPE svg PUBLIC "-//W3C//DTD SVG 1.1//EN" "http://www.w3.org/Graphics/SVG/1.1/DTD/svg11.dtd">
<svg version="1.1" id="Ebene_1" xmlns="http://www.w3.org/2000/svg" xmlns:xlink="http://www.w3.org/1999/xlink" x="0px" y="0px"
	 width="80px" height="80px" viewBox="0 0 80 80" enable-background="new 0 0 80 80" xml:space="preserve">
<g id="Quadr._Hilfslinien_Kopie" display="none">
</g>
<g id="Quadrate">
</g>
<g id="Ebene_1_1_">
	<g>
		<path fill="#D3D4D5" d="M50.988,35.932c-4.99,0-8.651,2.231-11.882,4.2c-2.99,1.822-5.814,3.543-9.543,3.543
			c-6.28,0-9.211-3.036-9.316-3.147c-0.832-0.92-2.255-1-3.178-0.166c-0.924,0.832-0.997,2.255-0.166,3.178
			c0.171,0.188,4.272,4.636,12.66,4.636c3.198,0,5.847-0.919,8.19-2.096v13.01l-3.438-3.438c-0.879-0.879-2.303-0.879-3.182,0
			c-0.879,0.877-0.879,2.303,0,3.182l7.278,7.279c0.422,0.422,0.994,0.658,1.591,0.658c0.598,0,1.169-0.236,1.592-0.658l7.275-7.279
			c0.879-0.879,0.879-2.305,0-3.184c-0.879-0.877-2.305-0.877-3.184,0.002l-3.437,3.437V43.486c2.7-1.629,5.347-3.055,8.733-3.055
			c5.438,0,8.699,3.053,8.865,3.211c0.885,0.862,2.303,0.853,3.174-0.029c0.873-0.885,0.863-2.309-0.021-3.182
			C62.82,40.248,58.361,35.932,50.988,35.932z"/>
		<path fill="#D3D4D5" d="M29.563,37.814c4.991,0,8.653-2.231,11.884-4.2c2.99-1.822,5.814-3.543,9.541-3.543
			c5.443,0,8.705,3.059,8.865,3.212c0.885,0.865,2.304,0.853,3.174-0.029c0.873-0.884,0.863-2.309-0.021-3.182
			c-0.188-0.184-4.646-4.501-12.02-4.501c-4.989,0-8.65,2.231-11.881,4.2c-2.99,1.822-5.814,3.543-9.543,3.543
			c-6.281,0-9.211-3.035-9.316-3.146c-0.832-0.924-2.255-0.999-3.178-0.166c-0.924,0.832-0.997,2.255-0.166,3.178
			C17.074,33.369,21.176,37.814,29.563,37.814z"/>
		<path fill="#D3D4D5" d="M29.563,27.455c4.991,0,8.653-2.231,11.884-4.2c2.99-1.822,5.814-3.543,9.541-3.543
			c5.438,0,8.699,3.056,8.865,3.214c0.885,0.865,2.301,0.854,3.174-0.027c0.873-0.884,0.863-2.309-0.021-3.182
			c-0.188-0.185-4.646-4.505-12.02-4.505c-4.99,0-8.651,2.231-11.882,4.2c-2.99,1.822-5.814,3.543-9.543,3.543
			c-6.281,0-9.212-3.033-9.317-3.145c-0.833-0.922-2.254-0.995-3.178-0.164c-0.923,0.832-0.996,2.255-0.164,3.178
			C17.075,23.014,21.177,27.455,29.563,27.455z"/>
	</g>
</g>
</svg>
