<?xml version="1.0" encoding="utf-8"?>
<!-- Generator: Adobe Illustrator 16.0.4, SVG Export Plug-In . SVG Version: 6.00 Build 0)  -->
<!DOCTYPE svg PUBLIC "-//W3C//DTD SVG 1.1//EN" "http://www.w3.org/Graphics/SVG/1.1/DTD/svg11.dtd">
<svg version="1.1" id="Ebene_1" xmlns="http://www.w3.org/2000/svg" xmlns:xlink="http://www.w3.org/1999/xlink" x="0px" y="0px"
	 width="80px" height="80px" viewBox="0 0 80 80" enable-background="new 0 0 80 80" xml:space="preserve">
<g id="Quadr._Hilfslinien_Kopie" display="none">
</g>
<g id="Quadrate">
</g>
<g id="Ebene_1_1_">
	<g>
		<path fill="#79B63E" d="M17.988,21.21c-1.182-0.605-2.627-0.144-3.233,1.035c-0.606,1.178-0.144,2.625,1.035,3.232
			c5.585,2.877,9.054,8.562,9.054,14.838c0,6.194-3.402,11.846-8.88,14.748c-1.172,0.621-1.618,2.072-0.998,3.244
			c0.431,0.812,1.263,1.276,2.123,1.276c0.379,0,0.764-0.09,1.121-0.278c7.053-3.736,11.435-11.014,11.435-18.99
			C29.645,32.235,25.178,24.914,17.988,21.21z"/>
		<path fill="#79B63E" d="M64.209,54.659c-5.585-2.878-9.055-8.563-9.055-14.841c0-6.192,3.402-11.844,8.881-14.747
			c1.171-0.62,1.617-2.073,0.996-3.244c-0.619-1.17-2.07-1.619-3.244-0.996c-7.053,3.737-11.434,11.013-11.434,18.987
			c0,8.083,4.467,15.405,11.658,19.108c0.352,0.182,0.727,0.268,1.096,0.268c0.871,0,1.711-0.475,2.137-1.303
			C65.852,56.714,65.389,55.268,64.209,54.659z"/>
		<path fill="#79B63E" d="M35.639,15.858c-1.325,0-2.4,1.075-2.4,2.4v43.485c0,1.325,1.075,2.399,2.4,2.399
			c1.325,0,2.4-1.074,2.4-2.399V18.259C38.039,16.934,36.964,15.858,35.639,15.858z"/>
		<path fill="#79B63E" d="M44.359,15.858c-1.324,0-2.399,1.075-2.399,2.4v43.485c0,1.325,1.075,2.399,2.399,2.399
			c1.326,0,2.399-1.074,2.399-2.399V18.259C46.762,16.934,45.686,15.858,44.359,15.858z"/>
	</g>
</g>
</svg>
