<?xml version="1.0" encoding="utf-8"?>
<!-- Generator: Adobe Illustrator 16.0.4, SVG Export Plug-In . SVG Version: 6.00 Build 0)  -->
<!DOCTYPE svg PUBLIC "-//W3C//DTD SVG 1.1//EN" "http://www.w3.org/Graphics/SVG/1.1/DTD/svg11.dtd">
<svg version="1.1" id="Ebene_1" xmlns="http://www.w3.org/2000/svg" xmlns:xlink="http://www.w3.org/1999/xlink" x="0px" y="0px"
	 width="80px" height="80px" viewBox="0 0 80 80" enable-background="new 0 0 80 80" xml:space="preserve">
<g id="Quadr._Hilfslinien_Kopie" display="none">
</g>
<g id="Quadrate">
</g>
<g id="Ebene_1_1_">
	<path fill="#79B63E" d="M57.199,14.42H22.607c-1.271,0-2.3,1.029-2.3,2.3v40.367c0,0.688,0.31,1.302,0.791,1.724
		c0.133,0.172,0.283,0.332,0.469,0.465l16.96,12.111c0.397,0.283,0.866,0.428,1.337,0.428c0.359,0,0.721-0.084,1.053-0.254
		c0.767-0.396,1.247-1.185,1.247-2.045V28.92c0-0.743-0.357-1.439-0.963-1.872l-11.24-8.028h24.938v38.067
		c0,1.271,1.029,2.3,2.302,2.3s2.3-1.029,2.3-2.3V16.72C59.499,15.449,58.471,14.42,57.199,14.42z M37.564,65.046l-12.657-9.04
		V21.063l12.657,9.04V65.046z"/>
</g>
</svg>
