<?xml version="1.0" encoding="utf-8"?>
<!-- Generator: Adobe Illustrator 16.0.4, SVG Export Plug-In . SVG Version: 6.00 Build 0)  -->
<!DOCTYPE svg PUBLIC "-//W3C//DTD SVG 1.1//EN" "http://www.w3.org/Graphics/SVG/1.1/DTD/svg11.dtd">
<svg version="1.1" id="Ebene_1" xmlns="http://www.w3.org/2000/svg" xmlns:xlink="http://www.w3.org/1999/xlink" x="0px" y="0px"
	 width="80px" height="80px" viewBox="0 0 80 80" enable-background="new 0 0 80 80" xml:space="preserve">
<g id="Quadr._Hilfslinien_Kopie" display="none">
</g>
<g id="Quadrate">
</g>
<g id="Ebene_1_1_">
	<g>
		<path fill="#D3D4D5" d="M11.393,26.942h16.434l-3.553,3.553c-0.859,0.859-0.859,2.253,0,3.111c0.43,0.43,0.994,0.645,1.557,0.645
			s1.125-0.215,1.555-0.645l7.406-7.408c0.859-0.859,0.859-2.253,0-3.111l-7.406-7.403c-0.859-0.859-2.252-0.858-3.111,0
			c-0.859,0.859-0.859,2.253,0,3.111l3.549,3.548h-16.43c-1.27,0-2.299,1.029-2.299,2.3S10.123,26.942,11.393,26.942z"/>
		<path fill="#D3D4D5" d="M52.629,33.606c0.43,0.43,0.994,0.645,1.557,0.645c0.563,0,1.125-0.215,1.558-0.645
			c0.856-0.859,0.856-2.253,0-3.111l-3.552-3.548h16.433c1.271,0,2.301-1.029,2.301-2.3s-1.026-2.3-2.301-2.3H52.189l3.551-3.553
			c0.859-0.859,0.859-2.253,0-3.111c-0.859-0.859-2.252-0.858-3.111,0l-7.404,7.408c-0.856,0.859-0.856,2.253,0,3.111L52.629,33.606
			z"/>
		<path fill="#D3D4D5" d="M44.939,55.4c0.16,0,0.315-0.021,0.471-0.049c1.057-0.209,1.854-1.141,1.854-2.256v-7.359h21.357
			c1.271,0,2.301-1.028,2.301-2.299c0-1.271-1.029-2.303-2.301-2.303H44.963h-0.023H11.393c-1.27,0-2.299,1.029-2.299,2.303
			c0,1.271,1.029,2.299,2.299,2.299h31.246v5.061h-7.338c-0.162,0-0.318,0.018-0.471,0.051c-1.055,0.209-1.85,1.137-1.85,2.254
			v7.358H11.393c-1.27,0-2.299,1.028-2.299,2.3c0,1.272,1.029,2.301,2.299,2.301H35.27c0.004,0,0.008,0,0.008,0h33.344
			c1.271,0,2.301-1.027,2.301-2.299c0-1.271-1.028-2.301-2.301-2.301h-31.02V55.4H44.939z"/>
	</g>
</g>
</svg>
