<?xml version="1.0" encoding="utf-8"?>
<!-- Generator: Adobe Illustrator 16.0.4, SVG Export Plug-In . SVG Version: 6.00 Build 0)  -->
<!DOCTYPE svg PUBLIC "-//W3C//DTD SVG 1.0//EN" "http://www.w3.org/TR/2001/REC-SVG-20010904/DTD/svg10.dtd">
<svg version="1.0" id="Ebene_1" xmlns="http://www.w3.org/2000/svg" xmlns:xlink="http://www.w3.org/1999/xlink" x="0px" y="0px"
	 width="80px" height="80px" viewBox="0 0 80 80" enable-background="new 0 0 80 80" xml:space="preserve">
<g id="Quadr._Hilfslinien_Kopie" display="none">
</g>
<g id="Quadrate">
</g>
<g id="Ebene_1_1_">
	<g>
		<path fill="#D3D4D5" d="M57.234,17.417H22.762c-2.924,0-5.303,2.382-5.303,5.311V57.2c0,2.927,2.379,5.308,5.303,5.308h34.474
			c2.925,0,5.304-2.381,5.304-5.308V22.728C62.539,19.799,60.16,17.417,57.234,17.417z M57.939,57.2
			c0,0.391-0.316,0.708-0.705,0.708H22.762c-0.388,0-0.703-0.317-0.703-0.708V22.728c0-0.392,0.315-0.711,0.703-0.711h34.474
			c0.388,0,0.703,0.319,0.703,0.711V57.2L57.939,57.2z"/>
		<path fill="#D3D4D5" d="M50.371,26.52c-1.271,0-2.301,1.029-2.301,2.3v22.286c0,1.271,1.029,2.299,2.301,2.299
			s2.3-1.028,2.3-2.299V28.819C52.671,27.549,51.643,26.52,50.371,26.52z"/>
		<path fill="#D3D4D5" d="M39.998,26.52c-1.271,0-2.3,1.029-2.3,2.3v22.286c0,1.271,1.029,2.299,2.3,2.299
			c1.271,0,2.3-1.028,2.3-2.299V28.819C42.298,27.549,41.27,26.52,39.998,26.52z"/>
		<path fill="#D3D4D5" d="M29.626,26.52c-1.271,0-2.3,1.029-2.3,2.3v22.286c0,1.271,1.029,2.299,2.3,2.299s2.3-1.028,2.3-2.299
			V28.819C31.926,27.549,30.896,26.52,29.626,26.52z"/>
	</g>
</g>
</svg>
