<?xml version="1.0" encoding="utf-8"?>
<!-- Generator: Adobe Illustrator 16.0.4, SVG Export Plug-In . SVG Version: 6.00 Build 0)  -->
<!DOCTYPE svg PUBLIC "-//W3C//DTD SVG 1.1//EN" "http://www.w3.org/Graphics/SVG/1.1/DTD/svg11.dtd">
<svg version="1.1" id="Ebene_1" xmlns="http://www.w3.org/2000/svg" xmlns:xlink="http://www.w3.org/1999/xlink" x="0px" y="0px"
	 width="80px" height="80px" viewBox="0 0 80 80" enable-background="new 0 0 80 80" xml:space="preserve">
<g id="Quadr._Hilfslinien_Kopie" display="none">
</g>
<g id="Quadrate">
</g>
<g id="Ebene_1_1_">
	<g>
		<path fill="#E2001A" d="M31.34,41.083c-1.325,0-2.4-1.075-2.4-2.4v-21.94c0-1.325,1.075-2.4,2.4-2.4c1.325,0,2.4,1.075,2.4,2.4
			v21.939C33.74,40.008,32.665,41.083,31.34,41.083z"/>
		<path fill="#E2001A" d="M39.549,40.034c-0.042,0-0.085-0.001-0.128-0.004c-1.323-0.069-2.34-1.198-2.271-2.522l1.225-23.384
			c0.068-1.323,1.202-2.364,2.521-2.271c1.324,0.069,2.34,1.198,2.271,2.522L41.943,37.76C41.877,39.04,40.816,40.034,39.549,40.034
			z"/>
		<path fill="#E2001A" d="M47.796,41.738c-0.082,0-0.164-0.004-0.247-0.014c-1.318-0.137-2.277-1.312-2.145-2.632l2.15-20.991
			c0.137-1.319,1.324-2.286,2.633-2.144c1.317,0.136,2.276,1.313,2.144,2.632l-2.149,20.991
			C50.055,40.818,49.012,41.738,47.796,41.738z"/>
		<path fill="#E2001A" d="M40.16,68.005c-7.053,0-13.486-4.424-16.009-11.009c-0.038-0.1-0.069-0.201-0.094-0.305L17.5,35.608
			c-0.394-1.266,0.313-2.611,1.579-3.005c1.266-0.391,2.611,0.313,3.005,1.579l6.604,21.236c1.853,4.663,6.443,7.785,11.472,7.785
			c5.75,0,10.799-4.049,12.044-9.645l3.354-27.062c0.162-1.316,1.371-2.254,2.678-2.087c1.313,0.163,2.25,1.361,2.086,2.677
			L56.954,54.26c-0.009,0.07-0.021,0.139-0.035,0.207C55.24,62.312,48.191,68.005,40.16,68.005z"/>
	</g>
</g>
</svg>
