<?xml version="1.0" encoding="utf-8"?>
<!-- Generator: Adobe Illustrator 16.0.4, SVG Export Plug-In . SVG Version: 6.00 Build 0)  -->
<!DOCTYPE svg PUBLIC "-//W3C//DTD SVG 1.1//EN" "http://www.w3.org/Graphics/SVG/1.1/DTD/svg11.dtd">
<svg version="1.1" id="Ebene_1" xmlns="http://www.w3.org/2000/svg" xmlns:xlink="http://www.w3.org/1999/xlink" x="0px" y="0px"
	 width="80px" height="80px" viewBox="0 0 80 80" enable-background="new 0 0 80 80" xml:space="preserve">
<g id="Quadr._Hilfslinien_Kopie" display="none">
</g>
<g id="Quadrate">
</g>
<g id="Ebene_1_1_">
	<path fill="#79B63E" d="M42.48,18.898v-5.213c0-1.381-1.119-2.5-2.5-2.5c-1.381,0-2.5,1.119-2.5,2.5V41c0,1.381,1.119,2.5,2.5,2.5
		c1.379,0,2.5-1.119,2.5-2.5V23.94c9.552,1.202,16.826,9.304,16.826,19.105c0,10.623-8.645,19.266-19.269,19.266
		S20.77,53.668,20.77,43.045c0-5.367,2.157-10.344,5.987-13.967l0.029,5.879c0.006,1.239,1.013,2.239,2.25,2.239
		c0.004,0,0.008,0,0.011,0c1.243-0.006,2.245-1.019,2.239-2.261l-0.058-11.639c-0.003-0.598-0.243-1.168-0.667-1.588
		c-0.422-0.418-0.99-0.651-1.583-0.651c-0.004,0-0.008,0-0.012,0L17.33,21.118c-1.242,0.007-2.245,1.02-2.238,2.262
		c0.007,1.238,1.013,2.238,2.25,2.238c0.004,0,0.008,0,0.012,0l5.835-0.03c-4.688,4.541-7.42,10.866-7.42,17.457
		c0,13.38,10.887,24.266,24.268,24.266s24.27-10.886,24.27-24.266C64.309,30.486,54.824,20.126,42.48,18.898z"/>
</g>
</svg>
