<svg width="90" height="120" viewBox="0 0 90 120" fill="none" xmlns="http://www.w3.org/2000/svg">
<circle cx="75" cy="25" r="14.5" fill="white" stroke="black"/>
<circle cx="75" cy="95" r="14.5" fill="white" stroke="black"/>
<rect width="80" height="120" rx="10" fill="black"/>
<rect x="0.5" y="0.5" width="59" height="119" rx="9.5" fill="white" stroke="black"/>
<circle cx="30" cy="60" r="19.5" fill="#D80000" stroke="black"/>
<rect x="60" y="20" width="20" height="20" fill="#0018EF"/>
<path d="M74.9043 36H73.208L66.7656 26.1387V36H65.0693V23.2031H66.7656L73.2256 33.1084V23.2031H74.9043V36Z" fill="white"/>
<rect x="60" y="60" width="20" height="20" fill="#0018EF"/>
<path d="M74.9043 76H73.208L66.7656 66.1387V76H65.0693V63.2031H66.7656L73.2256 73.1084V63.2031H74.9043V76Z" fill="white"/>
<rect x="60" y="40" width="20" height="20" fill="#EF0000"/>
<path d="M69.9121 50.2959C68.4648 49.8799 67.4102 49.3701 66.748 48.7666C66.0918 48.1572 65.7637 47.4072 65.7637 46.5166C65.7637 45.5088 66.165 44.6768 66.9678 44.0205C67.7764 43.3584 68.8252 43.0273 70.1143 43.0273C70.9932 43.0273 71.7754 43.1973 72.4609 43.5371C73.1523 43.877 73.6855 44.3457 74.0605 44.9434C74.4414 45.541 74.6318 46.1943 74.6318 46.9033H72.9355C72.9355 46.1299 72.6895 45.5234 72.1973 45.084C71.7051 44.6387 71.0107 44.416 70.1143 44.416C69.2822 44.416 68.6318 44.6006 68.1631 44.9697C67.7002 45.333 67.4688 45.8398 67.4688 46.4902C67.4688 47.0117 67.6885 47.4541 68.1279 47.8174C68.5732 48.1748 69.3262 48.5029 70.3867 48.8018C71.4531 49.1006 72.2852 49.4316 72.8828 49.7949C73.4863 50.1523 73.9316 50.5713 74.2188 51.0518C74.5117 51.5322 74.6582 52.0977 74.6582 52.748C74.6582 53.7852 74.2539 54.6172 73.4453 55.2441C72.6367 55.8652 71.5557 56.1758 70.2021 56.1758C69.3232 56.1758 68.5029 56.0088 67.7412 55.6748C66.9795 55.335 66.3906 54.8721 65.9746 54.2861C65.5645 53.7002 65.3594 53.0352 65.3594 52.291H67.0557C67.0557 53.0645 67.3398 53.6768 67.9082 54.1279C68.4824 54.5732 69.2471 54.7959 70.2021 54.7959C71.0928 54.7959 71.7754 54.6143 72.25 54.251C72.7246 53.8877 72.9619 53.3926 72.9619 52.7656C72.9619 52.1387 72.7422 51.6553 72.3027 51.3154C71.8633 50.9697 71.0664 50.6299 69.9121 50.2959Z" fill="white"/>
<rect x="60" y="80" width="20" height="20" fill="#EF0000"/>
<path d="M69.9121 90.2959C68.4648 89.8799 67.4102 89.3701 66.748 88.7666C66.0918 88.1572 65.7637 87.4072 65.7637 86.5166C65.7637 85.5088 66.165 84.6768 66.9678 84.0205C67.7764 83.3584 68.8252 83.0273 70.1143 83.0273C70.9932 83.0273 71.7754 83.1973 72.4609 83.5371C73.1523 83.877 73.6855 84.3457 74.0605 84.9434C74.4414 85.541 74.6318 86.1943 74.6318 86.9033H72.9355C72.9355 86.1299 72.6895 85.5234 72.1973 85.084C71.7051 84.6387 71.0107 84.416 70.1143 84.416C69.2822 84.416 68.6318 84.6006 68.1631 84.9697C67.7002 85.333 67.4688 85.8398 67.4688 86.4902C67.4688 87.0117 67.6885 87.4541 68.1279 87.8174C68.5732 88.1748 69.3262 88.5029 70.3867 88.8018C71.4531 89.1006 72.2852 89.4316 72.8828 89.7949C73.4863 90.1523 73.9316 90.5713 74.2188 91.0518C74.5117 91.5322 74.6582 92.0977 74.6582 92.748C74.6582 93.7852 74.2539 94.6172 73.4453 95.2441C72.6367 95.8652 71.5557 96.1758 70.2021 96.1758C69.3232 96.1758 68.5029 96.0088 67.7412 95.6748C66.9795 95.335 66.3906 94.8721 65.9746 94.2861C65.5645 93.7002 65.3594 93.0352 65.3594 92.291H67.0557C67.0557 93.0645 67.3398 93.6768 67.9082 94.1279C68.4824 94.5732 69.2471 94.7959 70.2021 94.7959C71.0928 94.7959 71.7754 94.6143 72.25 94.251C72.7246 93.8877 72.9619 93.3926 72.9619 92.7656C72.9619 92.1387 72.7422 91.6553 72.3027 91.3154C71.8633 90.9697 71.0664 90.6299 69.9121 90.2959Z" fill="white"/>
</svg>
