<svg width="24" height="181" viewBox="0 0 24 181" fill="none" xmlns="http://www.w3.org/2000/svg">
<line x1="2" y1="1" x2="2" y2="181" stroke="black" stroke-width="4"/>
<line y1="-0.5" x2="26.6927" y2="-0.5" transform="matrix(0.749269 -0.662266 0.749269 0.662266 4 18.6777)" stroke="black"/>
<line y1="-0.5" x2="26.6927" y2="-0.5" transform="matrix(0.749269 -0.662266 0.749269 0.662266 4 36.3553)" stroke="black"/>
<line y1="-0.5" x2="26.6927" y2="-0.5" transform="matrix(0.749269 -0.662266 0.749269 0.662266 4 54.033)" stroke="black"/>
<line y1="-0.5" x2="26.6927" y2="-0.5" transform="matrix(0.749269 -0.662266 0.749269 0.662266 4 71.7107)" stroke="black"/>
<line y1="-0.5" x2="26.6927" y2="-0.5" transform="matrix(0.749269 -0.662266 0.749269 0.662266 4 89.3884)" stroke="black"/>
<line y1="-0.5" x2="26.6927" y2="-0.5" transform="matrix(0.749269 -0.662266 0.749269 0.662266 4 107.066)" stroke="black"/>
<line y1="-0.5" x2="26.6927" y2="-0.5" transform="matrix(0.749269 -0.662266 0.749269 0.662266 4 124.744)" stroke="black"/>
<line y1="-0.5" x2="26.6927" y2="-0.5" transform="matrix(0.749269 -0.662266 0.749269 0.662266 4 142.421)" stroke="black"/>
<line y1="-0.5" x2="26.6927" y2="-0.5" transform="matrix(0.749269 -0.662266 0.749269 0.662266 4 160.099)" stroke="black"/>
<line y1="-0.5" x2="26.6927" y2="-0.5" transform="matrix(0.749269 -0.662266 0.749269 0.662266 4 177.777)" stroke="black"/>
</svg>
