<?xml version="1.0" encoding="utf-8"?>
<!-- Generator: Adobe Illustrator 15.0.0, SVG Export Plug-In . SVG Version: 6.00 Build 0)  -->
<!DOCTYPE svg PUBLIC "-//W3C//DTD SVG 1.1//EN" "http://www.w3.org/Graphics/SVG/1.1/DTD/svg11.dtd">
<svg version="1.1" xmlns="http://www.w3.org/2000/svg" xmlns:xlink="http://www.w3.org/1999/xlink" x="0px" y="0px"
	 width="595.275px" height="181.417px" viewBox="0 0 595.275 181.417" enable-background="new 0 0 595.275 181.417"
	 xml:space="preserve">
<g id="Ebene_1">
</g>
<g id="Inhalt">
	<rect x="404.667" y="65.044" fill="#4B4B4D" width="10.745" height="10.752"/>
	<path fill="#4B4B4D" d="M98.816,90.95l-30.797,0.029l0.018-59.615c-16.595,0.508-29.903,14.092-29.903,30.812v53.174
		c0,17.039,13.818,30.861,30.861,30.861h42.575v-42.504C111.57,96.671,105.848,90.95,98.816,90.95z"/>
	<path fill="#009EE0" d="M122.168,31.313H80.245l-0.017,47.445l18.583-0.02c13.769,0,24.966,11.201,24.966,24.969v42.422
		c16.297-0.844,29.249-14.283,29.249-30.779V62.177C153.026,45.132,139.214,31.313,122.168,31.313z"/>
	<path fill="#4B4B4D" d="M192.278,97.819V38.101h8.615v25.764H227V38.101h8.616v59.719H227V72.481h-26.106v25.338H192.278z"/>
	<path fill="#4B4B4D" d="M248.744,81.78V53.032c0-5.461,1.594-9.385,4.779-11.775c2.785-2.104,6.994-3.156,12.624-3.156h21.84v8.617
		h-25.166c-1.594,0-2.9,0.684-3.925,2.049c-1.025,1.363-1.537,2.871-1.537,4.52v10.15h30.546v8.617h-30.546v11.75
		c0,0.568,0.146,1.141,0.428,1.713c0.856,1.773,2.134,2.887,3.84,3.344c0.853,0.23,2.614,0.342,5.292,0.342h20.816v8.617h-23.122
		C254.035,97.819,248.744,92.476,248.744,81.78z"/>
	<path fill="#4B4B4D" d="M301.288,82.806V38.101h8.615V82.72c0,2.389,0.557,4.066,1.665,5.033c1.11,0.967,2.886,1.449,5.333,1.449
		h22.609v8.617h-22.439c-5.007,0-8.843-1.25-11.517-3.752C302.708,91.507,301.288,87.753,301.288,82.806z"/>
	<path fill="#4B4B4D" d="M348.083,97.819V38.101h25.938c11.202,0,16.806,4.75,16.806,14.25v8.529c0,4.834-1.438,8.545-4.307,11.131
		c-2.875,2.592-6.754,3.883-11.646,3.883h-18.173v21.926H348.083z M374.848,67.278c2.338,0,4.081-0.398,5.222-1.193
		c1.139-0.799,1.854-2.305,2.141-4.523V52.86c0-0.51-0.03-0.883-0.084-1.109c-0.23-1.762-0.802-3.014-1.715-3.754
		c-0.802-0.568-2.141-0.967-4.022-1.193c-0.116,0-0.344-0.029-0.687-0.086h-19.002v20.561H374.848z"/>
	<path fill="#4B4B4D" d="M419.472,46.718v-8.617h40.888v8.617h-16.131v51.102h-8.614V46.718H419.472z"/>
	<path fill="#4B4B4D" d="M467.32,81.78V53.032c0-5.461,1.596-9.385,4.781-11.775c2.783-2.104,6.997-3.156,12.626-3.156h21.837v8.617
		H481.4c-1.594,0-2.901,0.684-3.926,2.049c-1.022,1.363-1.536,2.871-1.536,4.52v10.15h30.544v8.617h-30.544v11.75
		c0,0.568,0.146,1.141,0.428,1.713c0.854,1.773,2.133,2.887,3.841,3.344c0.85,0.23,2.611,0.342,5.289,0.342h20.814v8.617h-23.119
		C472.614,97.819,467.32,92.476,467.32,81.78z"/>
	<path fill="#4B4B4D" d="M521.081,83.487V52.774c0-4.266,1.251-7.777,3.754-10.535c2.502-2.758,5.859-4.139,10.066-4.139h25.084
		v8.617h-23.976c-4.208,0-6.311,2.105-6.311,6.314v29.773c0,1.764,0.61,3.27,1.832,4.52c1.222,1.252,2.717,1.877,4.479,1.877h23.804
		v8.617H534.22c-2.448,0-4.948-0.854-7.509-2.559C522.959,92.757,521.081,88.835,521.081,83.487z"/>
	<path fill="#4B4B4D" d="M208.939,135.847h-14.187l-3.285,8.641l-3.56-0.002l11.937-29.754c0.182-0.436,0.369-0.734,0.591-0.938
		c0.374-0.434,0.876-0.66,1.46-0.66c0.551,0,1.543,0.217,1.988,1.66l11.957,29.691l-3.557,0.002L208.939,135.847z M207.66,132.72
		l-5.825-15.031l-5.768,15.031H207.66z"/>
	<path fill="#4B4B4D" d="M230.037,144.485c-1.552,0-2.604-0.059-3.22-0.184c-1.079-0.221-2.108-0.729-3.06-1.51
		c-0.956-0.781-1.65-1.713-2.063-2.76c-0.376-0.941-0.56-2.205-0.56-3.861v-22.658h3.084v22.271c0,2.082,0.445,3.561,1.321,4.391
		c0.888,0.842,2.415,1.27,4.539,1.27h4.655c2.157,0,3.7-0.416,4.59-1.236c0.871-0.801,1.313-2.277,1.313-4.383v-22.312h3.083v22.658
		c0,2.859-0.869,5.066-2.584,6.562c-0.944,0.82-2.002,1.348-3.145,1.57c-0.644,0.123-1.695,0.182-3.217,0.182H230.037z"/>
	<polygon fill="#4B4B4D" points="259.418,144.485 259.418,116.554 250.779,116.554 250.779,113.513 271.184,113.513 
		271.184,116.554 262.502,116.554 262.502,144.485 	"/>
	<path fill="#4B4B4D" d="M285.978,144.485c-5.522,0-8.441-2.715-8.441-7.854v-15.141c0-5.219,2.919-7.979,8.441-7.979h5.895
		c5.522,0,8.441,2.76,8.441,7.979v15.141c0,5.139-2.919,7.854-8.441,7.854H285.978z M285.936,116.554
		c-3.625,0-5.314,1.602-5.314,5.039v14.938c0,3.352,1.689,4.914,5.314,4.914h6.021c3.597,0,5.273-1.562,5.273-4.914v-14.938
		c0-3.438-1.677-5.039-5.273-5.039H285.936z"/>
	<path fill="#4B4B4D" d="M327.363,144.653c-0.686,0-1.229-0.361-1.531-1.014l-0.108-0.252l-0.369-0.574l-10.437-21.939v23.611
		h-3.085v-29.578c0-1.068,0.636-1.73,1.66-1.73c0.571,0,1.077,0.27,1.425,0.76c0.07,0.094,0.196,0.287,0.622,1.168l11.847,24.811
		l11.638-24.9c0.056-0.146,0.146-0.309,0.288-0.518c0.184-0.305,0.804-1.32,1.804-1.32c0.977,0,1.606,0.68,1.606,1.73v29.578h-3.083
		v-23.521l-10.581,22.555C328.688,144.257,328.089,144.653,327.363,144.653z"/>
	<path fill="#4B4B4D" d="M370.768,135.847h-14.187l-3.284,8.641l-3.561-0.002l11.937-29.754c0.181-0.436,0.37-0.734,0.592-0.938
		c0.373-0.434,0.876-0.66,1.459-0.66c0.552,0,1.543,0.217,1.988,1.66l11.957,29.691l-3.557,0.002L370.768,135.847z M369.489,132.72
		l-5.826-15.031l-5.766,15.031H369.489z"/>
	<polygon fill="#4B4B4D" points="387.368,144.485 387.368,116.554 378.727,116.554 378.727,113.513 399.133,113.513 
		399.133,116.554 390.452,116.554 390.452,144.485 	"/>
	<rect x="407.99" y="113.513" fill="#4B4B4D" width="3.084" height="30.973"/>
	<path fill="#4B4B4D" d="M432.026,144.485c-5.522,0-8.441-2.715-8.441-7.854v-15.141c0-5.219,2.919-7.979,8.441-7.979h5.895
		c5.517,0,8.431,2.76,8.431,7.979v15.141c0,5.139-2.914,7.854-8.431,7.854H432.026z M431.984,116.554
		c-3.627,0-5.315,1.602-5.315,5.039v14.938c0,3.352,1.688,4.914,5.315,4.914h6.021c3.598,0,5.269-1.562,5.269-4.914v-14.938
		c0-3.438-1.671-5.039-5.269-5.039H431.984z"/>
	<path fill="#4B4B4D" d="M479.427,144.821c-0.227,0-0.464-0.055-0.727-0.17c-0.271-0.121-0.518-0.311-0.735-0.564l-0.445-0.564
		l-0.225-0.262l-15.84-23.922v25.146h-3.082v-29.592l0.006-0.053c0.138-1.018,0.781-1.623,1.725-1.623
		c0.758,0,1.391,0.672,1.801,1.18c0.107,0.154,0.202,0.311,0.326,0.529l15.727,23.682v-25.096h3.085v28.361
		c0,1.082-0.031,1.322-0.061,1.463C480.711,144.677,479.805,144.821,479.427,144.821z"/>
	<path fill="#4B4B4D" d="M525.965,135.847h-14.187l-3.283,8.641l-3.562-0.002l11.937-29.754c0.182-0.436,0.37-0.732,0.591-0.936
		c0.373-0.434,0.875-0.662,1.459-0.662c0.551,0,1.543,0.217,1.989,1.66l11.957,29.691l-3.557,0.002L525.965,135.847z
		 M524.687,132.72l-5.826-15.031l-5.768,15.031H524.687z"/>
	<path fill="#4B4B4D" d="M549.894,127.56v3.041h8.188v6.729c0,1.516-0.647,2.672-1.985,3.533c-0.597,0.391-1.275,0.582-2.072,0.582
		h-7.634c-1.286,0-1.907-0.148-2.201-0.273c-1.694-0.719-2.484-1.994-2.484-4.01v-16.408c0-1.438,0.435-2.482,1.333-3.199
		c0.827-0.664,2.012-1,3.521-1h13.474v-3.041h-13.643c-2.234,0-4.08,0.633-5.48,1.877c-1.519,1.328-2.29,3.143-2.29,5.389v16.398
		c0,2.355,0.712,4.188,2.115,5.445c1.377,1.236,3.266,1.863,5.614,1.863h7.675c1.432,0,2.704-0.336,3.781-1.002
		c2.23-1.383,3.36-3.533,3.36-6.391v-6.492v-2.998v-0.043H549.894z"/>
</g>
</svg>
